%TF.GenerationSoftware,KiCad,Pcbnew,(6.0.4)*%
%TF.CreationDate,2022-06-03T19:19:18-06:00*%
%TF.ProjectId,Gas_Sensor_Module,4761735f-5365-46e7-936f-725f4d6f6475,rev?*%
%TF.SameCoordinates,Original*%
%TF.FileFunction,Copper,L2,Bot*%
%TF.FilePolarity,Positive*%
%FSLAX46Y46*%
G04 Gerber Fmt 4.6, Leading zero omitted, Abs format (unit mm)*
G04 Created by KiCad (PCBNEW (6.0.4)) date 2022-06-03 19:19:18*
%MOMM*%
%LPD*%
G01*
G04 APERTURE LIST*
G04 Aperture macros list*
%AMRoundRect*
0 Rectangle with rounded corners*
0 $1 Rounding radius*
0 $2 $3 $4 $5 $6 $7 $8 $9 X,Y pos of 4 corners*
0 Add a 4 corners polygon primitive as box body*
4,1,4,$2,$3,$4,$5,$6,$7,$8,$9,$2,$3,0*
0 Add four circle primitives for the rounded corners*
1,1,$1+$1,$2,$3*
1,1,$1+$1,$4,$5*
1,1,$1+$1,$6,$7*
1,1,$1+$1,$8,$9*
0 Add four rect primitives between the rounded corners*
20,1,$1+$1,$2,$3,$4,$5,0*
20,1,$1+$1,$4,$5,$6,$7,0*
20,1,$1+$1,$6,$7,$8,$9,0*
20,1,$1+$1,$8,$9,$2,$3,0*%
%AMFreePoly0*
4,1,6,0.500000,-0.850000,-0.200000,-0.850000,-0.500000,-0.550000,-0.500000,0.850000,0.500000,0.850000,0.500000,-0.850000,0.500000,-0.850000,$1*%
G04 Aperture macros list end*
%TA.AperFunction,ComponentPad*%
%ADD10R,2.400000X1.600000*%
%TD*%
%TA.AperFunction,ComponentPad*%
%ADD11O,2.400000X1.600000*%
%TD*%
%TA.AperFunction,SMDPad,CuDef*%
%ADD12R,1.500000X1.000000*%
%TD*%
%TA.AperFunction,ComponentPad*%
%ADD13O,1.700000X1.950000*%
%TD*%
%TA.AperFunction,ComponentPad*%
%ADD14RoundRect,0.250000X-0.600000X-0.725000X0.600000X-0.725000X0.600000X0.725000X-0.600000X0.725000X0*%
%TD*%
%TA.AperFunction,SMDPad,CuDef*%
%ADD15R,0.550000X0.250000*%
%TD*%
%TA.AperFunction,SMDPad,CuDef*%
%ADD16FreePoly0,180.000000*%
%TD*%
%TA.AperFunction,SMDPad,CuDef*%
%ADD17RoundRect,0.250000X-0.400000X-0.625000X0.400000X-0.625000X0.400000X0.625000X-0.400000X0.625000X0*%
%TD*%
%TA.AperFunction,ComponentPad*%
%ADD18C,1.440000*%
%TD*%
%TA.AperFunction,ComponentPad*%
%ADD19R,2.000000X2.000000*%
%TD*%
%TA.AperFunction,ComponentPad*%
%ADD20C,2.000000*%
%TD*%
%TA.AperFunction,ViaPad*%
%ADD21C,0.711200*%
%TD*%
%TA.AperFunction,Conductor*%
%ADD22C,0.254000*%
%TD*%
G04 APERTURE END LIST*
D10*
%TO.P,LM358,1*%
%TO.N,/DO1*%
X164069000Y-49540000D03*
D11*
%TO.P,LM358,2,-*%
%TO.N,/AO1*%
X164069000Y-52080000D03*
%TO.P,LM358,3,+*%
%TO.N,Net-(LM358-Pad3)*%
X164069000Y-54620000D03*
%TO.P,LM358,4,V-*%
%TO.N,GND*%
X164069000Y-57160000D03*
%TO.P,LM358,5,+*%
%TO.N,/AO2*%
X171689000Y-57160000D03*
%TO.P,LM358,6,-*%
%TO.N,Net-(LM358-Pad6)*%
X171689000Y-54620000D03*
%TO.P,LM358,7*%
%TO.N,/DO2*%
X171689000Y-52080000D03*
%TO.P,LM358,8,V+*%
%TO.N,VCC*%
X171689000Y-49540000D03*
%TD*%
D12*
%TO.P,D3,1,VDD*%
%TO.N,/3V3*%
X212762000Y-71298000D03*
%TO.P,D3,2,DOUT*%
%TO.N,Net-(D3-Pad2)*%
X212762000Y-74498000D03*
%TO.P,D3,3,VSS*%
%TO.N,GND*%
X207862000Y-74498000D03*
%TO.P,D3,4,DIN*%
%TO.N,Net-(D2-Pad2)*%
X207862000Y-71298000D03*
%TD*%
D13*
%TO.P,J1,6,Pin_6*%
%TO.N,GND*%
X176330000Y-70358000D03*
%TO.P,J1,5,Pin_5*%
%TO.N,/AO2*%
X173830000Y-70358000D03*
%TO.P,J1,4,Pin_4*%
%TO.N,/AO1*%
X171330000Y-70358000D03*
%TO.P,J1,3,Pin_3*%
%TO.N,/DO2*%
X168830000Y-70358000D03*
%TO.P,J1,2,Pin_2*%
%TO.N,/DO1*%
X166330000Y-70358000D03*
D14*
%TO.P,J1,1,Pin_1*%
%TO.N,VCC*%
X163830000Y-70358000D03*
%TD*%
D15*
%TO.P,U1,1,SDA*%
%TO.N,/SDA*%
X227489000Y-63512000D03*
%TO.P,U1,2,ADDR*%
%TO.N,GND*%
X227489000Y-64012000D03*
%TO.P,U1,3,ALERT*%
%TO.N,unconnected-(U1-Pad3)*%
X227489000Y-64512000D03*
%TO.P,U1,4,SCL*%
%TO.N,/SCL*%
X227489000Y-65012000D03*
%TO.P,U1,5,VDD*%
%TO.N,/3V3*%
X225139000Y-65012000D03*
%TO.P,U1,6,~{RESET}*%
%TO.N,unconnected-(U1-Pad6)*%
X225139000Y-64512000D03*
%TO.P,U1,7,R*%
%TO.N,GND*%
X225139000Y-64012000D03*
%TO.P,U1,8,VSS*%
X225139000Y-63512000D03*
D16*
%TO.P,U1,9,VSS*%
X226314000Y-64262000D03*
%TD*%
D17*
%TO.P,R9,1*%
%TO.N,/3V3*%
X225780000Y-69850000D03*
%TO.P,R9,2*%
%TO.N,/SCL*%
X228880000Y-69850000D03*
%TD*%
%TO.P,R8,1*%
%TO.N,/3V3*%
X226034000Y-58420000D03*
%TO.P,R8,2*%
%TO.N,/SDA*%
X229134000Y-58420000D03*
%TD*%
D14*
%TO.P,J2,1,Pin_1*%
%TO.N,/DPIX*%
X183193995Y-70312001D03*
D13*
%TO.P,J2,2,Pin_2*%
%TO.N,/SCL*%
X185693995Y-70312001D03*
%TO.P,J2,3,Pin_3*%
%TO.N,/SDA*%
X188193995Y-70312001D03*
%TO.P,J2,4,Pin_4*%
%TO.N,/3V3*%
X190693995Y-70312001D03*
%TD*%
D12*
%TO.P,D4,1,VDD*%
%TO.N,/3V3*%
X204126000Y-71298000D03*
%TO.P,D4,2,DOUT*%
%TO.N,unconnected-(D4-Pad2)*%
X204126000Y-74498000D03*
%TO.P,D4,3,VSS*%
%TO.N,GND*%
X199226000Y-74498000D03*
%TO.P,D4,4,DIN*%
%TO.N,Net-(D3-Pad2)*%
X199226000Y-71298000D03*
%TD*%
%TO.P,D2,1,VDD*%
%TO.N,/3V3*%
X221144000Y-71298000D03*
%TO.P,D2,2,DOUT*%
%TO.N,Net-(D2-Pad2)*%
X221144000Y-74498000D03*
%TO.P,D2,3,VSS*%
%TO.N,GND*%
X216244000Y-74498000D03*
%TO.P,D2,4,DIN*%
%TO.N,/DPIX*%
X216244000Y-71298000D03*
%TD*%
D18*
%TO.P,POT2,1,1*%
%TO.N,VCC*%
X177800000Y-53330000D03*
%TO.P,POT2,2,2*%
%TO.N,Net-(LM358-Pad6)*%
X177800000Y-55870000D03*
%TO.P,POT2,3,3*%
%TO.N,GND*%
X177800000Y-58410000D03*
%TD*%
%TO.P,POT1,1,1*%
%TO.N,VCC*%
X158242000Y-53075992D03*
%TO.P,POT1,2,2*%
%TO.N,Net-(LM358-Pad3)*%
X158242000Y-55615992D03*
%TO.P,POT1,3,3*%
%TO.N,GND*%
X158242000Y-58155992D03*
%TD*%
D19*
%TO.P,MQ135,1,B1*%
%TO.N,VCC*%
X217735988Y-55060012D03*
D20*
%TO.P,MQ135,2,VH+*%
X219125988Y-58420012D03*
%TO.P,MQ135,3,B2*%
X217735988Y-61780012D03*
%TO.P,MQ135,4,A2*%
%TO.N,/AO1*%
X211015988Y-61780012D03*
%TO.P,MQ135,5,VH-*%
%TO.N,Net-(MQ135-Pad5)*%
X209625988Y-58420012D03*
%TO.P,MQ135,6,A1*%
%TO.N,/AO1*%
X211015988Y-55060012D03*
%TD*%
%TO.P,MQ2,6,A1*%
%TO.N,/AO2*%
X190696000Y-55060000D03*
%TO.P,MQ2,5,VH-*%
%TO.N,Net-(MQ2-Pad5)*%
X189306000Y-58420000D03*
%TO.P,MQ2,4,A2*%
%TO.N,/AO2*%
X190696000Y-61780000D03*
%TO.P,MQ2,3,B2*%
%TO.N,VCC*%
X197416000Y-61780000D03*
%TO.P,MQ2,2,VH+*%
X198806000Y-58420000D03*
D19*
%TO.P,MQ2,1,B1*%
X197416000Y-55060000D03*
%TD*%
D21*
%TO.N,GND*%
X196850000Y-74930000D03*
X168910000Y-62230000D03*
X229612012Y-64011988D03*
%TO.N,/DPIX*%
X218186000Y-71374000D03*
%TO.N,/SCL*%
X227076000Y-66802000D03*
%TO.N,/3V3*%
X194310000Y-69850000D03*
%TO.N,/AO1*%
X170180000Y-60452000D03*
%TD*%
D22*
%TO.N,GND*%
X197282000Y-74498000D02*
X196850000Y-74930000D01*
X199226000Y-74498000D02*
X197282000Y-74498000D01*
X208280000Y-76200000D02*
X208280000Y-74916000D01*
X200928000Y-76200000D02*
X208280000Y-76200000D01*
X199226000Y-74498000D02*
X200928000Y-76200000D01*
X208280000Y-74916000D02*
X207862000Y-74498000D01*
X214542000Y-76200000D02*
X208280000Y-76200000D01*
X216244000Y-74498000D02*
X214542000Y-76200000D01*
X164069000Y-57389000D02*
X168910000Y-62230000D01*
X164069000Y-57160000D02*
X164069000Y-57389000D01*
%TO.N,/SDA*%
X229134000Y-57430000D02*
X229134000Y-58420000D01*
X228092000Y-56388000D02*
X229134000Y-57430000D01*
X222758000Y-57912000D02*
X224282000Y-56388000D01*
X222758000Y-60452000D02*
X222758000Y-57912000D01*
X215392000Y-67818000D02*
X222758000Y-60452000D01*
X188194000Y-69616000D02*
X189992000Y-67818000D01*
X188194000Y-70312000D02*
X188194000Y-69616000D01*
X189992000Y-67818000D02*
X215392000Y-67818000D01*
X224282000Y-56388000D02*
X228092000Y-56388000D01*
%TO.N,/AO1*%
X211015988Y-61780012D02*
X206756000Y-66040000D01*
X206756000Y-66040000D02*
X177292000Y-66040000D01*
X177292000Y-66040000D02*
X171704000Y-60452000D01*
X171704000Y-60452000D02*
X170180000Y-60452000D01*
%TO.N,GND*%
X227489000Y-64012000D02*
X229612000Y-64012000D01*
%TO.N,/3V3*%
X224028000Y-61976000D02*
X226034000Y-59970000D01*
X224028000Y-64770000D02*
X224028000Y-61976000D01*
X224270000Y-65012000D02*
X224028000Y-64770000D01*
X226034000Y-59970000D02*
X226034000Y-58420000D01*
X225139000Y-65012000D02*
X224270000Y-65012000D01*
%TO.N,GND*%
X225139000Y-63512000D02*
X225564000Y-63512000D01*
X225564000Y-63512000D02*
X226314000Y-64262000D01*
X225139000Y-64012000D02*
X226064000Y-64012000D01*
X226064000Y-64012000D02*
X226314000Y-64262000D01*
X226564000Y-64012000D02*
X226314000Y-64262000D01*
X227489000Y-64012000D02*
X226564000Y-64012000D01*
%TO.N,/SDA*%
X228588000Y-63512000D02*
X227489000Y-63512000D01*
X229134000Y-62966000D02*
X228588000Y-63512000D01*
X229134000Y-58420000D02*
X229134000Y-62966000D01*
%TO.N,/DPIX*%
X218186000Y-71374000D02*
X216320000Y-71374000D01*
X216320000Y-71374000D02*
X216244000Y-71298000D01*
%TO.N,Net-(D2-Pad2)*%
X209728000Y-71298000D02*
X207862000Y-71298000D01*
X211328000Y-72898000D02*
X209728000Y-71298000D01*
%TO.N,Net-(D3-Pad2)*%
X202692000Y-72898000D02*
X201092000Y-71298000D01*
X201092000Y-71298000D02*
X199226000Y-71298000D01*
X210896000Y-74498000D02*
X209296000Y-72898000D01*
X209296000Y-72898000D02*
X202692000Y-72898000D01*
X212762000Y-74498000D02*
X210896000Y-74498000D01*
%TO.N,Net-(D2-Pad2)*%
X219710000Y-72898000D02*
X211328000Y-72898000D01*
X221144000Y-74332000D02*
X219710000Y-72898000D01*
X221144000Y-74498000D02*
X221144000Y-74332000D01*
%TO.N,/SCL*%
X228880000Y-68606000D02*
X227076000Y-66802000D01*
X228880000Y-69850000D02*
X228880000Y-68606000D01*
X228588000Y-65012000D02*
X227489000Y-65012000D01*
X228880000Y-65304000D02*
X228588000Y-65012000D01*
X228880000Y-69850000D02*
X228880000Y-65304000D01*
%TO.N,/3V3*%
X225780000Y-69850000D02*
X225139000Y-69209000D01*
X225139000Y-69209000D02*
X225139000Y-65012000D01*
X224332000Y-71298000D02*
X221144000Y-71298000D01*
X225780000Y-69850000D02*
X224332000Y-71298000D01*
X204126000Y-70776000D02*
X203200000Y-69850000D01*
X204126000Y-71298000D02*
X204126000Y-70776000D01*
X194310000Y-69850000D02*
X203200000Y-69850000D01*
X203200000Y-69850000D02*
X211328000Y-69850000D01*
X212762000Y-70776000D02*
X211836000Y-69850000D01*
X212762000Y-71298000D02*
X212762000Y-70776000D01*
X211328000Y-69850000D02*
X219696000Y-69850000D01*
X211836000Y-69850000D02*
X211328000Y-69850000D01*
X219696000Y-69850000D02*
X221144000Y-71298000D01*
%TO.N,/AO1*%
X166888000Y-52080000D02*
X164069000Y-52080000D01*
X167640000Y-52832000D02*
X166888000Y-52080000D01*
X167640000Y-57912000D02*
X167640000Y-52832000D01*
X170180000Y-60452000D02*
X167640000Y-57912000D01*
%TD*%
%TA.AperFunction,Conductor*%
%TO.N,VCC*%
G36*
X158185442Y-41254222D02*
G01*
X161361328Y-42001489D01*
X161396925Y-42015876D01*
X161463626Y-42055593D01*
X161504930Y-42080187D01*
X161513994Y-42086127D01*
X161667705Y-42196584D01*
X161871305Y-42342892D01*
X161879819Y-42349584D01*
X162213759Y-42636121D01*
X162221673Y-42643526D01*
X162277912Y-42700878D01*
X162303384Y-42738593D01*
X162769777Y-43804634D01*
X163830000Y-46228000D01*
X164280020Y-46228000D01*
X164301653Y-46229871D01*
X164313599Y-46231953D01*
X164313600Y-46231953D01*
X164322442Y-46233494D01*
X164359843Y-46229289D01*
X164373920Y-46228500D01*
X218652910Y-46228500D01*
X218721031Y-46248502D01*
X218728166Y-46253443D01*
X230582035Y-55080792D01*
X230624724Y-55137520D01*
X230632769Y-55180294D01*
X230736765Y-63603965D01*
X230736775Y-63605520D01*
X230736775Y-74902146D01*
X230736307Y-74913000D01*
X230732351Y-74958754D01*
X230734118Y-74967549D01*
X230734118Y-74967553D01*
X230736452Y-74979168D01*
X230738879Y-75000764D01*
X230748413Y-75373892D01*
X230749052Y-75398923D01*
X230748868Y-75409662D01*
X230725849Y-75794100D01*
X230723224Y-75837934D01*
X230722125Y-75848619D01*
X230682304Y-76121023D01*
X230672033Y-76155596D01*
X230195234Y-77188660D01*
X229524274Y-78642406D01*
X229502697Y-78674807D01*
X229244354Y-78956265D01*
X229236753Y-78963868D01*
X228991497Y-79189092D01*
X228966009Y-79207226D01*
X226981501Y-80275807D01*
X226950582Y-80287528D01*
X226564521Y-80378226D01*
X226554004Y-80380229D01*
X226129471Y-80442394D01*
X226118786Y-80443495D01*
X225725855Y-80467120D01*
X225690528Y-80469244D01*
X225679781Y-80469431D01*
X225250877Y-80458578D01*
X225240158Y-80457847D01*
X224937120Y-80424179D01*
X224913983Y-80419379D01*
X223291297Y-79920091D01*
X223273322Y-79913011D01*
X223153230Y-79854696D01*
X223143769Y-79849592D01*
X223022055Y-79777063D01*
X222775211Y-79629971D01*
X222766230Y-79624086D01*
X222482548Y-79420385D01*
X222417738Y-79373847D01*
X222409281Y-79367210D01*
X222134282Y-79131751D01*
X222127136Y-79125136D01*
X221763535Y-78761535D01*
X221755614Y-78752838D01*
X221518311Y-78466486D01*
X221504444Y-78445928D01*
X221502484Y-78442297D01*
X221502483Y-78442296D01*
X221498219Y-78434394D01*
X221491911Y-78428009D01*
X221486835Y-78421150D01*
X221481288Y-78414633D01*
X221476499Y-78407042D01*
X221469770Y-78401099D01*
X221438099Y-78373128D01*
X221431875Y-78367243D01*
X221402157Y-78337164D01*
X221395848Y-78330778D01*
X221387999Y-78326419D01*
X221381208Y-78321265D01*
X221374054Y-78316566D01*
X221367324Y-78310622D01*
X221359197Y-78306807D01*
X221359195Y-78306805D01*
X221320937Y-78288843D01*
X221313311Y-78284941D01*
X221313263Y-78284914D01*
X221269440Y-78260577D01*
X221253062Y-78248225D01*
X221246812Y-78244812D01*
X221234000Y-78232000D01*
X221158537Y-78232000D01*
X221144160Y-78230394D01*
X221144142Y-78230623D01*
X221135197Y-78229904D01*
X221126441Y-78227923D01*
X221117484Y-78228479D01*
X221117481Y-78228479D01*
X221072743Y-78231258D01*
X221064933Y-78231500D01*
X160728008Y-78231500D01*
X160655752Y-78208723D01*
X160561734Y-78142910D01*
X153470244Y-73178868D01*
X153425907Y-73123417D01*
X153416500Y-73075645D01*
X153416500Y-71130095D01*
X162472001Y-71130095D01*
X162472338Y-71136614D01*
X162482257Y-71232206D01*
X162485149Y-71245600D01*
X162536588Y-71399784D01*
X162542761Y-71412962D01*
X162628063Y-71550807D01*
X162637099Y-71562208D01*
X162751829Y-71676739D01*
X162763240Y-71685751D01*
X162901243Y-71770816D01*
X162914424Y-71776963D01*
X163068710Y-71828138D01*
X163082086Y-71831005D01*
X163176438Y-71840672D01*
X163182854Y-71841000D01*
X163557885Y-71841000D01*
X163573124Y-71836525D01*
X163574329Y-71835135D01*
X163576000Y-71827452D01*
X163576000Y-71822884D01*
X164084000Y-71822884D01*
X164088475Y-71838123D01*
X164089865Y-71839328D01*
X164097548Y-71840999D01*
X164477095Y-71840999D01*
X164483614Y-71840662D01*
X164579206Y-71830743D01*
X164592600Y-71827851D01*
X164746784Y-71776412D01*
X164759962Y-71770239D01*
X164897807Y-71684937D01*
X164909208Y-71675901D01*
X165023739Y-71561171D01*
X165032753Y-71549757D01*
X165118723Y-71410287D01*
X165171495Y-71362793D01*
X165241566Y-71351369D01*
X165306690Y-71379643D01*
X165317149Y-71389426D01*
X165426576Y-71504135D01*
X165430854Y-71507318D01*
X165443225Y-71516522D01*
X165611542Y-71641754D01*
X165616293Y-71644170D01*
X165616297Y-71644172D01*
X165647795Y-71660186D01*
X165817051Y-71746240D01*
X165822145Y-71747822D01*
X165822148Y-71747823D01*
X166022020Y-71809885D01*
X166037227Y-71814607D01*
X166042516Y-71815308D01*
X166260489Y-71844198D01*
X166260494Y-71844198D01*
X166265774Y-71844898D01*
X166271103Y-71844698D01*
X166271105Y-71844698D01*
X166380966Y-71840573D01*
X166496158Y-71836249D01*
X166501468Y-71835135D01*
X166716572Y-71790002D01*
X166721791Y-71788907D01*
X166726750Y-71786949D01*
X166726752Y-71786948D01*
X166931256Y-71706185D01*
X166931258Y-71706184D01*
X166936221Y-71704224D01*
X167008794Y-71660186D01*
X167128757Y-71587390D01*
X167128756Y-71587390D01*
X167133317Y-71584623D01*
X167183138Y-71541391D01*
X167303412Y-71437023D01*
X167303414Y-71437021D01*
X167307445Y-71433523D01*
X167361634Y-71367435D01*
X167450240Y-71259373D01*
X167450244Y-71259367D01*
X167453624Y-71255245D01*
X167471552Y-71223750D01*
X167522632Y-71174445D01*
X167592262Y-71160583D01*
X167658333Y-71186566D01*
X167685573Y-71215716D01*
X167767441Y-71337319D01*
X167771120Y-71341176D01*
X167771122Y-71341178D01*
X167818673Y-71391024D01*
X167926576Y-71504135D01*
X167930854Y-71507318D01*
X167943225Y-71516522D01*
X168111542Y-71641754D01*
X168116293Y-71644170D01*
X168116297Y-71644172D01*
X168147795Y-71660186D01*
X168317051Y-71746240D01*
X168322145Y-71747822D01*
X168322148Y-71747823D01*
X168522020Y-71809885D01*
X168537227Y-71814607D01*
X168542516Y-71815308D01*
X168760489Y-71844198D01*
X168760494Y-71844198D01*
X168765774Y-71844898D01*
X168771103Y-71844698D01*
X168771105Y-71844698D01*
X168880966Y-71840573D01*
X168996158Y-71836249D01*
X169001468Y-71835135D01*
X169216572Y-71790002D01*
X169221791Y-71788907D01*
X169226750Y-71786949D01*
X169226752Y-71786948D01*
X169431256Y-71706185D01*
X169431258Y-71706184D01*
X169436221Y-71704224D01*
X169508794Y-71660186D01*
X169628757Y-71587390D01*
X169628756Y-71587390D01*
X169633317Y-71584623D01*
X169683138Y-71541391D01*
X169803412Y-71437023D01*
X169803414Y-71437021D01*
X169807445Y-71433523D01*
X169861634Y-71367435D01*
X169950240Y-71259373D01*
X169950244Y-71259367D01*
X169953624Y-71255245D01*
X169971552Y-71223750D01*
X170022632Y-71174445D01*
X170092262Y-71160583D01*
X170158333Y-71186566D01*
X170185573Y-71215716D01*
X170267441Y-71337319D01*
X170271120Y-71341176D01*
X170271122Y-71341178D01*
X170318673Y-71391024D01*
X170426576Y-71504135D01*
X170430854Y-71507318D01*
X170443225Y-71516522D01*
X170611542Y-71641754D01*
X170616293Y-71644170D01*
X170616297Y-71644172D01*
X170647795Y-71660186D01*
X170817051Y-71746240D01*
X170822145Y-71747822D01*
X170822148Y-71747823D01*
X171022020Y-71809885D01*
X171037227Y-71814607D01*
X171042516Y-71815308D01*
X171260489Y-71844198D01*
X171260494Y-71844198D01*
X171265774Y-71844898D01*
X171271103Y-71844698D01*
X171271105Y-71844698D01*
X171380966Y-71840573D01*
X171496158Y-71836249D01*
X171501468Y-71835135D01*
X171716572Y-71790002D01*
X171721791Y-71788907D01*
X171726750Y-71786949D01*
X171726752Y-71786948D01*
X171931256Y-71706185D01*
X171931258Y-71706184D01*
X171936221Y-71704224D01*
X172008794Y-71660186D01*
X172128757Y-71587390D01*
X172128756Y-71587390D01*
X172133317Y-71584623D01*
X172183138Y-71541391D01*
X172303412Y-71437023D01*
X172303414Y-71437021D01*
X172307445Y-71433523D01*
X172361634Y-71367435D01*
X172450240Y-71259373D01*
X172450244Y-71259367D01*
X172453624Y-71255245D01*
X172471552Y-71223750D01*
X172522632Y-71174445D01*
X172592262Y-71160583D01*
X172658333Y-71186566D01*
X172685573Y-71215716D01*
X172767441Y-71337319D01*
X172771120Y-71341176D01*
X172771122Y-71341178D01*
X172818673Y-71391024D01*
X172926576Y-71504135D01*
X172930854Y-71507318D01*
X172943225Y-71516522D01*
X173111542Y-71641754D01*
X173116293Y-71644170D01*
X173116297Y-71644172D01*
X173147795Y-71660186D01*
X173317051Y-71746240D01*
X173322145Y-71747822D01*
X173322148Y-71747823D01*
X173522020Y-71809885D01*
X173537227Y-71814607D01*
X173542516Y-71815308D01*
X173760489Y-71844198D01*
X173760494Y-71844198D01*
X173765774Y-71844898D01*
X173771103Y-71844698D01*
X173771105Y-71844698D01*
X173880966Y-71840573D01*
X173996158Y-71836249D01*
X174001468Y-71835135D01*
X174216572Y-71790002D01*
X174221791Y-71788907D01*
X174226750Y-71786949D01*
X174226752Y-71786948D01*
X174431256Y-71706185D01*
X174431258Y-71706184D01*
X174436221Y-71704224D01*
X174508794Y-71660186D01*
X174628757Y-71587390D01*
X174628756Y-71587390D01*
X174633317Y-71584623D01*
X174683138Y-71541391D01*
X174803412Y-71437023D01*
X174803414Y-71437021D01*
X174807445Y-71433523D01*
X174861634Y-71367435D01*
X174950240Y-71259373D01*
X174950244Y-71259367D01*
X174953624Y-71255245D01*
X174971552Y-71223750D01*
X175022632Y-71174445D01*
X175092262Y-71160583D01*
X175158333Y-71186566D01*
X175185573Y-71215716D01*
X175267441Y-71337319D01*
X175271120Y-71341176D01*
X175271122Y-71341178D01*
X175318673Y-71391024D01*
X175426576Y-71504135D01*
X175430854Y-71507318D01*
X175443225Y-71516522D01*
X175611542Y-71641754D01*
X175616293Y-71644170D01*
X175616297Y-71644172D01*
X175647795Y-71660186D01*
X175817051Y-71746240D01*
X175822145Y-71747822D01*
X175822148Y-71747823D01*
X176022020Y-71809885D01*
X176037227Y-71814607D01*
X176042516Y-71815308D01*
X176260489Y-71844198D01*
X176260494Y-71844198D01*
X176265774Y-71844898D01*
X176271103Y-71844698D01*
X176271105Y-71844698D01*
X176380966Y-71840573D01*
X176496158Y-71836249D01*
X176501468Y-71835135D01*
X176716572Y-71790002D01*
X176721791Y-71788907D01*
X176726750Y-71786949D01*
X176726752Y-71786948D01*
X176931256Y-71706185D01*
X176931258Y-71706184D01*
X176936221Y-71704224D01*
X177008794Y-71660186D01*
X177128757Y-71587390D01*
X177128756Y-71587390D01*
X177133317Y-71584623D01*
X177183138Y-71541391D01*
X177303412Y-71437023D01*
X177303414Y-71437021D01*
X177307445Y-71433523D01*
X177361634Y-71367435D01*
X177450240Y-71259373D01*
X177450244Y-71259367D01*
X177453624Y-71255245D01*
X177459115Y-71245600D01*
X177549166Y-71087401D01*
X181835495Y-71087401D01*
X181835832Y-71090647D01*
X181835832Y-71090651D01*
X181844870Y-71177753D01*
X181846469Y-71193167D01*
X181848650Y-71199703D01*
X181848650Y-71199705D01*
X181880503Y-71295179D01*
X181902445Y-71360947D01*
X181995517Y-71511349D01*
X182120692Y-71636306D01*
X182126922Y-71640146D01*
X182126923Y-71640147D01*
X182264085Y-71724695D01*
X182271257Y-71729116D01*
X182316140Y-71744003D01*
X182432606Y-71782633D01*
X182432608Y-71782633D01*
X182439134Y-71784798D01*
X182445970Y-71785498D01*
X182445973Y-71785499D01*
X182481658Y-71789155D01*
X182543595Y-71795501D01*
X183844395Y-71795501D01*
X183847641Y-71795164D01*
X183847645Y-71795164D01*
X183943303Y-71785239D01*
X183943307Y-71785238D01*
X183950161Y-71784527D01*
X183956697Y-71782346D01*
X183956699Y-71782346D01*
X184104246Y-71733120D01*
X184117941Y-71728551D01*
X184268343Y-71635479D01*
X184393300Y-71510304D01*
X184483076Y-71364661D01*
X184535847Y-71317169D01*
X184605919Y-71305745D01*
X184671043Y-71334019D01*
X184681505Y-71343806D01*
X184723210Y-71387524D01*
X184790571Y-71458136D01*
X184975537Y-71595755D01*
X184980288Y-71598171D01*
X184980292Y-71598173D01*
X185043476Y-71630297D01*
X185181046Y-71700241D01*
X185186140Y-71701823D01*
X185186143Y-71701824D01*
X185329186Y-71746240D01*
X185401222Y-71768608D01*
X185406511Y-71769309D01*
X185624484Y-71798199D01*
X185624489Y-71798199D01*
X185629769Y-71798899D01*
X185635098Y-71798699D01*
X185635100Y-71798699D01*
X185744961Y-71794575D01*
X185860153Y-71790250D01*
X185875891Y-71786948D01*
X186062361Y-71747823D01*
X186085786Y-71742908D01*
X186090745Y-71740950D01*
X186090747Y-71740949D01*
X186295251Y-71660186D01*
X186295253Y-71660185D01*
X186300216Y-71658225D01*
X186327360Y-71641754D01*
X186492752Y-71541391D01*
X186492751Y-71541391D01*
X186497312Y-71538624D01*
X186541502Y-71500278D01*
X186667407Y-71391024D01*
X186667409Y-71391022D01*
X186671440Y-71387524D01*
X186715311Y-71334019D01*
X186814235Y-71213374D01*
X186814239Y-71213368D01*
X186817619Y-71209246D01*
X186835547Y-71177751D01*
X186886627Y-71128446D01*
X186956257Y-71114584D01*
X187022328Y-71140567D01*
X187049568Y-71169717D01*
X187131436Y-71291320D01*
X187290571Y-71458136D01*
X187475537Y-71595755D01*
X187480288Y-71598171D01*
X187480292Y-71598173D01*
X187543476Y-71630297D01*
X187681046Y-71700241D01*
X187686140Y-71701823D01*
X187686143Y-71701824D01*
X187829186Y-71746240D01*
X187901222Y-71768608D01*
X187906511Y-71769309D01*
X188124484Y-71798199D01*
X188124489Y-71798199D01*
X188129769Y-71798899D01*
X188135098Y-71798699D01*
X188135100Y-71798699D01*
X188244961Y-71794575D01*
X188360153Y-71790250D01*
X188375891Y-71786948D01*
X188562361Y-71747823D01*
X188585786Y-71742908D01*
X188590745Y-71740950D01*
X188590747Y-71740949D01*
X188795251Y-71660186D01*
X188795253Y-71660185D01*
X188800216Y-71658225D01*
X188827360Y-71641754D01*
X188992752Y-71541391D01*
X188992751Y-71541391D01*
X188997312Y-71538624D01*
X189041502Y-71500278D01*
X189167407Y-71391024D01*
X189167409Y-71391022D01*
X189171440Y-71387524D01*
X189215311Y-71334019D01*
X189314235Y-71213374D01*
X189314239Y-71213368D01*
X189317619Y-71209246D01*
X189335547Y-71177751D01*
X189386627Y-71128446D01*
X189456257Y-71114584D01*
X189522328Y-71140567D01*
X189549568Y-71169717D01*
X189631436Y-71291320D01*
X189790571Y-71458136D01*
X189975537Y-71595755D01*
X189980288Y-71598171D01*
X189980292Y-71598173D01*
X190043476Y-71630297D01*
X190181046Y-71700241D01*
X190186140Y-71701823D01*
X190186143Y-71701824D01*
X190329186Y-71746240D01*
X190401222Y-71768608D01*
X190406511Y-71769309D01*
X190624484Y-71798199D01*
X190624489Y-71798199D01*
X190629769Y-71798899D01*
X190635098Y-71798699D01*
X190635100Y-71798699D01*
X190744961Y-71794575D01*
X190860153Y-71790250D01*
X190875891Y-71786948D01*
X191062361Y-71747823D01*
X191085786Y-71742908D01*
X191090745Y-71740950D01*
X191090747Y-71740949D01*
X191295251Y-71660186D01*
X191295253Y-71660185D01*
X191300216Y-71658225D01*
X191327360Y-71641754D01*
X191492752Y-71541391D01*
X191492751Y-71541391D01*
X191497312Y-71538624D01*
X191541502Y-71500278D01*
X191667407Y-71391024D01*
X191667409Y-71391022D01*
X191671440Y-71387524D01*
X191715311Y-71334019D01*
X191814235Y-71213374D01*
X191814239Y-71213368D01*
X191817619Y-71209246D01*
X191826666Y-71193354D01*
X191929027Y-71013530D01*
X191931670Y-71008887D01*
X192010332Y-70792176D01*
X192014346Y-70769978D01*
X192050618Y-70569393D01*
X192050619Y-70569386D01*
X192051356Y-70565309D01*
X192052495Y-70541157D01*
X192052495Y-70129111D01*
X192037915Y-69957281D01*
X192036577Y-69952126D01*
X192036576Y-69952120D01*
X191981338Y-69739298D01*
X191981337Y-69739294D01*
X191979996Y-69734129D01*
X191885307Y-69523926D01*
X191756554Y-69332682D01*
X191752054Y-69327964D01*
X191668720Y-69240609D01*
X191597419Y-69165866D01*
X191412453Y-69028247D01*
X191407702Y-69025831D01*
X191407698Y-69025829D01*
X191285726Y-68963816D01*
X191206944Y-68923761D01*
X191201850Y-68922179D01*
X191201847Y-68922178D01*
X190991866Y-68856977D01*
X190986768Y-68855394D01*
X190981479Y-68854693D01*
X190763506Y-68825803D01*
X190763501Y-68825803D01*
X190758221Y-68825103D01*
X190752892Y-68825303D01*
X190752890Y-68825303D01*
X190643029Y-68829427D01*
X190527837Y-68833752D01*
X190522618Y-68834847D01*
X190500561Y-68839475D01*
X190302204Y-68881094D01*
X190297245Y-68883052D01*
X190297243Y-68883053D01*
X190198173Y-68922178D01*
X190090566Y-68964675D01*
X190090563Y-68964675D01*
X190087774Y-68965777D01*
X190087550Y-68965209D01*
X190021345Y-68976926D01*
X189955844Y-68949538D01*
X189915547Y-68891085D01*
X189913249Y-68820126D01*
X189946136Y-68762598D01*
X190218329Y-68490405D01*
X190280641Y-68456379D01*
X190307424Y-68453500D01*
X215312980Y-68453500D01*
X215324214Y-68454030D01*
X215331719Y-68455708D01*
X215400012Y-68453562D01*
X215403969Y-68453500D01*
X215431983Y-68453500D01*
X215435908Y-68453004D01*
X215435909Y-68453004D01*
X215436004Y-68452992D01*
X215447849Y-68452059D01*
X215477670Y-68451122D01*
X215484282Y-68450914D01*
X215484283Y-68450914D01*
X215492205Y-68450665D01*
X215511749Y-68444987D01*
X215531112Y-68440977D01*
X215543440Y-68439420D01*
X215543442Y-68439420D01*
X215551299Y-68438427D01*
X215558663Y-68435511D01*
X215558668Y-68435510D01*
X215592556Y-68422093D01*
X215603785Y-68418248D01*
X215621875Y-68412992D01*
X215646393Y-68405869D01*
X215653220Y-68401831D01*
X215653223Y-68401830D01*
X215663906Y-68395512D01*
X215681664Y-68386812D01*
X215693215Y-68382239D01*
X215693221Y-68382235D01*
X215700588Y-68379319D01*
X215736491Y-68353234D01*
X215746410Y-68346719D01*
X215777768Y-68328174D01*
X215777772Y-68328171D01*
X215784598Y-68324134D01*
X215798982Y-68309750D01*
X215814016Y-68296909D01*
X215824073Y-68289602D01*
X215830487Y-68284942D01*
X215858778Y-68250744D01*
X215866767Y-68241965D01*
X223151483Y-60957250D01*
X223159809Y-60949674D01*
X223166303Y-60945553D01*
X223213086Y-60895734D01*
X223215840Y-60892893D01*
X223235639Y-60873094D01*
X223238068Y-60869963D01*
X223238072Y-60869958D01*
X223238139Y-60869872D01*
X223245847Y-60860847D01*
X223270791Y-60834285D01*
X223270794Y-60834281D01*
X223276217Y-60828506D01*
X223280036Y-60821560D01*
X223280039Y-60821555D01*
X223286022Y-60810672D01*
X223296878Y-60794144D01*
X223304492Y-60784329D01*
X223304494Y-60784326D01*
X223309349Y-60778067D01*
X223312495Y-60770797D01*
X223312498Y-60770792D01*
X223326969Y-60737350D01*
X223332192Y-60726689D01*
X223349749Y-60694753D01*
X223349751Y-60694748D01*
X223353569Y-60687803D01*
X223355539Y-60680129D01*
X223355542Y-60680122D01*
X223358632Y-60668087D01*
X223365036Y-60649382D01*
X223369967Y-60637987D01*
X223373117Y-60630708D01*
X223380060Y-60586873D01*
X223382467Y-60575251D01*
X223393500Y-60532282D01*
X223393500Y-60511935D01*
X223395051Y-60492224D01*
X223396995Y-60479950D01*
X223398235Y-60472121D01*
X223394059Y-60427944D01*
X223393500Y-60416086D01*
X223393500Y-58227422D01*
X223413502Y-58159301D01*
X223430405Y-58138327D01*
X224508327Y-57060405D01*
X224570639Y-57026379D01*
X224597422Y-57023500D01*
X225028556Y-57023500D01*
X225096677Y-57043502D01*
X225143170Y-57097158D01*
X225153274Y-57167432D01*
X225123780Y-57232012D01*
X225117729Y-57238518D01*
X225034695Y-57321697D01*
X225030855Y-57327927D01*
X225030854Y-57327928D01*
X224978401Y-57413023D01*
X224941885Y-57472262D01*
X224886203Y-57640139D01*
X224885503Y-57646975D01*
X224885502Y-57646978D01*
X224881538Y-57685672D01*
X224875500Y-57744600D01*
X224875500Y-59095400D01*
X224875837Y-59098646D01*
X224875837Y-59098650D01*
X224877138Y-59111183D01*
X224886474Y-59201166D01*
X224888655Y-59207702D01*
X224888655Y-59207704D01*
X224913480Y-59282113D01*
X224942450Y-59368946D01*
X225035522Y-59519348D01*
X225160697Y-59644305D01*
X225166928Y-59648146D01*
X225166931Y-59648148D01*
X225210766Y-59675169D01*
X225258259Y-59727941D01*
X225269681Y-59798013D01*
X225241407Y-59863137D01*
X225233744Y-59871523D01*
X223634517Y-61470750D01*
X223626191Y-61478326D01*
X223619697Y-61482447D01*
X223614274Y-61488222D01*
X223572915Y-61532265D01*
X223570160Y-61535107D01*
X223550361Y-61554906D01*
X223547937Y-61558031D01*
X223547929Y-61558040D01*
X223547863Y-61558126D01*
X223540155Y-61567151D01*
X223509783Y-61599494D01*
X223505965Y-61606438D01*
X223505964Y-61606440D01*
X223499978Y-61617329D01*
X223489127Y-61633847D01*
X223476650Y-61649933D01*
X223459024Y-61690666D01*
X223453807Y-61701314D01*
X223432431Y-61740197D01*
X223430460Y-61747872D01*
X223430458Y-61747878D01*
X223427369Y-61759911D01*
X223420966Y-61778613D01*
X223412883Y-61797292D01*
X223411644Y-61805117D01*
X223405940Y-61841127D01*
X223403535Y-61852740D01*
X223392500Y-61895718D01*
X223392500Y-61916065D01*
X223390949Y-61935776D01*
X223387765Y-61955879D01*
X223388511Y-61963771D01*
X223391941Y-62000056D01*
X223392500Y-62011914D01*
X223392500Y-64690980D01*
X223391970Y-64702214D01*
X223390292Y-64709719D01*
X223390541Y-64717638D01*
X223392438Y-64778012D01*
X223392500Y-64781969D01*
X223392500Y-64809983D01*
X223392996Y-64813908D01*
X223392996Y-64813909D01*
X223393008Y-64814004D01*
X223393941Y-64825849D01*
X223395335Y-64870205D01*
X223397547Y-64877817D01*
X223401013Y-64889748D01*
X223405023Y-64909112D01*
X223406107Y-64917690D01*
X223407573Y-64929299D01*
X223410489Y-64936663D01*
X223410490Y-64936668D01*
X223423907Y-64970556D01*
X223427752Y-64981785D01*
X223440131Y-65024393D01*
X223444169Y-65031220D01*
X223444170Y-65031223D01*
X223450488Y-65041906D01*
X223459188Y-65059664D01*
X223463761Y-65071215D01*
X223463765Y-65071221D01*
X223466681Y-65078588D01*
X223471339Y-65084999D01*
X223471340Y-65085001D01*
X223492764Y-65114488D01*
X223499281Y-65124410D01*
X223517826Y-65155768D01*
X223517829Y-65155772D01*
X223521866Y-65162598D01*
X223536250Y-65176982D01*
X223549091Y-65192016D01*
X223561058Y-65208487D01*
X223567166Y-65213540D01*
X223595249Y-65236772D01*
X223604030Y-65244762D01*
X223764750Y-65405483D01*
X223772323Y-65413805D01*
X223776447Y-65420303D01*
X223826266Y-65467086D01*
X223829108Y-65469841D01*
X223848906Y-65489639D01*
X223852031Y-65492063D01*
X223852040Y-65492071D01*
X223852126Y-65492137D01*
X223861151Y-65499845D01*
X223893494Y-65530217D01*
X223900438Y-65534035D01*
X223900440Y-65534036D01*
X223911329Y-65540022D01*
X223927847Y-65550873D01*
X223943933Y-65563350D01*
X223952039Y-65566858D01*
X223952583Y-65567311D01*
X223958032Y-65570533D01*
X223957512Y-65571412D01*
X224006613Y-65612267D01*
X224028000Y-65682495D01*
X224028000Y-66548000D01*
X224377500Y-66548000D01*
X224445621Y-66568002D01*
X224492114Y-66621658D01*
X224503500Y-66674000D01*
X224503500Y-69129980D01*
X224502970Y-69141214D01*
X224501292Y-69148719D01*
X224501541Y-69156638D01*
X224503438Y-69217012D01*
X224503500Y-69220969D01*
X224503500Y-69248983D01*
X224503996Y-69252908D01*
X224503996Y-69252909D01*
X224504008Y-69253004D01*
X224504941Y-69264849D01*
X224506335Y-69309205D01*
X224508547Y-69316817D01*
X224512013Y-69328748D01*
X224516023Y-69348112D01*
X224518573Y-69368299D01*
X224521489Y-69375663D01*
X224521490Y-69375668D01*
X224534907Y-69409556D01*
X224538752Y-69420785D01*
X224541672Y-69430835D01*
X224551131Y-69463393D01*
X224555169Y-69470220D01*
X224555170Y-69470223D01*
X224561488Y-69480906D01*
X224570188Y-69498664D01*
X224574761Y-69510215D01*
X224574765Y-69510221D01*
X224577681Y-69517588D01*
X224586288Y-69529434D01*
X224597437Y-69544780D01*
X224621500Y-69618840D01*
X224621500Y-70057577D01*
X224601498Y-70125698D01*
X224584595Y-70146672D01*
X224105672Y-70625595D01*
X224043360Y-70659621D01*
X224016577Y-70662500D01*
X222473632Y-70662500D01*
X222405511Y-70642498D01*
X222359018Y-70588842D01*
X222355650Y-70580731D01*
X222344615Y-70551295D01*
X222257261Y-70434739D01*
X222140705Y-70347385D01*
X222004316Y-70296255D01*
X221942134Y-70289500D01*
X221086423Y-70289500D01*
X221018302Y-70269498D01*
X220997328Y-70252595D01*
X220201250Y-69456517D01*
X220193674Y-69448191D01*
X220189553Y-69441697D01*
X220139734Y-69394914D01*
X220136893Y-69392160D01*
X220117094Y-69372361D01*
X220113969Y-69369937D01*
X220113960Y-69369929D01*
X220113874Y-69369863D01*
X220104849Y-69362155D01*
X220086597Y-69345015D01*
X220072506Y-69331783D01*
X220054669Y-69321977D01*
X220038153Y-69311127D01*
X220022067Y-69298650D01*
X219981334Y-69281024D01*
X219970686Y-69275807D01*
X219939264Y-69258533D01*
X219931803Y-69254431D01*
X219924128Y-69252460D01*
X219924122Y-69252458D01*
X219912089Y-69249369D01*
X219893387Y-69242966D01*
X219874708Y-69234883D01*
X219840872Y-69229524D01*
X219830873Y-69227940D01*
X219819260Y-69225535D01*
X219776282Y-69214500D01*
X219755935Y-69214500D01*
X219736224Y-69212949D01*
X219723950Y-69211005D01*
X219716121Y-69209765D01*
X219708229Y-69210511D01*
X219671944Y-69213941D01*
X219660086Y-69214500D01*
X211895935Y-69214500D01*
X211876224Y-69212949D01*
X211863950Y-69211005D01*
X211856121Y-69209765D01*
X211848229Y-69210511D01*
X211811944Y-69213941D01*
X211800086Y-69214500D01*
X203259935Y-69214500D01*
X203240224Y-69212949D01*
X203227950Y-69211005D01*
X203220121Y-69209765D01*
X203212229Y-69210511D01*
X203175944Y-69213941D01*
X203164086Y-69214500D01*
X194946345Y-69214500D01*
X194872284Y-69190436D01*
X194749772Y-69101426D01*
X194749771Y-69101425D01*
X194744430Y-69097545D01*
X194738402Y-69094861D01*
X194738400Y-69094860D01*
X194584524Y-69026350D01*
X194584523Y-69026350D01*
X194578493Y-69023665D01*
X194489657Y-69004782D01*
X194407278Y-68987272D01*
X194407274Y-68987272D01*
X194400821Y-68985900D01*
X194219179Y-68985900D01*
X194212726Y-68987272D01*
X194212722Y-68987272D01*
X194130343Y-69004782D01*
X194041507Y-69023665D01*
X194035477Y-69026350D01*
X194035476Y-69026350D01*
X193881600Y-69094860D01*
X193881598Y-69094861D01*
X193875570Y-69097545D01*
X193870229Y-69101425D01*
X193870228Y-69101426D01*
X193765085Y-69177817D01*
X193728619Y-69204311D01*
X193724198Y-69209221D01*
X193724197Y-69209222D01*
X193613843Y-69331783D01*
X193607077Y-69339297D01*
X193574966Y-69394915D01*
X193520390Y-69489445D01*
X193516257Y-69496603D01*
X193460127Y-69669354D01*
X193459437Y-69675917D01*
X193459437Y-69675918D01*
X193453319Y-69734129D01*
X193441140Y-69850000D01*
X193460127Y-70030646D01*
X193516257Y-70203397D01*
X193607077Y-70360703D01*
X193611495Y-70365610D01*
X193611496Y-70365611D01*
X193724197Y-70490778D01*
X193728619Y-70495689D01*
X193733961Y-70499570D01*
X193733963Y-70499572D01*
X193856833Y-70588842D01*
X193875570Y-70602455D01*
X193881598Y-70605139D01*
X193881600Y-70605140D01*
X194010433Y-70662500D01*
X194041507Y-70676335D01*
X194128868Y-70694904D01*
X194212722Y-70712728D01*
X194212726Y-70712728D01*
X194219179Y-70714100D01*
X194400821Y-70714100D01*
X194407274Y-70712728D01*
X194407278Y-70712728D01*
X194491132Y-70694904D01*
X194578493Y-70676335D01*
X194609567Y-70662500D01*
X194738400Y-70605140D01*
X194738402Y-70605139D01*
X194744430Y-70602455D01*
X194763439Y-70588644D01*
X194872284Y-70509564D01*
X194946345Y-70485500D01*
X197868252Y-70485500D01*
X197936373Y-70505502D01*
X197982866Y-70559158D01*
X197992970Y-70629432D01*
X197986234Y-70655729D01*
X197977029Y-70680282D01*
X197977027Y-70680288D01*
X197974255Y-70687684D01*
X197967500Y-70749866D01*
X197967500Y-71846134D01*
X197974255Y-71908316D01*
X198025385Y-72044705D01*
X198112739Y-72161261D01*
X198229295Y-72248615D01*
X198365684Y-72299745D01*
X198427866Y-72306500D01*
X200024134Y-72306500D01*
X200086316Y-72299745D01*
X200222705Y-72248615D01*
X200339261Y-72161261D01*
X200426615Y-72044705D01*
X200437650Y-72015269D01*
X200480292Y-71958505D01*
X200546854Y-71933806D01*
X200555632Y-71933500D01*
X200776578Y-71933500D01*
X200844699Y-71953502D01*
X200865673Y-71970405D01*
X202186750Y-73291483D01*
X202194326Y-73299809D01*
X202198447Y-73306303D01*
X202204222Y-73311726D01*
X202248265Y-73353085D01*
X202251107Y-73355840D01*
X202270906Y-73375639D01*
X202274031Y-73378063D01*
X202274040Y-73378071D01*
X202274126Y-73378137D01*
X202283151Y-73385845D01*
X202315494Y-73416217D01*
X202322438Y-73420035D01*
X202322440Y-73420036D01*
X202333329Y-73426022D01*
X202349847Y-73436873D01*
X202365933Y-73449350D01*
X202406666Y-73466976D01*
X202417314Y-73472193D01*
X202456197Y-73493569D01*
X202463872Y-73495540D01*
X202463878Y-73495542D01*
X202475911Y-73498631D01*
X202494613Y-73505034D01*
X202513292Y-73513117D01*
X202547128Y-73518476D01*
X202557127Y-73520060D01*
X202568740Y-73522465D01*
X202611718Y-73533500D01*
X202632065Y-73533500D01*
X202651777Y-73535051D01*
X202671879Y-73538235D01*
X202679771Y-73537489D01*
X202716056Y-73534059D01*
X202727914Y-73533500D01*
X202836723Y-73533500D01*
X202904844Y-73553502D01*
X202951337Y-73607158D01*
X202961441Y-73677432D01*
X202937548Y-73735066D01*
X202930771Y-73744108D01*
X202930770Y-73744110D01*
X202925385Y-73751295D01*
X202874255Y-73887684D01*
X202867500Y-73949866D01*
X202867500Y-75046134D01*
X202874255Y-75108316D01*
X202925385Y-75244705D01*
X202954383Y-75283397D01*
X203012739Y-75361261D01*
X203010197Y-75363166D01*
X203036708Y-75411717D01*
X203031643Y-75482532D01*
X202989096Y-75539368D01*
X202922576Y-75564179D01*
X202913587Y-75564500D01*
X201243423Y-75564500D01*
X201175302Y-75544498D01*
X201154328Y-75527595D01*
X200521405Y-74894672D01*
X200487379Y-74832360D01*
X200484500Y-74805577D01*
X200484500Y-73949866D01*
X200477745Y-73887684D01*
X200426615Y-73751295D01*
X200339261Y-73634739D01*
X200222705Y-73547385D01*
X200086316Y-73496255D01*
X200024134Y-73489500D01*
X198427866Y-73489500D01*
X198365684Y-73496255D01*
X198229295Y-73547385D01*
X198112739Y-73634739D01*
X198025385Y-73751295D01*
X198022234Y-73759701D01*
X198014350Y-73780731D01*
X197971708Y-73837495D01*
X197905146Y-73862194D01*
X197896368Y-73862500D01*
X197361020Y-73862500D01*
X197349786Y-73861970D01*
X197342281Y-73860292D01*
X197274571Y-73862420D01*
X197273988Y-73862438D01*
X197270031Y-73862500D01*
X197242017Y-73862500D01*
X197238092Y-73862996D01*
X197238091Y-73862996D01*
X197237996Y-73863008D01*
X197226151Y-73863941D01*
X197196330Y-73864878D01*
X197189718Y-73865086D01*
X197189717Y-73865086D01*
X197181795Y-73865335D01*
X197162252Y-73871013D01*
X197142888Y-73875023D01*
X197130560Y-73876580D01*
X197130558Y-73876580D01*
X197122701Y-73877573D01*
X197115337Y-73880489D01*
X197115332Y-73880490D01*
X197081444Y-73893907D01*
X197070215Y-73897752D01*
X197056241Y-73901812D01*
X197027607Y-73910131D01*
X197020781Y-73914168D01*
X197010091Y-73920490D01*
X196992341Y-73929187D01*
X196973412Y-73936681D01*
X196966996Y-73941342D01*
X196966995Y-73941343D01*
X196937519Y-73962759D01*
X196927595Y-73969278D01*
X196896224Y-73987830D01*
X196896219Y-73987834D01*
X196889401Y-73991866D01*
X196875014Y-74006253D01*
X196859980Y-74019094D01*
X196852647Y-74024422D01*
X196843513Y-74031058D01*
X196841920Y-74032983D01*
X196780729Y-74063943D01*
X196770989Y-74065353D01*
X196765783Y-74065900D01*
X196759179Y-74065900D01*
X196581507Y-74103665D01*
X196575477Y-74106350D01*
X196575476Y-74106350D01*
X196421600Y-74174860D01*
X196421598Y-74174861D01*
X196415570Y-74177545D01*
X196410229Y-74181425D01*
X196410228Y-74181426D01*
X196330668Y-74239230D01*
X196268619Y-74284311D01*
X196147077Y-74419297D01*
X196143776Y-74425015D01*
X196060199Y-74569776D01*
X196056257Y-74576603D01*
X196000127Y-74749354D01*
X195981140Y-74930000D01*
X195981830Y-74936565D01*
X195992374Y-75036878D01*
X196000127Y-75110646D01*
X196002167Y-75116924D01*
X196002167Y-75116925D01*
X196026835Y-75192845D01*
X196056257Y-75283397D01*
X196147077Y-75440703D01*
X196151495Y-75445610D01*
X196151496Y-75445611D01*
X196200239Y-75499745D01*
X196268619Y-75575689D01*
X196273961Y-75579570D01*
X196273963Y-75579572D01*
X196410228Y-75678574D01*
X196415570Y-75682455D01*
X196421598Y-75685139D01*
X196421600Y-75685140D01*
X196575476Y-75753650D01*
X196581507Y-75756335D01*
X196670343Y-75775217D01*
X196752722Y-75792728D01*
X196752726Y-75792728D01*
X196759179Y-75794100D01*
X196940821Y-75794100D01*
X196947274Y-75792728D01*
X196947278Y-75792728D01*
X197029657Y-75775217D01*
X197118493Y-75756335D01*
X197124524Y-75753650D01*
X197278400Y-75685140D01*
X197278402Y-75685139D01*
X197284430Y-75682455D01*
X197289772Y-75678574D01*
X197426037Y-75579572D01*
X197426039Y-75579570D01*
X197431381Y-75575689D01*
X197499761Y-75499745D01*
X197548504Y-75445611D01*
X197548505Y-75445610D01*
X197552923Y-75440703D01*
X197643743Y-75283397D01*
X197664159Y-75220562D01*
X197704230Y-75161959D01*
X197769627Y-75134321D01*
X197783991Y-75133500D01*
X197896368Y-75133500D01*
X197964489Y-75153502D01*
X198010982Y-75207158D01*
X198014349Y-75215267D01*
X198025385Y-75244705D01*
X198112739Y-75361261D01*
X198229295Y-75448615D01*
X198365684Y-75499745D01*
X198427866Y-75506500D01*
X199283578Y-75506500D01*
X199351699Y-75526502D01*
X199372673Y-75543405D01*
X200422745Y-76593477D01*
X200430322Y-76601803D01*
X200434447Y-76608303D01*
X200440225Y-76613729D01*
X200440226Y-76613730D01*
X200484281Y-76655100D01*
X200487123Y-76657855D01*
X200506906Y-76677638D01*
X200510114Y-76680126D01*
X200519143Y-76687837D01*
X200551494Y-76718217D01*
X200558443Y-76722037D01*
X200569329Y-76728022D01*
X200585853Y-76738876D01*
X200601933Y-76751349D01*
X200609210Y-76754498D01*
X200642650Y-76768969D01*
X200653311Y-76774192D01*
X200685247Y-76791749D01*
X200685252Y-76791751D01*
X200692197Y-76795569D01*
X200699871Y-76797539D01*
X200699878Y-76797542D01*
X200711913Y-76800632D01*
X200730618Y-76807036D01*
X200742013Y-76811967D01*
X200749292Y-76815117D01*
X200764401Y-76817510D01*
X200793127Y-76822060D01*
X200804740Y-76824465D01*
X200847718Y-76835500D01*
X200868065Y-76835500D01*
X200887776Y-76837051D01*
X200900050Y-76838995D01*
X200907879Y-76840235D01*
X200915771Y-76839489D01*
X200952056Y-76836059D01*
X200963914Y-76835500D01*
X208208017Y-76835500D01*
X208231626Y-76837732D01*
X208231991Y-76837802D01*
X208231996Y-76837802D01*
X208239779Y-76839287D01*
X208296014Y-76835749D01*
X208303925Y-76835500D01*
X214462980Y-76835500D01*
X214474214Y-76836030D01*
X214481719Y-76837708D01*
X214550012Y-76835562D01*
X214553969Y-76835500D01*
X214581983Y-76835500D01*
X214585908Y-76835004D01*
X214585909Y-76835004D01*
X214586004Y-76834992D01*
X214597849Y-76834059D01*
X214627670Y-76833122D01*
X214634282Y-76832914D01*
X214634283Y-76832914D01*
X214642205Y-76832665D01*
X214661749Y-76826987D01*
X214681112Y-76822977D01*
X214693440Y-76821420D01*
X214693442Y-76821420D01*
X214701299Y-76820427D01*
X214708663Y-76817511D01*
X214708668Y-76817510D01*
X214742556Y-76804093D01*
X214753785Y-76800248D01*
X214770465Y-76795402D01*
X214796393Y-76787869D01*
X214803220Y-76783831D01*
X214803223Y-76783830D01*
X214813906Y-76777512D01*
X214831664Y-76768812D01*
X214843215Y-76764239D01*
X214843221Y-76764235D01*
X214850588Y-76761319D01*
X214859977Y-76754498D01*
X214886488Y-76735236D01*
X214896410Y-76728719D01*
X214927768Y-76710174D01*
X214927772Y-76710171D01*
X214934598Y-76706134D01*
X214948982Y-76691750D01*
X214964016Y-76678909D01*
X214974073Y-76671602D01*
X214980487Y-76666942D01*
X215008778Y-76632744D01*
X215016767Y-76623965D01*
X215798202Y-75842530D01*
X223200905Y-75842530D01*
X223201809Y-75864098D01*
X223215461Y-76189814D01*
X223215999Y-76193288D01*
X223252229Y-76427320D01*
X223268637Y-76533312D01*
X223359771Y-76868741D01*
X223487727Y-77191921D01*
X223650911Y-77498824D01*
X223652896Y-77501723D01*
X223845296Y-77782718D01*
X223845301Y-77782724D01*
X223847287Y-77785625D01*
X224074409Y-78048748D01*
X224329445Y-78284914D01*
X224332267Y-78286995D01*
X224332270Y-78286997D01*
X224400315Y-78337164D01*
X224609218Y-78491180D01*
X224612255Y-78492934D01*
X224612259Y-78492936D01*
X224728909Y-78560284D01*
X224910239Y-78664975D01*
X224932744Y-78674807D01*
X225225535Y-78802725D01*
X225225538Y-78802726D01*
X225228756Y-78804132D01*
X225232113Y-78805171D01*
X225232118Y-78805173D01*
X225557441Y-78905877D01*
X225560801Y-78906917D01*
X225564257Y-78907576D01*
X225564256Y-78907576D01*
X225898782Y-78971390D01*
X225898787Y-78971391D01*
X225902233Y-78972048D01*
X226092742Y-78986707D01*
X226245301Y-78998446D01*
X226245302Y-78998446D01*
X226248798Y-78998715D01*
X226466507Y-78991112D01*
X226592660Y-78986707D01*
X226592664Y-78986707D01*
X226596175Y-78986584D01*
X226599656Y-78986070D01*
X226936544Y-78936324D01*
X226936550Y-78936323D01*
X226940036Y-78935808D01*
X226943440Y-78934909D01*
X226943443Y-78934908D01*
X227272685Y-78847918D01*
X227272694Y-78847915D01*
X227276093Y-78847017D01*
X227471537Y-78771210D01*
X227596878Y-78722594D01*
X227596884Y-78722591D01*
X227600159Y-78721321D01*
X227603266Y-78719697D01*
X227603272Y-78719694D01*
X227905085Y-78561909D01*
X227905087Y-78561908D01*
X227908193Y-78560284D01*
X227911105Y-78558320D01*
X228193443Y-78367882D01*
X228193453Y-78367875D01*
X228196358Y-78365915D01*
X228248822Y-78321265D01*
X228458387Y-78142910D01*
X228458388Y-78142909D01*
X228461060Y-78140635D01*
X228616946Y-77974634D01*
X228696590Y-77889822D01*
X228696594Y-77889817D01*
X228699001Y-77887254D01*
X228701106Y-77884440D01*
X228701112Y-77884433D01*
X228905106Y-77611747D01*
X228907215Y-77608928D01*
X228973633Y-77495722D01*
X229081325Y-77312166D01*
X229081328Y-77312161D01*
X229083107Y-77309128D01*
X229224484Y-76991589D01*
X229329585Y-76660271D01*
X229397099Y-76319301D01*
X229426184Y-75972931D01*
X229426787Y-75929801D01*
X229427368Y-75888177D01*
X229427368Y-75888165D01*
X229427398Y-75886000D01*
X229426174Y-75864098D01*
X229408191Y-75542462D01*
X229407995Y-75538953D01*
X229401508Y-75500598D01*
X229350615Y-75199700D01*
X229350614Y-75199695D01*
X229350028Y-75196231D01*
X229254220Y-74862107D01*
X229207747Y-74749354D01*
X229123102Y-74543990D01*
X229123098Y-74543982D01*
X229121764Y-74540745D01*
X229100285Y-74501674D01*
X229014951Y-74346453D01*
X228954311Y-74236150D01*
X228753950Y-73952120D01*
X228523176Y-73692193D01*
X228264867Y-73459611D01*
X228262017Y-73457570D01*
X228262010Y-73457565D01*
X227985096Y-73259314D01*
X227985093Y-73259312D01*
X227982242Y-73257271D01*
X227678824Y-73087696D01*
X227358394Y-72953000D01*
X227355025Y-72952009D01*
X227355021Y-72952007D01*
X227208057Y-72908753D01*
X227024947Y-72854861D01*
X226682639Y-72794503D01*
X226679130Y-72794282D01*
X226679128Y-72794282D01*
X226339253Y-72772899D01*
X226339247Y-72772899D01*
X226335735Y-72772678D01*
X226238057Y-72777455D01*
X225992068Y-72789486D01*
X225992060Y-72789487D01*
X225988561Y-72789658D01*
X225985093Y-72790220D01*
X225985090Y-72790220D01*
X225648918Y-72844667D01*
X225648915Y-72844668D01*
X225645443Y-72845230D01*
X225642056Y-72846176D01*
X225642050Y-72846177D01*
X225368704Y-72922497D01*
X225310659Y-72938704D01*
X225271902Y-72954363D01*
X224991644Y-73067594D01*
X224991640Y-73067596D01*
X224988380Y-73068913D01*
X224985293Y-73070582D01*
X224985289Y-73070584D01*
X224950462Y-73089415D01*
X224682623Y-73234235D01*
X224397201Y-73432609D01*
X224394559Y-73434922D01*
X224394555Y-73434925D01*
X224259941Y-73552771D01*
X224135670Y-73661562D01*
X224133295Y-73664163D01*
X223935761Y-73880490D01*
X223901289Y-73918241D01*
X223696982Y-74199447D01*
X223525293Y-74501674D01*
X223495631Y-74570880D01*
X223404343Y-74783872D01*
X223388363Y-74821155D01*
X223360127Y-74914678D01*
X223293006Y-75136995D01*
X223287899Y-75153909D01*
X223271235Y-75244705D01*
X223236312Y-75434985D01*
X223225152Y-75495788D01*
X223224906Y-75499304D01*
X223224906Y-75499305D01*
X223204388Y-75792728D01*
X223200905Y-75842530D01*
X215798202Y-75842530D01*
X216097327Y-75543405D01*
X216159639Y-75509379D01*
X216186422Y-75506500D01*
X217042134Y-75506500D01*
X217104316Y-75499745D01*
X217240705Y-75448615D01*
X217357261Y-75361261D01*
X217444615Y-75244705D01*
X217495745Y-75108316D01*
X217502500Y-75046134D01*
X217502500Y-73949866D01*
X217495745Y-73887684D01*
X217444615Y-73751295D01*
X217439230Y-73744110D01*
X217439229Y-73744108D01*
X217432452Y-73735066D01*
X217407603Y-73668560D01*
X217422655Y-73599177D01*
X217472829Y-73548947D01*
X217533277Y-73533500D01*
X219394578Y-73533500D01*
X219462699Y-73553502D01*
X219483673Y-73570405D01*
X219848595Y-73935327D01*
X219882621Y-73997639D01*
X219885500Y-74024422D01*
X219885500Y-75046134D01*
X219892255Y-75108316D01*
X219943385Y-75244705D01*
X220030739Y-75361261D01*
X220147295Y-75448615D01*
X220283684Y-75499745D01*
X220345866Y-75506500D01*
X221942134Y-75506500D01*
X222004316Y-75499745D01*
X222140705Y-75448615D01*
X222257261Y-75361261D01*
X222344615Y-75244705D01*
X222395745Y-75108316D01*
X222402500Y-75046134D01*
X222402500Y-73949866D01*
X222395745Y-73887684D01*
X222344615Y-73751295D01*
X222257261Y-73634739D01*
X222140705Y-73547385D01*
X222004316Y-73496255D01*
X221942134Y-73489500D01*
X221252423Y-73489500D01*
X221184302Y-73469498D01*
X221163328Y-73452595D01*
X220230181Y-72519448D01*
X220196155Y-72457136D01*
X220201220Y-72386321D01*
X220243767Y-72329485D01*
X220310287Y-72304674D01*
X220332881Y-72305090D01*
X220342462Y-72306131D01*
X220342476Y-72306132D01*
X220345866Y-72306500D01*
X221942134Y-72306500D01*
X222004316Y-72299745D01*
X222140705Y-72248615D01*
X222257261Y-72161261D01*
X222344615Y-72044705D01*
X222355650Y-72015269D01*
X222398292Y-71958505D01*
X222464854Y-71933806D01*
X222473632Y-71933500D01*
X224252980Y-71933500D01*
X224264214Y-71934030D01*
X224271719Y-71935708D01*
X224340012Y-71933562D01*
X224343969Y-71933500D01*
X224371983Y-71933500D01*
X224375908Y-71933004D01*
X224375909Y-71933004D01*
X224376004Y-71932992D01*
X224387849Y-71932059D01*
X224417670Y-71931122D01*
X224424282Y-71930914D01*
X224424283Y-71930914D01*
X224432205Y-71930665D01*
X224451749Y-71924987D01*
X224471112Y-71920977D01*
X224483440Y-71919420D01*
X224483442Y-71919420D01*
X224491299Y-71918427D01*
X224498663Y-71915511D01*
X224498668Y-71915510D01*
X224532556Y-71902093D01*
X224543785Y-71898248D01*
X224560465Y-71893402D01*
X224586393Y-71885869D01*
X224593220Y-71881831D01*
X224593223Y-71881830D01*
X224603906Y-71875512D01*
X224621664Y-71866812D01*
X224633215Y-71862239D01*
X224633221Y-71862235D01*
X224640588Y-71859319D01*
X224654051Y-71849538D01*
X224673848Y-71835154D01*
X224676491Y-71833234D01*
X224686410Y-71826719D01*
X224717768Y-71808174D01*
X224717772Y-71808171D01*
X224724598Y-71804134D01*
X224738982Y-71789750D01*
X224754016Y-71776909D01*
X224764073Y-71769602D01*
X224770487Y-71764942D01*
X224798778Y-71730744D01*
X224806767Y-71721965D01*
X225258327Y-71270405D01*
X225320639Y-71236379D01*
X225347422Y-71233500D01*
X226230400Y-71233500D01*
X226233646Y-71233163D01*
X226233650Y-71233163D01*
X226329308Y-71223238D01*
X226329312Y-71223237D01*
X226336166Y-71222526D01*
X226342702Y-71220345D01*
X226342704Y-71220345D01*
X226494453Y-71169717D01*
X226503946Y-71166550D01*
X226654348Y-71073478D01*
X226779305Y-70948303D01*
X226811708Y-70895736D01*
X226868275Y-70803968D01*
X226868276Y-70803966D01*
X226872115Y-70797738D01*
X226908618Y-70687684D01*
X226925632Y-70636389D01*
X226925632Y-70636387D01*
X226927797Y-70629861D01*
X226929280Y-70615392D01*
X226932909Y-70579969D01*
X226938500Y-70525400D01*
X226938500Y-69174600D01*
X226937264Y-69162683D01*
X226928238Y-69075692D01*
X226928237Y-69075688D01*
X226927526Y-69068834D01*
X226913179Y-69025829D01*
X226873868Y-68908002D01*
X226871550Y-68901054D01*
X226778478Y-68750652D01*
X226653303Y-68625695D01*
X226614456Y-68601749D01*
X226508968Y-68536725D01*
X226508966Y-68536724D01*
X226502738Y-68532885D01*
X226415501Y-68503950D01*
X226341389Y-68479368D01*
X226341387Y-68479368D01*
X226334861Y-68477203D01*
X226328025Y-68476503D01*
X226328022Y-68476502D01*
X226284969Y-68472091D01*
X226230400Y-68466500D01*
X225900500Y-68466500D01*
X225832379Y-68446498D01*
X225785886Y-68392842D01*
X225774500Y-68340500D01*
X225774500Y-66674000D01*
X225794502Y-66605879D01*
X225848158Y-66559386D01*
X225900500Y-66548000D01*
X226093899Y-66548000D01*
X226162020Y-66568002D01*
X226208513Y-66621658D01*
X226219209Y-66687171D01*
X226207140Y-66802000D01*
X226226127Y-66982646D01*
X226282257Y-67155397D01*
X226373077Y-67312703D01*
X226377495Y-67317610D01*
X226377496Y-67317611D01*
X226446309Y-67394035D01*
X226494619Y-67447689D01*
X226641570Y-67554455D01*
X226647598Y-67557139D01*
X226647600Y-67557140D01*
X226801476Y-67625650D01*
X226807507Y-67628335D01*
X226896343Y-67647217D01*
X226978722Y-67664728D01*
X226978726Y-67664728D01*
X226985179Y-67666100D01*
X226991781Y-67666100D01*
X226998348Y-67666790D01*
X226998144Y-67668733D01*
X227057299Y-67686102D01*
X227078273Y-67703005D01*
X227914705Y-68539437D01*
X227948731Y-68601749D01*
X227943666Y-68672564D01*
X227914782Y-68717550D01*
X227885870Y-68746512D01*
X227885866Y-68746517D01*
X227880695Y-68751697D01*
X227876855Y-68757927D01*
X227876854Y-68757928D01*
X227792432Y-68894886D01*
X227787885Y-68902262D01*
X227732203Y-69070139D01*
X227731503Y-69076975D01*
X227731502Y-69076978D01*
X227730283Y-69088875D01*
X227721500Y-69174600D01*
X227721500Y-70525400D01*
X227721837Y-70528646D01*
X227721837Y-70528650D01*
X227731476Y-70621545D01*
X227732474Y-70631166D01*
X227734655Y-70637702D01*
X227734655Y-70637704D01*
X227769952Y-70743502D01*
X227788450Y-70798946D01*
X227881522Y-70949348D01*
X228006697Y-71074305D01*
X228012927Y-71078145D01*
X228012928Y-71078146D01*
X228150090Y-71162694D01*
X228157262Y-71167115D01*
X228215905Y-71186566D01*
X228318611Y-71220632D01*
X228318613Y-71220632D01*
X228325139Y-71222797D01*
X228331975Y-71223497D01*
X228331978Y-71223498D01*
X228375031Y-71227909D01*
X228429600Y-71233500D01*
X229330400Y-71233500D01*
X229333646Y-71233163D01*
X229333650Y-71233163D01*
X229429308Y-71223238D01*
X229429312Y-71223237D01*
X229436166Y-71222526D01*
X229442702Y-71220345D01*
X229442704Y-71220345D01*
X229594453Y-71169717D01*
X229603946Y-71166550D01*
X229754348Y-71073478D01*
X229879305Y-70948303D01*
X229911708Y-70895736D01*
X229968275Y-70803968D01*
X229968276Y-70803966D01*
X229972115Y-70797738D01*
X230008618Y-70687684D01*
X230025632Y-70636389D01*
X230025632Y-70636387D01*
X230027797Y-70629861D01*
X230029280Y-70615392D01*
X230032909Y-70579969D01*
X230038500Y-70525400D01*
X230038500Y-69174600D01*
X230037264Y-69162683D01*
X230028238Y-69075692D01*
X230028237Y-69075688D01*
X230027526Y-69068834D01*
X230013179Y-69025829D01*
X229973868Y-68908002D01*
X229971550Y-68901054D01*
X229878478Y-68750652D01*
X229753303Y-68625695D01*
X229714456Y-68601749D01*
X229608968Y-68536725D01*
X229608966Y-68536724D01*
X229602738Y-68532885D01*
X229595791Y-68530581D01*
X229589156Y-68527487D01*
X229590456Y-68524699D01*
X229543487Y-68492171D01*
X229516238Y-68426612D01*
X229515500Y-68412992D01*
X229515500Y-65383020D01*
X229516029Y-65371791D01*
X229517708Y-65364281D01*
X229515562Y-65296001D01*
X229515500Y-65292044D01*
X229515500Y-65264017D01*
X229514989Y-65259971D01*
X229514057Y-65248136D01*
X229512913Y-65211722D01*
X229512664Y-65203795D01*
X229506987Y-65184254D01*
X229502978Y-65164894D01*
X229501421Y-65152566D01*
X229501420Y-65152563D01*
X229500427Y-65144701D01*
X229497510Y-65137335D01*
X229497509Y-65137329D01*
X229484091Y-65103439D01*
X229480246Y-65092210D01*
X229478152Y-65085001D01*
X229467869Y-65049607D01*
X229467487Y-65048960D01*
X229459179Y-64981669D01*
X229489956Y-64917690D01*
X229550437Y-64880507D01*
X229583514Y-64876088D01*
X229702833Y-64876088D01*
X229709286Y-64874716D01*
X229709290Y-64874716D01*
X229791669Y-64857206D01*
X229880505Y-64838323D01*
X229886536Y-64835638D01*
X230040412Y-64767128D01*
X230040414Y-64767127D01*
X230046442Y-64764443D01*
X230110864Y-64717638D01*
X230188049Y-64661560D01*
X230188051Y-64661558D01*
X230193393Y-64657677D01*
X230314935Y-64522691D01*
X230405755Y-64365385D01*
X230461885Y-64192634D01*
X230480872Y-64011988D01*
X230461885Y-63831342D01*
X230405755Y-63658591D01*
X230314935Y-63501285D01*
X230193393Y-63366299D01*
X230066944Y-63274428D01*
X230051784Y-63263414D01*
X230051783Y-63263413D01*
X230046442Y-63259533D01*
X230040414Y-63256849D01*
X230040412Y-63256848D01*
X229886536Y-63188338D01*
X229886535Y-63188338D01*
X229880505Y-63185653D01*
X229867616Y-63182913D01*
X229805142Y-63149188D01*
X229770818Y-63087039D01*
X229769005Y-63048208D01*
X229769500Y-63046282D01*
X229769500Y-63025934D01*
X229771051Y-63006223D01*
X229772995Y-62993949D01*
X229774235Y-62986120D01*
X229770059Y-62941944D01*
X229769500Y-62930086D01*
X229769500Y-59856849D01*
X229789502Y-59788728D01*
X229843158Y-59742235D01*
X229847261Y-59740618D01*
X229850993Y-59738870D01*
X229857946Y-59736550D01*
X230008348Y-59643478D01*
X230133305Y-59518303D01*
X230150763Y-59489981D01*
X230222275Y-59373968D01*
X230222276Y-59373966D01*
X230226115Y-59367738D01*
X230281797Y-59199861D01*
X230292500Y-59095400D01*
X230292500Y-57744600D01*
X230292139Y-57741117D01*
X230282238Y-57645692D01*
X230282237Y-57645688D01*
X230281526Y-57638834D01*
X230279284Y-57632112D01*
X230227868Y-57478002D01*
X230225550Y-57471054D01*
X230132478Y-57320652D01*
X230007303Y-57195695D01*
X230001072Y-57191854D01*
X229862968Y-57106725D01*
X229862966Y-57106724D01*
X229856738Y-57102885D01*
X229801182Y-57084458D01*
X229695390Y-57049368D01*
X229695385Y-57049367D01*
X229688861Y-57047203D01*
X229682022Y-57046502D01*
X229680472Y-57046170D01*
X229618058Y-57012331D01*
X229606928Y-56999339D01*
X229605602Y-56997927D01*
X229600942Y-56991513D01*
X229566750Y-56963227D01*
X229557971Y-56955238D01*
X228597250Y-55994517D01*
X228589674Y-55986191D01*
X228585553Y-55979697D01*
X228535734Y-55932914D01*
X228532893Y-55930160D01*
X228513094Y-55910361D01*
X228509969Y-55907937D01*
X228509960Y-55907929D01*
X228509874Y-55907863D01*
X228500849Y-55900155D01*
X228474285Y-55875210D01*
X228468506Y-55869783D01*
X228450669Y-55859977D01*
X228434153Y-55849127D01*
X228418067Y-55836650D01*
X228377334Y-55819024D01*
X228366686Y-55813807D01*
X228337791Y-55797922D01*
X228327803Y-55792431D01*
X228320128Y-55790460D01*
X228320122Y-55790458D01*
X228308089Y-55787369D01*
X228289387Y-55780966D01*
X228270708Y-55772883D01*
X228230913Y-55766580D01*
X228226873Y-55765940D01*
X228215260Y-55763535D01*
X228172282Y-55752500D01*
X228151935Y-55752500D01*
X228132224Y-55750949D01*
X228119950Y-55749005D01*
X228112121Y-55747765D01*
X228104229Y-55748511D01*
X228067944Y-55751941D01*
X228056086Y-55752500D01*
X224361020Y-55752500D01*
X224349791Y-55751971D01*
X224342281Y-55750292D01*
X224334355Y-55750541D01*
X224334354Y-55750541D01*
X224274002Y-55752438D01*
X224270044Y-55752500D01*
X224242017Y-55752500D01*
X224237971Y-55753011D01*
X224226143Y-55753942D01*
X224181795Y-55755336D01*
X224174178Y-55757549D01*
X224162253Y-55761013D01*
X224142894Y-55765022D01*
X224141633Y-55765181D01*
X224122701Y-55767573D01*
X224115337Y-55770489D01*
X224115332Y-55770490D01*
X224093421Y-55779166D01*
X224081428Y-55783914D01*
X224070224Y-55787751D01*
X224027607Y-55800132D01*
X224010094Y-55810489D01*
X223992343Y-55819185D01*
X223980785Y-55823761D01*
X223980780Y-55823764D01*
X223973412Y-55826681D01*
X223966997Y-55831342D01*
X223937507Y-55852767D01*
X223927585Y-55859284D01*
X223896228Y-55877828D01*
X223896225Y-55877830D01*
X223889401Y-55881866D01*
X223875014Y-55896253D01*
X223859980Y-55909094D01*
X223843513Y-55921058D01*
X223823540Y-55945202D01*
X223815228Y-55955249D01*
X223807238Y-55964029D01*
X222364517Y-57406750D01*
X222356191Y-57414326D01*
X222349697Y-57418447D01*
X222344274Y-57424222D01*
X222302915Y-57468265D01*
X222300160Y-57471107D01*
X222280361Y-57490906D01*
X222277937Y-57494031D01*
X222277929Y-57494040D01*
X222277863Y-57494126D01*
X222270155Y-57503151D01*
X222239783Y-57535494D01*
X222230621Y-57552160D01*
X222229978Y-57553329D01*
X222219127Y-57569847D01*
X222206650Y-57585933D01*
X222189024Y-57626666D01*
X222183807Y-57637314D01*
X222182254Y-57640139D01*
X222162431Y-57676197D01*
X222160460Y-57683872D01*
X222160458Y-57683878D01*
X222157369Y-57695911D01*
X222150966Y-57714613D01*
X222142883Y-57733292D01*
X222140575Y-57747866D01*
X222135940Y-57777127D01*
X222133535Y-57788740D01*
X222122500Y-57831718D01*
X222122500Y-57852065D01*
X222120949Y-57871776D01*
X222117765Y-57891879D01*
X222118511Y-57899771D01*
X222121941Y-57936056D01*
X222122500Y-57947914D01*
X222122500Y-60136578D01*
X222102498Y-60204699D01*
X222085595Y-60225673D01*
X215165672Y-67145595D01*
X215103360Y-67179621D01*
X215076577Y-67182500D01*
X190071032Y-67182500D01*
X190059793Y-67181970D01*
X190052281Y-67180291D01*
X190044356Y-67180540D01*
X190044355Y-67180540D01*
X189983970Y-67182438D01*
X189980012Y-67182500D01*
X189952017Y-67182500D01*
X189948083Y-67182997D01*
X189948081Y-67182997D01*
X189947994Y-67183008D01*
X189936160Y-67183940D01*
X189891795Y-67185335D01*
X189884182Y-67187547D01*
X189884181Y-67187547D01*
X189872252Y-67191013D01*
X189852888Y-67195023D01*
X189840560Y-67196580D01*
X189840558Y-67196580D01*
X189832701Y-67197573D01*
X189825337Y-67200489D01*
X189825332Y-67200490D01*
X189791444Y-67213907D01*
X189780215Y-67217752D01*
X189763535Y-67222598D01*
X189737607Y-67230131D01*
X189730780Y-67234169D01*
X189730777Y-67234170D01*
X189720094Y-67240488D01*
X189702336Y-67249188D01*
X189690785Y-67253761D01*
X189690779Y-67253765D01*
X189683412Y-67256681D01*
X189677001Y-67261339D01*
X189676999Y-67261340D01*
X189647512Y-67282764D01*
X189637590Y-67289281D01*
X189606232Y-67307826D01*
X189606228Y-67307829D01*
X189599402Y-67311866D01*
X189585018Y-67326250D01*
X189569984Y-67339091D01*
X189553513Y-67351058D01*
X189548460Y-67357166D01*
X189525223Y-67385255D01*
X189517233Y-67394035D01*
X188114414Y-68796853D01*
X188052102Y-68830879D01*
X188038426Y-68832609D01*
X188038462Y-68832902D01*
X188033168Y-68833552D01*
X188027837Y-68833752D01*
X188022620Y-68834847D01*
X188022617Y-68834847D01*
X187917146Y-68856977D01*
X187802204Y-68881094D01*
X187797245Y-68883052D01*
X187797243Y-68883053D01*
X187592739Y-68963816D01*
X187592737Y-68963817D01*
X187587774Y-68965777D01*
X187583215Y-68968544D01*
X187583212Y-68968545D01*
X187480186Y-69031063D01*
X187390678Y-69085378D01*
X187386648Y-69088875D01*
X187227459Y-69227012D01*
X187216550Y-69236478D01*
X187188072Y-69271210D01*
X187073755Y-69410628D01*
X187073751Y-69410634D01*
X187070371Y-69414756D01*
X187052443Y-69446251D01*
X187001363Y-69495556D01*
X186931733Y-69509418D01*
X186865662Y-69483435D01*
X186838422Y-69454285D01*
X186814930Y-69419391D01*
X186756554Y-69332682D01*
X186752054Y-69327964D01*
X186668720Y-69240609D01*
X186597419Y-69165866D01*
X186412453Y-69028247D01*
X186407702Y-69025831D01*
X186407698Y-69025829D01*
X186285726Y-68963816D01*
X186206944Y-68923761D01*
X186201850Y-68922179D01*
X186201847Y-68922178D01*
X185991866Y-68856977D01*
X185986768Y-68855394D01*
X185981479Y-68854693D01*
X185763506Y-68825803D01*
X185763501Y-68825803D01*
X185758221Y-68825103D01*
X185752892Y-68825303D01*
X185752890Y-68825303D01*
X185643029Y-68829427D01*
X185527837Y-68833752D01*
X185522618Y-68834847D01*
X185500561Y-68839475D01*
X185302204Y-68881094D01*
X185297245Y-68883052D01*
X185297243Y-68883053D01*
X185092739Y-68963816D01*
X185092737Y-68963817D01*
X185087774Y-68965777D01*
X185083215Y-68968544D01*
X185083212Y-68968545D01*
X184980186Y-69031063D01*
X184890678Y-69085378D01*
X184886648Y-69088875D01*
X184727459Y-69227012D01*
X184716550Y-69236478D01*
X184687325Y-69272121D01*
X184628666Y-69312115D01*
X184557696Y-69314047D01*
X184496947Y-69277303D01*
X184482747Y-69258533D01*
X184396327Y-69118881D01*
X184392473Y-69112653D01*
X184267298Y-68987696D01*
X184249826Y-68976926D01*
X184122963Y-68898726D01*
X184122961Y-68898725D01*
X184116733Y-68894886D01*
X184036990Y-68868437D01*
X183955384Y-68841369D01*
X183955382Y-68841369D01*
X183948856Y-68839204D01*
X183942020Y-68838504D01*
X183942017Y-68838503D01*
X183898964Y-68834092D01*
X183844395Y-68828501D01*
X182543595Y-68828501D01*
X182540349Y-68828838D01*
X182540345Y-68828838D01*
X182444687Y-68838763D01*
X182444683Y-68838764D01*
X182437829Y-68839475D01*
X182431293Y-68841656D01*
X182431291Y-68841656D01*
X182317935Y-68879475D01*
X182270049Y-68895451D01*
X182119647Y-68988523D01*
X181994690Y-69113698D01*
X181990850Y-69119928D01*
X181990849Y-69119929D01*
X181907941Y-69254431D01*
X181901880Y-69264263D01*
X181884449Y-69316817D01*
X181850427Y-69419391D01*
X181846198Y-69432140D01*
X181835495Y-69536601D01*
X181835495Y-71087401D01*
X177549166Y-71087401D01*
X177565032Y-71059529D01*
X177567675Y-71054886D01*
X177646337Y-70838175D01*
X177649051Y-70823167D01*
X177686623Y-70615392D01*
X177686624Y-70615385D01*
X177687361Y-70611308D01*
X177688197Y-70593586D01*
X177688430Y-70588644D01*
X177688430Y-70588637D01*
X177688500Y-70587156D01*
X177688500Y-70175110D01*
X177673920Y-70003280D01*
X177672582Y-69998125D01*
X177672581Y-69998119D01*
X177617343Y-69785297D01*
X177617342Y-69785293D01*
X177616001Y-69780128D01*
X177521312Y-69569925D01*
X177392559Y-69378681D01*
X177354989Y-69339297D01*
X177294422Y-69275807D01*
X177233424Y-69211865D01*
X177204623Y-69190436D01*
X177052740Y-69077432D01*
X177052741Y-69077432D01*
X177048458Y-69074246D01*
X177043707Y-69071830D01*
X177043703Y-69071828D01*
X176879853Y-68988523D01*
X176842949Y-68969760D01*
X176837855Y-68968178D01*
X176837852Y-68968177D01*
X176627871Y-68902976D01*
X176622773Y-68901393D01*
X176607034Y-68899307D01*
X176399511Y-68871802D01*
X176399506Y-68871802D01*
X176394226Y-68871102D01*
X176388897Y-68871302D01*
X176388895Y-68871302D01*
X176290368Y-68875001D01*
X176163842Y-68879751D01*
X176158623Y-68880846D01*
X176138849Y-68884995D01*
X175938209Y-68927093D01*
X175933250Y-68929051D01*
X175933248Y-68929052D01*
X175728744Y-69009815D01*
X175728742Y-69009816D01*
X175723779Y-69011776D01*
X175719220Y-69014543D01*
X175719217Y-69014544D01*
X175615581Y-69077432D01*
X175526683Y-69131377D01*
X175522653Y-69134874D01*
X175356946Y-69278667D01*
X175352555Y-69282477D01*
X175349168Y-69286608D01*
X175209760Y-69456627D01*
X175209756Y-69456633D01*
X175206376Y-69460755D01*
X175188448Y-69492250D01*
X175137368Y-69541555D01*
X175067738Y-69555417D01*
X175001667Y-69529434D01*
X174974427Y-69500284D01*
X174947814Y-69460755D01*
X174892559Y-69378681D01*
X174854989Y-69339297D01*
X174794422Y-69275807D01*
X174733424Y-69211865D01*
X174704623Y-69190436D01*
X174552740Y-69077432D01*
X174552741Y-69077432D01*
X174548458Y-69074246D01*
X174543707Y-69071830D01*
X174543703Y-69071828D01*
X174379853Y-68988523D01*
X174342949Y-68969760D01*
X174337855Y-68968178D01*
X174337852Y-68968177D01*
X174127871Y-68902976D01*
X174122773Y-68901393D01*
X174107034Y-68899307D01*
X173899511Y-68871802D01*
X173899506Y-68871802D01*
X173894226Y-68871102D01*
X173888897Y-68871302D01*
X173888895Y-68871302D01*
X173790368Y-68875001D01*
X173663842Y-68879751D01*
X173658623Y-68880846D01*
X173638849Y-68884995D01*
X173438209Y-68927093D01*
X173433250Y-68929051D01*
X173433248Y-68929052D01*
X173228744Y-69009815D01*
X173228742Y-69009816D01*
X173223779Y-69011776D01*
X173219220Y-69014543D01*
X173219217Y-69014544D01*
X173115581Y-69077432D01*
X173026683Y-69131377D01*
X173022653Y-69134874D01*
X172856946Y-69278667D01*
X172852555Y-69282477D01*
X172849168Y-69286608D01*
X172709760Y-69456627D01*
X172709756Y-69456633D01*
X172706376Y-69460755D01*
X172688448Y-69492250D01*
X172637368Y-69541555D01*
X172567738Y-69555417D01*
X172501667Y-69529434D01*
X172474427Y-69500284D01*
X172447814Y-69460755D01*
X172392559Y-69378681D01*
X172354989Y-69339297D01*
X172294422Y-69275807D01*
X172233424Y-69211865D01*
X172204623Y-69190436D01*
X172052740Y-69077432D01*
X172052741Y-69077432D01*
X172048458Y-69074246D01*
X172043707Y-69071830D01*
X172043703Y-69071828D01*
X171879853Y-68988523D01*
X171842949Y-68969760D01*
X171837855Y-68968178D01*
X171837852Y-68968177D01*
X171627871Y-68902976D01*
X171622773Y-68901393D01*
X171607034Y-68899307D01*
X171399511Y-68871802D01*
X171399506Y-68871802D01*
X171394226Y-68871102D01*
X171388897Y-68871302D01*
X171388895Y-68871302D01*
X171290368Y-68875001D01*
X171163842Y-68879751D01*
X171158623Y-68880846D01*
X171138849Y-68884995D01*
X170938209Y-68927093D01*
X170933250Y-68929051D01*
X170933248Y-68929052D01*
X170728744Y-69009815D01*
X170728742Y-69009816D01*
X170723779Y-69011776D01*
X170719220Y-69014543D01*
X170719217Y-69014544D01*
X170615581Y-69077432D01*
X170526683Y-69131377D01*
X170522653Y-69134874D01*
X170356946Y-69278667D01*
X170352555Y-69282477D01*
X170349168Y-69286608D01*
X170209760Y-69456627D01*
X170209756Y-69456633D01*
X170206376Y-69460755D01*
X170188448Y-69492250D01*
X170137368Y-69541555D01*
X170067738Y-69555417D01*
X170001667Y-69529434D01*
X169974427Y-69500284D01*
X169947814Y-69460755D01*
X169892559Y-69378681D01*
X169854989Y-69339297D01*
X169794422Y-69275807D01*
X169733424Y-69211865D01*
X169704623Y-69190436D01*
X169552740Y-69077432D01*
X169552741Y-69077432D01*
X169548458Y-69074246D01*
X169543707Y-69071830D01*
X169543703Y-69071828D01*
X169379853Y-68988523D01*
X169342949Y-68969760D01*
X169337855Y-68968178D01*
X169337852Y-68968177D01*
X169127871Y-68902976D01*
X169122773Y-68901393D01*
X169107034Y-68899307D01*
X168899511Y-68871802D01*
X168899506Y-68871802D01*
X168894226Y-68871102D01*
X168888897Y-68871302D01*
X168888895Y-68871302D01*
X168790368Y-68875001D01*
X168663842Y-68879751D01*
X168658623Y-68880846D01*
X168638849Y-68884995D01*
X168438209Y-68927093D01*
X168433250Y-68929051D01*
X168433248Y-68929052D01*
X168228744Y-69009815D01*
X168228742Y-69009816D01*
X168223779Y-69011776D01*
X168219220Y-69014543D01*
X168219217Y-69014544D01*
X168115581Y-69077432D01*
X168026683Y-69131377D01*
X168022653Y-69134874D01*
X167856946Y-69278667D01*
X167852555Y-69282477D01*
X167849168Y-69286608D01*
X167709760Y-69456627D01*
X167709756Y-69456633D01*
X167706376Y-69460755D01*
X167688448Y-69492250D01*
X167637368Y-69541555D01*
X167567738Y-69555417D01*
X167501667Y-69529434D01*
X167474427Y-69500284D01*
X167447814Y-69460755D01*
X167392559Y-69378681D01*
X167354989Y-69339297D01*
X167294422Y-69275807D01*
X167233424Y-69211865D01*
X167204623Y-69190436D01*
X167052740Y-69077432D01*
X167052741Y-69077432D01*
X167048458Y-69074246D01*
X167043707Y-69071830D01*
X167043703Y-69071828D01*
X166879853Y-68988523D01*
X166842949Y-68969760D01*
X166837855Y-68968178D01*
X166837852Y-68968177D01*
X166627871Y-68902976D01*
X166622773Y-68901393D01*
X166607034Y-68899307D01*
X166399511Y-68871802D01*
X166399506Y-68871802D01*
X166394226Y-68871102D01*
X166388897Y-68871302D01*
X166388895Y-68871302D01*
X166290368Y-68875001D01*
X166163842Y-68879751D01*
X166158623Y-68880846D01*
X166138849Y-68884995D01*
X165938209Y-68927093D01*
X165933250Y-68929051D01*
X165933248Y-68929052D01*
X165728744Y-69009815D01*
X165728742Y-69009816D01*
X165723779Y-69011776D01*
X165719220Y-69014543D01*
X165719217Y-69014544D01*
X165615581Y-69077432D01*
X165526683Y-69131377D01*
X165522653Y-69134874D01*
X165356946Y-69278667D01*
X165352555Y-69282477D01*
X165349168Y-69286608D01*
X165322994Y-69318529D01*
X165264334Y-69358524D01*
X165193364Y-69360455D01*
X165132616Y-69323710D01*
X165118416Y-69304941D01*
X165031937Y-69165193D01*
X165022901Y-69153792D01*
X164908171Y-69039261D01*
X164896760Y-69030249D01*
X164758757Y-68945184D01*
X164745576Y-68939037D01*
X164591290Y-68887862D01*
X164577914Y-68884995D01*
X164483562Y-68875328D01*
X164477145Y-68875000D01*
X164102115Y-68875000D01*
X164086876Y-68879475D01*
X164085671Y-68880865D01*
X164084000Y-68888548D01*
X164084000Y-71822884D01*
X163576000Y-71822884D01*
X163576000Y-70630115D01*
X163571525Y-70614876D01*
X163570135Y-70613671D01*
X163562452Y-70612000D01*
X162490116Y-70612000D01*
X162474877Y-70616475D01*
X162473672Y-70617865D01*
X162472001Y-70625548D01*
X162472001Y-71130095D01*
X153416500Y-71130095D01*
X153416500Y-70085885D01*
X162472000Y-70085885D01*
X162476475Y-70101124D01*
X162477865Y-70102329D01*
X162485548Y-70104000D01*
X163557885Y-70104000D01*
X163573124Y-70099525D01*
X163574329Y-70098135D01*
X163576000Y-70090452D01*
X163576000Y-68893116D01*
X163571525Y-68877877D01*
X163570135Y-68876672D01*
X163562452Y-68875001D01*
X163182905Y-68875001D01*
X163176386Y-68875338D01*
X163080794Y-68885257D01*
X163067400Y-68888149D01*
X162913216Y-68939588D01*
X162900038Y-68945761D01*
X162762193Y-69031063D01*
X162750792Y-69040099D01*
X162636261Y-69154829D01*
X162627249Y-69166240D01*
X162542184Y-69304243D01*
X162536037Y-69317424D01*
X162484862Y-69471710D01*
X162481995Y-69485086D01*
X162472328Y-69579438D01*
X162472000Y-69585855D01*
X162472000Y-70085885D01*
X153416500Y-70085885D01*
X153416500Y-58155992D01*
X157008807Y-58155992D01*
X157027542Y-58370134D01*
X157028966Y-58375447D01*
X157028966Y-58375449D01*
X157049892Y-58453543D01*
X157083178Y-58577769D01*
X157085500Y-58582749D01*
X157085501Y-58582751D01*
X157117689Y-58651777D01*
X157174024Y-58772588D01*
X157297319Y-58948673D01*
X157449319Y-59100673D01*
X157625403Y-59223968D01*
X157630381Y-59226289D01*
X157630384Y-59226291D01*
X157815241Y-59312491D01*
X157820223Y-59314814D01*
X157825531Y-59316236D01*
X157825533Y-59316237D01*
X158022543Y-59369026D01*
X158022545Y-59369026D01*
X158027858Y-59370450D01*
X158242000Y-59389185D01*
X158456142Y-59370450D01*
X158461455Y-59369026D01*
X158461457Y-59369026D01*
X158658467Y-59316237D01*
X158658469Y-59316236D01*
X158663777Y-59314814D01*
X158668759Y-59312491D01*
X158853616Y-59226291D01*
X158853619Y-59226289D01*
X158858597Y-59223968D01*
X159034681Y-59100673D01*
X159186681Y-58948673D01*
X159309976Y-58772588D01*
X159366312Y-58651777D01*
X159398499Y-58582751D01*
X159398500Y-58582749D01*
X159400822Y-58577769D01*
X159434109Y-58453543D01*
X159455034Y-58375449D01*
X159455034Y-58375447D01*
X159456458Y-58370134D01*
X159475193Y-58155992D01*
X159456458Y-57941850D01*
X159455034Y-57936535D01*
X159402245Y-57739525D01*
X159402244Y-57739523D01*
X159400822Y-57734215D01*
X159398499Y-57729233D01*
X159312299Y-57544377D01*
X159312297Y-57544374D01*
X159309976Y-57539396D01*
X159186681Y-57363311D01*
X159034681Y-57211311D01*
X158961401Y-57160000D01*
X162355502Y-57160000D01*
X162375457Y-57388087D01*
X162376881Y-57393400D01*
X162376881Y-57393402D01*
X162430420Y-57593209D01*
X162434716Y-57609243D01*
X162437039Y-57614224D01*
X162437039Y-57614225D01*
X162529151Y-57811762D01*
X162529154Y-57811767D01*
X162531477Y-57816749D01*
X162577523Y-57882509D01*
X162651545Y-57988223D01*
X162662802Y-58004300D01*
X162824700Y-58166198D01*
X162829208Y-58169355D01*
X162829211Y-58169357D01*
X162891847Y-58213215D01*
X163012251Y-58297523D01*
X163017233Y-58299846D01*
X163017238Y-58299849D01*
X163214775Y-58391961D01*
X163219757Y-58394284D01*
X163225065Y-58395706D01*
X163225067Y-58395707D01*
X163435598Y-58452119D01*
X163435600Y-58452119D01*
X163440913Y-58453543D01*
X163540480Y-58462254D01*
X163609149Y-58468262D01*
X163609156Y-58468262D01*
X163611873Y-58468500D01*
X164197578Y-58468500D01*
X164265699Y-58488502D01*
X164286673Y-58505405D01*
X168013098Y-62231831D01*
X168047124Y-62294143D01*
X168049313Y-62307754D01*
X168060127Y-62410646D01*
X168116257Y-62583397D01*
X168207077Y-62740703D01*
X168211495Y-62745610D01*
X168211496Y-62745611D01*
X168305471Y-62849981D01*
X168328619Y-62875689D01*
X168333961Y-62879570D01*
X168333963Y-62879572D01*
X168419811Y-62941944D01*
X168475570Y-62982455D01*
X168481598Y-62985139D01*
X168481600Y-62985140D01*
X168635476Y-63053650D01*
X168641507Y-63056335D01*
X168730343Y-63075217D01*
X168812722Y-63092728D01*
X168812726Y-63092728D01*
X168819179Y-63094100D01*
X169000821Y-63094100D01*
X169007274Y-63092728D01*
X169007278Y-63092728D01*
X169089657Y-63075217D01*
X169178493Y-63056335D01*
X169184524Y-63053650D01*
X169338400Y-62985140D01*
X169338402Y-62985139D01*
X169344430Y-62982455D01*
X169400189Y-62941944D01*
X169486037Y-62879572D01*
X169486039Y-62879570D01*
X169491381Y-62875689D01*
X169514529Y-62849981D01*
X169608504Y-62745611D01*
X169608505Y-62745610D01*
X169612923Y-62740703D01*
X169703743Y-62583397D01*
X169759873Y-62410646D01*
X169778860Y-62230000D01*
X169759873Y-62049354D01*
X169750835Y-62021536D01*
X169705785Y-61882888D01*
X169703743Y-61876603D01*
X169612923Y-61719297D01*
X169499849Y-61593715D01*
X169495803Y-61589222D01*
X169495802Y-61589221D01*
X169491381Y-61584311D01*
X169467763Y-61567151D01*
X169349772Y-61481426D01*
X169349771Y-61481425D01*
X169344430Y-61477545D01*
X169338402Y-61474861D01*
X169338400Y-61474860D01*
X169184524Y-61406350D01*
X169184523Y-61406350D01*
X169178493Y-61403665D01*
X169089657Y-61384782D01*
X169007278Y-61367272D01*
X169007274Y-61367272D01*
X169000821Y-61365900D01*
X168994219Y-61365900D01*
X168987652Y-61365210D01*
X168987856Y-61363267D01*
X168928701Y-61345898D01*
X168907727Y-61328995D01*
X165594368Y-58015636D01*
X165560342Y-57953324D01*
X165565407Y-57882509D01*
X165580251Y-57854269D01*
X165596042Y-57831718D01*
X165606523Y-57816749D01*
X165608846Y-57811767D01*
X165608849Y-57811762D01*
X165700961Y-57614225D01*
X165700961Y-57614224D01*
X165703284Y-57609243D01*
X165707581Y-57593209D01*
X165761119Y-57393402D01*
X165761119Y-57393400D01*
X165762543Y-57388087D01*
X165782498Y-57160000D01*
X165762543Y-56931913D01*
X165760844Y-56925572D01*
X165704707Y-56716067D01*
X165704706Y-56716065D01*
X165703284Y-56710757D01*
X165700961Y-56705775D01*
X165608849Y-56508238D01*
X165608846Y-56508233D01*
X165606523Y-56503251D01*
X165475198Y-56315700D01*
X165313300Y-56153802D01*
X165308792Y-56150645D01*
X165308789Y-56150643D01*
X165147588Y-56037769D01*
X165125749Y-56022477D01*
X165120767Y-56020154D01*
X165120762Y-56020151D01*
X165086543Y-56004195D01*
X165033258Y-55957278D01*
X165013797Y-55889001D01*
X165034339Y-55821041D01*
X165086543Y-55775805D01*
X165120762Y-55759849D01*
X165120767Y-55759846D01*
X165125749Y-55757523D01*
X165263115Y-55661338D01*
X165308789Y-55629357D01*
X165308792Y-55629355D01*
X165313300Y-55626198D01*
X165475198Y-55464300D01*
X165486456Y-55448223D01*
X165567755Y-55332115D01*
X165606523Y-55276749D01*
X165608846Y-55271767D01*
X165608849Y-55271762D01*
X165700961Y-55074225D01*
X165700961Y-55074224D01*
X165703284Y-55069243D01*
X165705758Y-55060012D01*
X165761119Y-54853402D01*
X165761119Y-54853400D01*
X165762543Y-54848087D01*
X165782498Y-54620000D01*
X165762543Y-54391913D01*
X165758711Y-54377611D01*
X165704707Y-54176067D01*
X165704706Y-54176065D01*
X165703284Y-54170757D01*
X165700961Y-54165775D01*
X165608849Y-53968238D01*
X165608846Y-53968233D01*
X165606523Y-53963251D01*
X165517306Y-53835836D01*
X165478357Y-53780211D01*
X165478355Y-53780208D01*
X165475198Y-53775700D01*
X165313300Y-53613802D01*
X165308792Y-53610645D01*
X165308789Y-53610643D01*
X165205865Y-53538575D01*
X165125749Y-53482477D01*
X165120767Y-53480154D01*
X165120762Y-53480151D01*
X165086543Y-53464195D01*
X165033258Y-53417278D01*
X165013797Y-53349001D01*
X165034339Y-53281041D01*
X165086543Y-53235805D01*
X165120762Y-53219849D01*
X165120767Y-53219846D01*
X165125749Y-53217523D01*
X165262991Y-53121425D01*
X165308789Y-53089357D01*
X165308792Y-53089355D01*
X165313300Y-53086198D01*
X165475198Y-52924300D01*
X165484489Y-52911032D01*
X165574776Y-52782088D01*
X165583780Y-52769229D01*
X165639237Y-52724901D01*
X165686993Y-52715500D01*
X166572577Y-52715500D01*
X166640698Y-52735502D01*
X166661673Y-52752405D01*
X166967596Y-53058329D01*
X167001621Y-53120641D01*
X167004500Y-53147424D01*
X167004500Y-57832980D01*
X167003970Y-57844214D01*
X167002292Y-57851719D01*
X167002541Y-57859638D01*
X167004438Y-57920012D01*
X167004500Y-57923969D01*
X167004500Y-57951983D01*
X167004996Y-57955908D01*
X167004996Y-57955909D01*
X167005008Y-57956004D01*
X167005941Y-57967849D01*
X167007335Y-58012205D01*
X167009547Y-58019817D01*
X167013013Y-58031748D01*
X167017023Y-58051112D01*
X167019573Y-58071299D01*
X167022489Y-58078663D01*
X167022490Y-58078668D01*
X167035907Y-58112556D01*
X167039752Y-58123785D01*
X167052131Y-58166393D01*
X167056169Y-58173220D01*
X167056170Y-58173223D01*
X167062488Y-58183906D01*
X167071188Y-58201664D01*
X167075761Y-58213215D01*
X167075765Y-58213221D01*
X167078681Y-58220588D01*
X167083339Y-58226999D01*
X167083340Y-58227001D01*
X167104764Y-58256488D01*
X167111281Y-58266410D01*
X167129826Y-58297768D01*
X167129829Y-58297772D01*
X167133866Y-58304598D01*
X167148250Y-58318982D01*
X167161091Y-58334016D01*
X167173058Y-58350487D01*
X167179166Y-58355540D01*
X167207255Y-58378777D01*
X167216035Y-58386767D01*
X169283097Y-60453829D01*
X169317123Y-60516141D01*
X169319312Y-60529753D01*
X169321160Y-60547330D01*
X169330127Y-60632646D01*
X169332167Y-60638924D01*
X169332167Y-60638925D01*
X169350307Y-60694753D01*
X169386257Y-60805397D01*
X169477077Y-60962703D01*
X169481495Y-60967610D01*
X169481496Y-60967611D01*
X169590641Y-61088829D01*
X169598619Y-61097689D01*
X169745570Y-61204455D01*
X169751598Y-61207139D01*
X169751600Y-61207140D01*
X169905476Y-61275650D01*
X169911507Y-61278335D01*
X170000343Y-61297218D01*
X170082722Y-61314728D01*
X170082726Y-61314728D01*
X170089179Y-61316100D01*
X170270821Y-61316100D01*
X170277274Y-61314728D01*
X170277278Y-61314728D01*
X170359657Y-61297218D01*
X170448493Y-61278335D01*
X170454524Y-61275650D01*
X170608400Y-61207140D01*
X170608402Y-61207139D01*
X170614430Y-61204455D01*
X170742283Y-61111564D01*
X170816345Y-61087500D01*
X171388578Y-61087500D01*
X171456699Y-61107502D01*
X171477673Y-61124405D01*
X176786745Y-66433477D01*
X176794322Y-66441803D01*
X176798447Y-66448303D01*
X176804225Y-66453729D01*
X176804226Y-66453730D01*
X176848281Y-66495100D01*
X176851123Y-66497855D01*
X176870906Y-66517638D01*
X176874114Y-66520126D01*
X176883143Y-66527837D01*
X176915494Y-66558217D01*
X176922443Y-66562037D01*
X176933329Y-66568022D01*
X176949853Y-66578876D01*
X176965933Y-66591349D01*
X176973210Y-66594498D01*
X177006650Y-66608969D01*
X177017311Y-66614192D01*
X177049247Y-66631749D01*
X177049252Y-66631751D01*
X177056197Y-66635569D01*
X177063871Y-66637539D01*
X177063878Y-66637542D01*
X177075913Y-66640632D01*
X177094618Y-66647036D01*
X177106013Y-66651967D01*
X177113292Y-66655117D01*
X177128401Y-66657510D01*
X177157127Y-66662060D01*
X177168740Y-66664465D01*
X177211718Y-66675500D01*
X177232065Y-66675500D01*
X177251777Y-66677051D01*
X177271879Y-66680235D01*
X177279771Y-66679489D01*
X177316056Y-66676059D01*
X177327914Y-66675500D01*
X206676980Y-66675500D01*
X206688214Y-66676030D01*
X206695719Y-66677708D01*
X206764012Y-66675562D01*
X206767969Y-66675500D01*
X206795983Y-66675500D01*
X206799908Y-66675004D01*
X206799909Y-66675004D01*
X206800004Y-66674992D01*
X206811849Y-66674059D01*
X206841670Y-66673122D01*
X206848282Y-66672914D01*
X206848283Y-66672914D01*
X206856205Y-66672665D01*
X206875749Y-66666987D01*
X206895112Y-66662977D01*
X206907440Y-66661420D01*
X206907442Y-66661420D01*
X206915299Y-66660427D01*
X206922663Y-66657511D01*
X206922668Y-66657510D01*
X206956556Y-66644093D01*
X206967785Y-66640248D01*
X206984465Y-66635402D01*
X207010393Y-66627869D01*
X207017220Y-66623831D01*
X207017223Y-66623830D01*
X207027906Y-66617512D01*
X207045664Y-66608812D01*
X207057215Y-66604239D01*
X207057221Y-66604235D01*
X207064588Y-66601319D01*
X207073977Y-66594498D01*
X207100488Y-66575236D01*
X207110410Y-66568719D01*
X207141768Y-66550174D01*
X207141772Y-66550171D01*
X207148598Y-66546134D01*
X207162982Y-66531750D01*
X207178016Y-66518909D01*
X207188073Y-66511602D01*
X207194487Y-66506942D01*
X207222778Y-66472744D01*
X207230767Y-66463965D01*
X210439809Y-63254924D01*
X210502121Y-63220898D01*
X210558318Y-63221500D01*
X210774464Y-63273392D01*
X210774470Y-63273393D01*
X210779277Y-63274547D01*
X211015988Y-63293177D01*
X211252699Y-63274547D01*
X211257506Y-63273393D01*
X211257512Y-63273392D01*
X211403379Y-63238372D01*
X211483582Y-63219117D01*
X211488184Y-63217211D01*
X211698377Y-63130147D01*
X211698381Y-63130145D01*
X211702951Y-63128252D01*
X211707923Y-63125205D01*
X211891544Y-63012682D01*
X216868148Y-63012682D01*
X216873875Y-63020332D01*
X217045030Y-63125217D01*
X217053825Y-63129699D01*
X217263976Y-63216746D01*
X217273361Y-63219795D01*
X217494542Y-63272897D01*
X217504289Y-63274440D01*
X217731058Y-63292287D01*
X217740918Y-63292287D01*
X217967687Y-63274440D01*
X217977434Y-63272897D01*
X218198615Y-63219795D01*
X218208000Y-63216746D01*
X218418151Y-63129699D01*
X218426946Y-63125217D01*
X218594433Y-63022580D01*
X218603895Y-63012122D01*
X218600112Y-63003346D01*
X217748800Y-62152034D01*
X217734856Y-62144420D01*
X217733023Y-62144551D01*
X217726408Y-62148802D01*
X216874908Y-63000302D01*
X216868148Y-63012682D01*
X211891544Y-63012682D01*
X211901190Y-63006771D01*
X211901196Y-63006767D01*
X211905404Y-63004188D01*
X212085957Y-62849981D01*
X212240164Y-62669428D01*
X212242743Y-62665220D01*
X212242747Y-62665214D01*
X212361642Y-62471195D01*
X212364228Y-62466975D01*
X212366217Y-62462175D01*
X212453199Y-62252179D01*
X212453200Y-62252177D01*
X212455093Y-62247606D01*
X212479869Y-62144408D01*
X212509368Y-62021536D01*
X212509370Y-62021524D01*
X212510523Y-62016723D01*
X212528765Y-61784942D01*
X216223713Y-61784942D01*
X216241560Y-62011711D01*
X216243103Y-62021458D01*
X216296205Y-62242639D01*
X216299254Y-62252024D01*
X216386301Y-62462175D01*
X216390783Y-62470970D01*
X216493420Y-62638457D01*
X216503878Y-62647919D01*
X216512654Y-62644136D01*
X217363966Y-61792824D01*
X217370344Y-61781144D01*
X218100396Y-61781144D01*
X218100527Y-61782977D01*
X218104778Y-61789592D01*
X218956278Y-62641092D01*
X218968658Y-62647852D01*
X218976308Y-62642125D01*
X219081193Y-62470970D01*
X219085675Y-62462175D01*
X219172722Y-62252024D01*
X219175771Y-62242639D01*
X219228873Y-62021458D01*
X219230416Y-62011711D01*
X219248263Y-61784942D01*
X219248263Y-61775082D01*
X219230416Y-61548313D01*
X219228873Y-61538566D01*
X219175771Y-61317385D01*
X219172722Y-61308000D01*
X219085675Y-61097849D01*
X219081193Y-61089054D01*
X218978556Y-60921567D01*
X218968098Y-60912105D01*
X218959322Y-60915888D01*
X218108010Y-61767200D01*
X218100396Y-61781144D01*
X217370344Y-61781144D01*
X217371580Y-61778880D01*
X217371449Y-61777047D01*
X217367198Y-61770432D01*
X216515698Y-60918932D01*
X216503318Y-60912172D01*
X216495668Y-60917899D01*
X216390783Y-61089054D01*
X216386301Y-61097849D01*
X216299254Y-61308000D01*
X216296205Y-61317385D01*
X216243103Y-61538566D01*
X216241560Y-61548313D01*
X216223713Y-61775082D01*
X216223713Y-61784942D01*
X212528765Y-61784942D01*
X212529153Y-61780012D01*
X212510523Y-61543301D01*
X212508217Y-61533693D01*
X212456285Y-61317385D01*
X212455093Y-61312418D01*
X212441544Y-61279707D01*
X212366123Y-61097623D01*
X212366121Y-61097619D01*
X212364228Y-61093049D01*
X212360828Y-61087500D01*
X212242747Y-60894810D01*
X212242743Y-60894804D01*
X212240164Y-60890596D01*
X212085957Y-60710043D01*
X211905404Y-60555836D01*
X211901196Y-60553257D01*
X211901190Y-60553253D01*
X211892458Y-60547902D01*
X216868081Y-60547902D01*
X216871864Y-60556678D01*
X217723176Y-61407990D01*
X217737120Y-61415604D01*
X217738953Y-61415473D01*
X217745568Y-61411222D01*
X218597068Y-60559722D01*
X218603828Y-60547342D01*
X218598101Y-60539692D01*
X218426946Y-60434807D01*
X218418151Y-60430325D01*
X218208000Y-60343278D01*
X218198615Y-60340229D01*
X217977434Y-60287127D01*
X217967687Y-60285584D01*
X217740918Y-60267737D01*
X217731058Y-60267737D01*
X217504289Y-60285584D01*
X217494542Y-60287127D01*
X217273361Y-60340229D01*
X217263976Y-60343278D01*
X217053825Y-60430325D01*
X217045030Y-60434807D01*
X216877543Y-60537444D01*
X216868081Y-60547902D01*
X211892458Y-60547902D01*
X211707171Y-60434358D01*
X211702951Y-60431772D01*
X211698381Y-60429879D01*
X211698377Y-60429877D01*
X211488155Y-60342801D01*
X211488153Y-60342800D01*
X211483582Y-60340907D01*
X211363788Y-60312147D01*
X211257512Y-60286632D01*
X211257506Y-60286631D01*
X211252699Y-60285477D01*
X211015988Y-60266847D01*
X210779277Y-60285477D01*
X210774470Y-60286631D01*
X210774464Y-60286632D01*
X210668188Y-60312147D01*
X210548394Y-60340907D01*
X210543823Y-60342800D01*
X210543821Y-60342801D01*
X210333599Y-60429877D01*
X210333595Y-60429879D01*
X210329025Y-60431772D01*
X210324805Y-60434358D01*
X210130786Y-60553253D01*
X210130780Y-60553257D01*
X210126572Y-60555836D01*
X209946019Y-60710043D01*
X209791812Y-60890596D01*
X209789233Y-60894804D01*
X209789229Y-60894810D01*
X209671148Y-61087500D01*
X209667748Y-61093049D01*
X209665855Y-61097619D01*
X209665853Y-61097623D01*
X209590432Y-61279707D01*
X209576883Y-61312418D01*
X209575691Y-61317385D01*
X209523760Y-61533693D01*
X209521453Y-61543301D01*
X209502823Y-61780012D01*
X209521453Y-62016723D01*
X209522606Y-62021524D01*
X209522608Y-62021536D01*
X209574500Y-62237682D01*
X209570953Y-62308590D01*
X209541076Y-62356191D01*
X206529672Y-65367595D01*
X206467360Y-65401621D01*
X206440577Y-65404500D01*
X177607423Y-65404500D01*
X177539302Y-65384498D01*
X177518328Y-65367595D01*
X173930733Y-61780000D01*
X189182835Y-61780000D01*
X189201465Y-62016711D01*
X189202619Y-62021518D01*
X189202620Y-62021524D01*
X189232122Y-62144408D01*
X189256895Y-62247594D01*
X189258788Y-62252165D01*
X189258789Y-62252167D01*
X189345777Y-62462175D01*
X189347760Y-62466963D01*
X189350346Y-62471183D01*
X189469241Y-62665202D01*
X189469245Y-62665208D01*
X189471824Y-62669416D01*
X189626031Y-62849969D01*
X189806584Y-63004176D01*
X189810792Y-63006755D01*
X189810798Y-63006759D01*
X189891699Y-63056335D01*
X190009037Y-63128240D01*
X190013607Y-63130133D01*
X190013611Y-63130135D01*
X190223833Y-63217211D01*
X190228406Y-63219105D01*
X190308609Y-63238360D01*
X190454476Y-63273380D01*
X190454482Y-63273381D01*
X190459289Y-63274535D01*
X190696000Y-63293165D01*
X190932711Y-63274535D01*
X190937518Y-63273381D01*
X190937524Y-63273380D01*
X191083391Y-63238360D01*
X191163594Y-63219105D01*
X191168167Y-63217211D01*
X191378389Y-63130135D01*
X191378393Y-63130133D01*
X191382963Y-63128240D01*
X191500301Y-63056335D01*
X191571556Y-63012670D01*
X196548160Y-63012670D01*
X196553887Y-63020320D01*
X196725042Y-63125205D01*
X196733837Y-63129687D01*
X196943988Y-63216734D01*
X196953373Y-63219783D01*
X197174554Y-63272885D01*
X197184301Y-63274428D01*
X197411070Y-63292275D01*
X197420930Y-63292275D01*
X197647699Y-63274428D01*
X197657446Y-63272885D01*
X197878627Y-63219783D01*
X197888012Y-63216734D01*
X198098163Y-63129687D01*
X198106958Y-63125205D01*
X198274445Y-63022568D01*
X198283907Y-63012110D01*
X198280124Y-63003334D01*
X197428812Y-62152022D01*
X197414868Y-62144408D01*
X197413035Y-62144539D01*
X197406420Y-62148790D01*
X196554920Y-63000290D01*
X196548160Y-63012670D01*
X191571556Y-63012670D01*
X191581202Y-63006759D01*
X191581208Y-63006755D01*
X191585416Y-63004176D01*
X191765969Y-62849969D01*
X191920176Y-62669416D01*
X191922755Y-62665208D01*
X191922759Y-62665202D01*
X192041654Y-62471183D01*
X192044240Y-62466963D01*
X192046224Y-62462175D01*
X192133211Y-62252167D01*
X192133212Y-62252165D01*
X192135105Y-62247594D01*
X192159878Y-62144408D01*
X192189380Y-62021524D01*
X192189381Y-62021518D01*
X192190535Y-62016711D01*
X192208777Y-61784930D01*
X195903725Y-61784930D01*
X195921572Y-62011699D01*
X195923115Y-62021446D01*
X195976217Y-62242627D01*
X195979266Y-62252012D01*
X196066313Y-62462163D01*
X196070795Y-62470958D01*
X196173432Y-62638445D01*
X196183890Y-62647907D01*
X196192666Y-62644124D01*
X197043978Y-61792812D01*
X197050356Y-61781132D01*
X197780408Y-61781132D01*
X197780539Y-61782965D01*
X197784790Y-61789580D01*
X198636290Y-62641080D01*
X198648670Y-62647840D01*
X198656320Y-62642113D01*
X198761205Y-62470958D01*
X198765687Y-62462163D01*
X198852734Y-62252012D01*
X198855783Y-62242627D01*
X198908885Y-62021446D01*
X198910428Y-62011699D01*
X198928275Y-61784930D01*
X198928275Y-61775070D01*
X198910428Y-61548301D01*
X198908885Y-61538554D01*
X198855783Y-61317373D01*
X198852734Y-61307988D01*
X198765687Y-61097837D01*
X198761205Y-61089042D01*
X198658568Y-60921555D01*
X198648110Y-60912093D01*
X198639334Y-60915876D01*
X197788022Y-61767188D01*
X197780408Y-61781132D01*
X197050356Y-61781132D01*
X197051592Y-61778868D01*
X197051461Y-61777035D01*
X197047210Y-61770420D01*
X196195710Y-60918920D01*
X196183330Y-60912160D01*
X196175680Y-60917887D01*
X196070795Y-61089042D01*
X196066313Y-61097837D01*
X195979266Y-61307988D01*
X195976217Y-61317373D01*
X195923115Y-61538554D01*
X195921572Y-61548301D01*
X195903725Y-61775070D01*
X195903725Y-61784930D01*
X192208777Y-61784930D01*
X192209165Y-61780000D01*
X192190535Y-61543289D01*
X192188232Y-61533693D01*
X192143146Y-61345898D01*
X192135105Y-61312406D01*
X192121561Y-61279707D01*
X192046135Y-61097611D01*
X192046133Y-61097607D01*
X192044240Y-61093037D01*
X192040847Y-61087500D01*
X191922759Y-60894798D01*
X191922755Y-60894792D01*
X191920176Y-60890584D01*
X191765969Y-60710031D01*
X191585416Y-60555824D01*
X191581208Y-60553245D01*
X191581202Y-60553241D01*
X191572470Y-60547890D01*
X196548093Y-60547890D01*
X196551876Y-60556666D01*
X197403188Y-61407978D01*
X197417132Y-61415592D01*
X197418965Y-61415461D01*
X197425580Y-61411210D01*
X198277080Y-60559710D01*
X198283840Y-60547330D01*
X198278113Y-60539680D01*
X198106958Y-60434795D01*
X198098163Y-60430313D01*
X197888012Y-60343266D01*
X197878627Y-60340217D01*
X197657446Y-60287115D01*
X197647699Y-60285572D01*
X197420930Y-60267725D01*
X197411070Y-60267725D01*
X197184301Y-60285572D01*
X197174554Y-60287115D01*
X196953373Y-60340217D01*
X196943988Y-60343266D01*
X196733837Y-60430313D01*
X196725042Y-60434795D01*
X196557555Y-60537432D01*
X196548093Y-60547890D01*
X191572470Y-60547890D01*
X191387183Y-60434346D01*
X191382963Y-60431760D01*
X191378393Y-60429867D01*
X191378389Y-60429865D01*
X191168167Y-60342789D01*
X191168165Y-60342788D01*
X191163594Y-60340895D01*
X191043850Y-60312147D01*
X190937524Y-60286620D01*
X190937518Y-60286619D01*
X190932711Y-60285465D01*
X190696000Y-60266835D01*
X190459289Y-60285465D01*
X190454482Y-60286619D01*
X190454476Y-60286620D01*
X190348150Y-60312147D01*
X190228406Y-60340895D01*
X190223835Y-60342788D01*
X190223833Y-60342789D01*
X190013611Y-60429865D01*
X190013607Y-60429867D01*
X190009037Y-60431760D01*
X190004817Y-60434346D01*
X189810798Y-60553241D01*
X189810792Y-60553245D01*
X189806584Y-60555824D01*
X189626031Y-60710031D01*
X189471824Y-60890584D01*
X189469245Y-60894792D01*
X189469241Y-60894798D01*
X189351153Y-61087500D01*
X189347760Y-61093037D01*
X189345867Y-61097607D01*
X189345865Y-61097611D01*
X189270439Y-61279707D01*
X189256895Y-61312406D01*
X189248854Y-61345898D01*
X189203769Y-61533693D01*
X189201465Y-61543289D01*
X189182835Y-61780000D01*
X173930733Y-61780000D01*
X172209250Y-60058517D01*
X172201674Y-60050191D01*
X172197553Y-60043697D01*
X172147734Y-59996914D01*
X172144893Y-59994160D01*
X172125094Y-59974361D01*
X172121969Y-59971937D01*
X172121960Y-59971929D01*
X172121874Y-59971863D01*
X172112849Y-59964155D01*
X172086285Y-59939210D01*
X172080506Y-59933783D01*
X172062669Y-59923977D01*
X172046153Y-59913127D01*
X172030067Y-59900650D01*
X171989334Y-59883024D01*
X171978686Y-59877807D01*
X171952001Y-59863137D01*
X171939803Y-59856431D01*
X171932128Y-59854460D01*
X171932122Y-59854458D01*
X171920089Y-59851369D01*
X171901387Y-59844966D01*
X171882708Y-59836883D01*
X171848872Y-59831524D01*
X171838873Y-59829940D01*
X171827260Y-59827535D01*
X171784282Y-59816500D01*
X171763935Y-59816500D01*
X171744224Y-59814949D01*
X171731950Y-59813005D01*
X171724121Y-59811765D01*
X171716229Y-59812511D01*
X171679944Y-59815941D01*
X171668086Y-59816500D01*
X170816345Y-59816500D01*
X170742284Y-59792436D01*
X170619772Y-59703426D01*
X170619771Y-59703425D01*
X170614430Y-59699545D01*
X170608402Y-59696861D01*
X170608400Y-59696860D01*
X170454524Y-59628350D01*
X170454523Y-59628350D01*
X170448493Y-59625665D01*
X170359657Y-59606783D01*
X170277278Y-59589272D01*
X170277274Y-59589272D01*
X170270821Y-59587900D01*
X170264219Y-59587900D01*
X170257652Y-59587210D01*
X170257856Y-59585267D01*
X170198702Y-59567898D01*
X170177728Y-59550995D01*
X168312405Y-57685672D01*
X168278379Y-57623360D01*
X168275500Y-57596577D01*
X168275500Y-57160000D01*
X169975502Y-57160000D01*
X169995457Y-57388087D01*
X169996881Y-57393400D01*
X169996881Y-57393402D01*
X170050420Y-57593209D01*
X170054716Y-57609243D01*
X170057039Y-57614224D01*
X170057039Y-57614225D01*
X170149151Y-57811762D01*
X170149154Y-57811767D01*
X170151477Y-57816749D01*
X170197523Y-57882509D01*
X170271545Y-57988223D01*
X170282802Y-58004300D01*
X170444700Y-58166198D01*
X170449208Y-58169355D01*
X170449211Y-58169357D01*
X170511847Y-58213215D01*
X170632251Y-58297523D01*
X170637233Y-58299846D01*
X170637238Y-58299849D01*
X170834775Y-58391961D01*
X170839757Y-58394284D01*
X170845065Y-58395706D01*
X170845067Y-58395707D01*
X171055598Y-58452119D01*
X171055600Y-58452119D01*
X171060913Y-58453543D01*
X171160480Y-58462254D01*
X171229149Y-58468262D01*
X171229156Y-58468262D01*
X171231873Y-58468500D01*
X172146127Y-58468500D01*
X172148844Y-58468262D01*
X172148851Y-58468262D01*
X172217520Y-58462254D01*
X172317087Y-58453543D01*
X172322400Y-58452119D01*
X172322402Y-58452119D01*
X172479591Y-58410000D01*
X176566807Y-58410000D01*
X176585542Y-58624142D01*
X176586966Y-58629455D01*
X176586966Y-58629457D01*
X176630526Y-58792022D01*
X176641178Y-58831777D01*
X176643500Y-58836757D01*
X176643501Y-58836759D01*
X176695688Y-58948673D01*
X176732024Y-59026596D01*
X176855319Y-59202681D01*
X177007319Y-59354681D01*
X177183403Y-59477976D01*
X177188381Y-59480297D01*
X177188384Y-59480299D01*
X177373241Y-59566499D01*
X177378223Y-59568822D01*
X177383531Y-59570244D01*
X177383533Y-59570245D01*
X177580543Y-59623034D01*
X177580545Y-59623034D01*
X177585858Y-59624458D01*
X177800000Y-59643193D01*
X178014142Y-59624458D01*
X178019455Y-59623034D01*
X178019457Y-59623034D01*
X178216467Y-59570245D01*
X178216469Y-59570244D01*
X178221777Y-59568822D01*
X178226759Y-59566499D01*
X178411616Y-59480299D01*
X178411619Y-59480297D01*
X178416597Y-59477976D01*
X178592681Y-59354681D01*
X178744681Y-59202681D01*
X178867976Y-59026596D01*
X178904313Y-58948673D01*
X178956499Y-58836759D01*
X178956500Y-58836757D01*
X178958822Y-58831777D01*
X178969475Y-58792022D01*
X179013034Y-58629457D01*
X179013034Y-58629455D01*
X179014458Y-58624142D01*
X179032318Y-58420000D01*
X187792835Y-58420000D01*
X187811465Y-58656711D01*
X187812619Y-58661518D01*
X187812620Y-58661524D01*
X187840366Y-58777093D01*
X187866895Y-58887594D01*
X187868788Y-58892165D01*
X187868789Y-58892167D01*
X187955777Y-59102175D01*
X187957760Y-59106963D01*
X187960346Y-59111183D01*
X188079241Y-59305202D01*
X188079245Y-59305208D01*
X188081824Y-59309416D01*
X188236031Y-59489969D01*
X188416584Y-59644176D01*
X188420792Y-59646755D01*
X188420798Y-59646759D01*
X188581604Y-59745301D01*
X188619037Y-59768240D01*
X188623607Y-59770133D01*
X188623611Y-59770135D01*
X188832959Y-59856849D01*
X188838406Y-59859105D01*
X188855201Y-59863137D01*
X189064476Y-59913380D01*
X189064482Y-59913381D01*
X189069289Y-59914535D01*
X189306000Y-59933165D01*
X189542711Y-59914535D01*
X189547518Y-59913381D01*
X189547524Y-59913380D01*
X189756799Y-59863137D01*
X189773594Y-59859105D01*
X189779041Y-59856849D01*
X189988389Y-59770135D01*
X189988393Y-59770133D01*
X189992963Y-59768240D01*
X190030396Y-59745301D01*
X190181556Y-59652670D01*
X197938160Y-59652670D01*
X197943887Y-59660320D01*
X198115042Y-59765205D01*
X198123837Y-59769687D01*
X198333988Y-59856734D01*
X198343373Y-59859783D01*
X198564554Y-59912885D01*
X198574301Y-59914428D01*
X198801070Y-59932275D01*
X198810930Y-59932275D01*
X199037699Y-59914428D01*
X199047446Y-59912885D01*
X199268627Y-59859783D01*
X199278012Y-59856734D01*
X199488163Y-59769687D01*
X199496958Y-59765205D01*
X199664445Y-59662568D01*
X199673907Y-59652110D01*
X199670124Y-59643334D01*
X198818812Y-58792022D01*
X198804868Y-58784408D01*
X198803035Y-58784539D01*
X198796420Y-58788790D01*
X197944920Y-59640290D01*
X197938160Y-59652670D01*
X190181556Y-59652670D01*
X190191202Y-59646759D01*
X190191208Y-59646755D01*
X190195416Y-59644176D01*
X190375969Y-59489969D01*
X190530176Y-59309416D01*
X190532755Y-59305208D01*
X190532759Y-59305202D01*
X190651654Y-59111183D01*
X190654240Y-59106963D01*
X190656224Y-59102175D01*
X190743211Y-58892167D01*
X190743212Y-58892165D01*
X190745105Y-58887594D01*
X190771634Y-58777093D01*
X190799380Y-58661524D01*
X190799381Y-58661518D01*
X190800535Y-58656711D01*
X190818777Y-58424930D01*
X197293725Y-58424930D01*
X197311572Y-58651699D01*
X197313115Y-58661446D01*
X197366217Y-58882627D01*
X197369266Y-58892012D01*
X197456313Y-59102163D01*
X197460795Y-59110958D01*
X197563432Y-59278445D01*
X197573890Y-59287907D01*
X197582666Y-59284124D01*
X198433978Y-58432812D01*
X198440356Y-58421132D01*
X199170408Y-58421132D01*
X199170539Y-58422965D01*
X199174790Y-58429580D01*
X200026290Y-59281080D01*
X200038670Y-59287840D01*
X200046320Y-59282113D01*
X200151205Y-59110958D01*
X200155687Y-59102163D01*
X200242734Y-58892012D01*
X200245783Y-58882627D01*
X200298885Y-58661446D01*
X200300428Y-58651699D01*
X200318275Y-58424930D01*
X200318275Y-58420012D01*
X208112823Y-58420012D01*
X208131453Y-58656723D01*
X208186883Y-58887606D01*
X208188776Y-58892177D01*
X208188777Y-58892179D01*
X208275760Y-59102175D01*
X208277748Y-59106975D01*
X208280334Y-59111195D01*
X208399229Y-59305214D01*
X208399233Y-59305220D01*
X208401812Y-59309428D01*
X208556019Y-59489981D01*
X208736572Y-59644188D01*
X208740780Y-59646767D01*
X208740786Y-59646771D01*
X208934053Y-59765205D01*
X208939025Y-59768252D01*
X208943595Y-59770145D01*
X208943599Y-59770147D01*
X209153302Y-59857008D01*
X209158394Y-59859117D01*
X209175139Y-59863137D01*
X209384464Y-59913392D01*
X209384470Y-59913393D01*
X209389277Y-59914547D01*
X209625988Y-59933177D01*
X209862699Y-59914547D01*
X209867506Y-59913393D01*
X209867512Y-59913392D01*
X210076837Y-59863137D01*
X210093582Y-59859117D01*
X210098674Y-59857008D01*
X210308377Y-59770147D01*
X210308381Y-59770145D01*
X210312951Y-59768252D01*
X210317923Y-59765205D01*
X210501544Y-59652682D01*
X218258148Y-59652682D01*
X218263875Y-59660332D01*
X218435030Y-59765217D01*
X218443825Y-59769699D01*
X218653976Y-59856746D01*
X218663361Y-59859795D01*
X218884542Y-59912897D01*
X218894289Y-59914440D01*
X219121058Y-59932287D01*
X219130918Y-59932287D01*
X219357687Y-59914440D01*
X219367434Y-59912897D01*
X219588615Y-59859795D01*
X219598000Y-59856746D01*
X219808151Y-59769699D01*
X219816946Y-59765217D01*
X219984433Y-59662580D01*
X219993895Y-59652122D01*
X219990112Y-59643346D01*
X219138800Y-58792034D01*
X219124856Y-58784420D01*
X219123023Y-58784551D01*
X219116408Y-58788802D01*
X218264908Y-59640302D01*
X218258148Y-59652682D01*
X210501544Y-59652682D01*
X210511190Y-59646771D01*
X210511196Y-59646767D01*
X210515404Y-59644188D01*
X210695957Y-59489981D01*
X210850164Y-59309428D01*
X210852743Y-59305220D01*
X210852747Y-59305214D01*
X210971642Y-59111195D01*
X210974228Y-59106975D01*
X210976217Y-59102175D01*
X211063199Y-58892179D01*
X211063200Y-58892177D01*
X211065093Y-58887606D01*
X211120523Y-58656723D01*
X211138765Y-58424942D01*
X217613713Y-58424942D01*
X217631560Y-58651711D01*
X217633103Y-58661458D01*
X217686205Y-58882639D01*
X217689254Y-58892024D01*
X217776301Y-59102175D01*
X217780783Y-59110970D01*
X217883420Y-59278457D01*
X217893878Y-59287919D01*
X217902654Y-59284136D01*
X218753966Y-58432824D01*
X218760344Y-58421144D01*
X219490396Y-58421144D01*
X219490527Y-58422977D01*
X219494778Y-58429592D01*
X220346278Y-59281092D01*
X220358658Y-59287852D01*
X220366308Y-59282125D01*
X220471193Y-59110970D01*
X220475675Y-59102175D01*
X220562722Y-58892024D01*
X220565771Y-58882639D01*
X220618873Y-58661458D01*
X220620416Y-58651711D01*
X220638263Y-58424942D01*
X220638263Y-58415082D01*
X220620416Y-58188313D01*
X220618873Y-58178566D01*
X220565771Y-57957385D01*
X220562722Y-57948000D01*
X220475675Y-57737849D01*
X220471193Y-57729054D01*
X220368556Y-57561567D01*
X220358098Y-57552105D01*
X220349322Y-57555888D01*
X219498010Y-58407200D01*
X219490396Y-58421144D01*
X218760344Y-58421144D01*
X218761580Y-58418880D01*
X218761449Y-58417047D01*
X218757198Y-58410432D01*
X217905698Y-57558932D01*
X217893318Y-57552172D01*
X217885668Y-57557899D01*
X217780783Y-57729054D01*
X217776301Y-57737849D01*
X217689254Y-57948000D01*
X217686205Y-57957385D01*
X217633103Y-58178566D01*
X217631560Y-58188313D01*
X217613713Y-58415082D01*
X217613713Y-58424942D01*
X211138765Y-58424942D01*
X211139153Y-58420012D01*
X211120523Y-58183301D01*
X211118104Y-58173223D01*
X211080270Y-58015636D01*
X211065093Y-57952418D01*
X211063194Y-57947833D01*
X210976123Y-57737623D01*
X210976121Y-57737619D01*
X210974228Y-57733049D01*
X210922580Y-57648767D01*
X210852747Y-57534810D01*
X210852743Y-57534804D01*
X210850164Y-57530596D01*
X210695957Y-57350043D01*
X210515404Y-57195836D01*
X210511196Y-57193257D01*
X210511190Y-57193253D01*
X210502458Y-57187902D01*
X218258081Y-57187902D01*
X218261864Y-57196678D01*
X219113176Y-58047990D01*
X219127120Y-58055604D01*
X219128953Y-58055473D01*
X219135568Y-58051222D01*
X219987068Y-57199722D01*
X219993828Y-57187342D01*
X219988101Y-57179692D01*
X219816946Y-57074807D01*
X219808151Y-57070325D01*
X219598000Y-56983278D01*
X219588615Y-56980229D01*
X219367434Y-56927127D01*
X219357687Y-56925584D01*
X219130918Y-56907737D01*
X219121058Y-56907737D01*
X218894289Y-56925584D01*
X218884542Y-56927127D01*
X218663361Y-56980229D01*
X218653976Y-56983278D01*
X218443825Y-57070325D01*
X218435030Y-57074807D01*
X218267543Y-57177444D01*
X218258081Y-57187902D01*
X210502458Y-57187902D01*
X210317171Y-57074358D01*
X210312951Y-57071772D01*
X210308381Y-57069879D01*
X210308377Y-57069877D01*
X210098155Y-56982801D01*
X210098153Y-56982800D01*
X210093582Y-56980907D01*
X209986663Y-56955238D01*
X209867512Y-56926632D01*
X209867506Y-56926631D01*
X209862699Y-56925477D01*
X209625988Y-56906847D01*
X209389277Y-56925477D01*
X209384470Y-56926631D01*
X209384464Y-56926632D01*
X209265313Y-56955238D01*
X209158394Y-56980907D01*
X209153823Y-56982800D01*
X209153821Y-56982801D01*
X208943599Y-57069877D01*
X208943595Y-57069879D01*
X208939025Y-57071772D01*
X208934805Y-57074358D01*
X208740786Y-57193253D01*
X208740780Y-57193257D01*
X208736572Y-57195836D01*
X208556019Y-57350043D01*
X208401812Y-57530596D01*
X208399233Y-57534804D01*
X208399229Y-57534810D01*
X208329396Y-57648767D01*
X208277748Y-57733049D01*
X208275855Y-57737619D01*
X208275853Y-57737623D01*
X208188782Y-57947833D01*
X208186883Y-57952418D01*
X208171706Y-58015636D01*
X208133873Y-58173223D01*
X208131453Y-58183301D01*
X208112823Y-58420012D01*
X200318275Y-58420012D01*
X200318275Y-58415070D01*
X200300428Y-58188301D01*
X200298885Y-58178554D01*
X200245783Y-57957373D01*
X200242734Y-57947988D01*
X200155687Y-57737837D01*
X200151205Y-57729042D01*
X200048568Y-57561555D01*
X200038110Y-57552093D01*
X200029334Y-57555876D01*
X199178022Y-58407188D01*
X199170408Y-58421132D01*
X198440356Y-58421132D01*
X198441592Y-58418868D01*
X198441461Y-58417035D01*
X198437210Y-58410420D01*
X197585710Y-57558920D01*
X197573330Y-57552160D01*
X197565680Y-57557887D01*
X197460795Y-57729042D01*
X197456313Y-57737837D01*
X197369266Y-57947988D01*
X197366217Y-57957373D01*
X197313115Y-58178554D01*
X197311572Y-58188301D01*
X197293725Y-58415070D01*
X197293725Y-58424930D01*
X190818777Y-58424930D01*
X190819165Y-58420000D01*
X190800535Y-58183289D01*
X190798119Y-58173223D01*
X190746260Y-57957218D01*
X190745105Y-57952406D01*
X190743211Y-57947833D01*
X190656135Y-57737611D01*
X190656133Y-57737607D01*
X190654240Y-57733037D01*
X190619408Y-57676197D01*
X190532759Y-57534798D01*
X190532755Y-57534792D01*
X190530176Y-57530584D01*
X190375969Y-57350031D01*
X190195416Y-57195824D01*
X190191208Y-57193245D01*
X190191202Y-57193241D01*
X190182470Y-57187890D01*
X197938093Y-57187890D01*
X197941876Y-57196666D01*
X198793188Y-58047978D01*
X198807132Y-58055592D01*
X198808965Y-58055461D01*
X198815580Y-58051210D01*
X199667080Y-57199710D01*
X199673840Y-57187330D01*
X199668113Y-57179680D01*
X199496958Y-57074795D01*
X199488163Y-57070313D01*
X199278012Y-56983266D01*
X199268627Y-56980217D01*
X199047446Y-56927115D01*
X199037699Y-56925572D01*
X198810930Y-56907725D01*
X198801070Y-56907725D01*
X198574301Y-56925572D01*
X198564554Y-56927115D01*
X198343373Y-56980217D01*
X198333988Y-56983266D01*
X198123837Y-57070313D01*
X198115042Y-57074795D01*
X197947555Y-57177432D01*
X197938093Y-57187890D01*
X190182470Y-57187890D01*
X189997183Y-57074346D01*
X189992963Y-57071760D01*
X189988393Y-57069867D01*
X189988389Y-57069865D01*
X189778167Y-56982789D01*
X189778165Y-56982788D01*
X189773594Y-56980895D01*
X189666725Y-56955238D01*
X189547524Y-56926620D01*
X189547518Y-56926619D01*
X189542711Y-56925465D01*
X189306000Y-56906835D01*
X189069289Y-56925465D01*
X189064482Y-56926619D01*
X189064476Y-56926620D01*
X188945275Y-56955238D01*
X188838406Y-56980895D01*
X188833835Y-56982788D01*
X188833833Y-56982789D01*
X188623611Y-57069865D01*
X188623607Y-57069867D01*
X188619037Y-57071760D01*
X188614817Y-57074346D01*
X188420798Y-57193241D01*
X188420792Y-57193245D01*
X188416584Y-57195824D01*
X188236031Y-57350031D01*
X188081824Y-57530584D01*
X188079245Y-57534792D01*
X188079241Y-57534798D01*
X187992592Y-57676197D01*
X187957760Y-57733037D01*
X187955867Y-57737607D01*
X187955865Y-57737611D01*
X187868789Y-57947833D01*
X187866895Y-57952406D01*
X187865740Y-57957218D01*
X187813882Y-58173223D01*
X187811465Y-58183289D01*
X187792835Y-58420000D01*
X179032318Y-58420000D01*
X179033193Y-58410000D01*
X179014458Y-58195858D01*
X179012433Y-58188301D01*
X178960245Y-57993533D01*
X178960244Y-57993531D01*
X178958822Y-57988223D01*
X178944442Y-57957385D01*
X178870299Y-57798385D01*
X178870297Y-57798382D01*
X178867976Y-57793404D01*
X178744681Y-57617319D01*
X178592681Y-57465319D01*
X178416597Y-57342024D01*
X178411619Y-57339703D01*
X178411616Y-57339701D01*
X178228247Y-57254195D01*
X178174962Y-57207278D01*
X178155501Y-57139000D01*
X178176043Y-57071041D01*
X178228247Y-57025805D01*
X178411616Y-56940299D01*
X178411619Y-56940297D01*
X178416597Y-56937976D01*
X178592681Y-56814681D01*
X178744681Y-56662681D01*
X178867976Y-56486596D01*
X178895162Y-56428297D01*
X178956499Y-56296759D01*
X178956500Y-56296757D01*
X178958822Y-56291777D01*
X178960856Y-56284188D01*
X179013034Y-56089457D01*
X179013034Y-56089455D01*
X179014458Y-56084142D01*
X179033193Y-55870000D01*
X179014458Y-55655858D01*
X179006511Y-55626198D01*
X178960245Y-55453533D01*
X178960244Y-55453531D01*
X178958822Y-55448223D01*
X178937198Y-55401850D01*
X178870299Y-55258385D01*
X178870297Y-55258382D01*
X178867976Y-55253404D01*
X178744681Y-55077319D01*
X178727362Y-55060000D01*
X189182835Y-55060000D01*
X189201465Y-55296711D01*
X189202619Y-55301518D01*
X189202620Y-55301524D01*
X189228022Y-55407330D01*
X189256895Y-55527594D01*
X189258788Y-55532165D01*
X189258789Y-55532167D01*
X189307822Y-55650543D01*
X189347760Y-55746963D01*
X189350346Y-55751183D01*
X189469241Y-55945202D01*
X189469245Y-55945208D01*
X189471824Y-55949416D01*
X189626031Y-56129969D01*
X189806584Y-56284176D01*
X189810792Y-56286755D01*
X189810798Y-56286759D01*
X189865387Y-56320211D01*
X190009037Y-56408240D01*
X190013607Y-56410133D01*
X190013611Y-56410135D01*
X190223833Y-56497211D01*
X190228406Y-56499105D01*
X190308609Y-56518360D01*
X190454476Y-56553380D01*
X190454482Y-56553381D01*
X190459289Y-56554535D01*
X190696000Y-56573165D01*
X190932711Y-56554535D01*
X190937518Y-56553381D01*
X190937524Y-56553380D01*
X191083391Y-56518360D01*
X191163594Y-56499105D01*
X191168167Y-56497211D01*
X191378389Y-56410135D01*
X191378393Y-56410133D01*
X191382963Y-56408240D01*
X191526613Y-56320211D01*
X191581202Y-56286759D01*
X191581208Y-56286755D01*
X191585416Y-56284176D01*
X191765969Y-56129969D01*
X191787577Y-56104669D01*
X195908001Y-56104669D01*
X195908371Y-56111490D01*
X195913895Y-56162352D01*
X195917521Y-56177604D01*
X195962676Y-56298054D01*
X195971214Y-56313649D01*
X196047715Y-56415724D01*
X196060276Y-56428285D01*
X196162351Y-56504786D01*
X196177946Y-56513324D01*
X196298394Y-56558478D01*
X196313649Y-56562105D01*
X196364514Y-56567631D01*
X196371328Y-56568000D01*
X197143885Y-56568000D01*
X197159124Y-56563525D01*
X197160329Y-56562135D01*
X197162000Y-56554452D01*
X197162000Y-56549884D01*
X197670000Y-56549884D01*
X197674475Y-56565123D01*
X197675865Y-56566328D01*
X197683548Y-56567999D01*
X198460669Y-56567999D01*
X198467490Y-56567629D01*
X198518352Y-56562105D01*
X198533604Y-56558479D01*
X198654054Y-56513324D01*
X198669649Y-56504786D01*
X198771724Y-56428285D01*
X198784285Y-56415724D01*
X198860786Y-56313649D01*
X198869324Y-56298054D01*
X198914478Y-56177606D01*
X198918105Y-56162351D01*
X198923631Y-56111486D01*
X198924000Y-56104672D01*
X198924000Y-55332115D01*
X198919525Y-55316876D01*
X198918135Y-55315671D01*
X198910452Y-55314000D01*
X197688115Y-55314000D01*
X197672876Y-55318475D01*
X197671671Y-55319865D01*
X197670000Y-55327548D01*
X197670000Y-56549884D01*
X197162000Y-56549884D01*
X197162000Y-55332115D01*
X197157525Y-55316876D01*
X197156135Y-55315671D01*
X197148452Y-55314000D01*
X195926116Y-55314000D01*
X195910877Y-55318475D01*
X195909672Y-55319865D01*
X195908001Y-55327548D01*
X195908001Y-56104669D01*
X191787577Y-56104669D01*
X191920176Y-55949416D01*
X191922755Y-55945208D01*
X191922759Y-55945202D01*
X192041654Y-55751183D01*
X192044240Y-55746963D01*
X192084179Y-55650543D01*
X192133211Y-55532167D01*
X192133212Y-55532165D01*
X192135105Y-55527594D01*
X192163978Y-55407330D01*
X192189380Y-55301524D01*
X192189381Y-55301518D01*
X192190535Y-55296711D01*
X192209164Y-55060012D01*
X209502823Y-55060012D01*
X209521453Y-55296723D01*
X209522606Y-55301524D01*
X209522608Y-55301536D01*
X209545416Y-55396535D01*
X209576883Y-55527606D01*
X209578776Y-55532177D01*
X209578777Y-55532179D01*
X209616107Y-55622301D01*
X209667748Y-55746975D01*
X209670334Y-55751195D01*
X209789229Y-55945214D01*
X209789233Y-55945220D01*
X209791812Y-55949428D01*
X209946019Y-56129981D01*
X210126572Y-56284188D01*
X210130780Y-56286767D01*
X210130786Y-56286771D01*
X210322349Y-56404161D01*
X210329025Y-56408252D01*
X210333595Y-56410145D01*
X210333599Y-56410147D01*
X210543792Y-56497211D01*
X210548394Y-56499117D01*
X210586386Y-56508238D01*
X210774464Y-56553392D01*
X210774470Y-56553393D01*
X210779277Y-56554547D01*
X211015988Y-56573177D01*
X211252699Y-56554547D01*
X211257506Y-56553393D01*
X211257512Y-56553392D01*
X211445590Y-56508238D01*
X211483582Y-56499117D01*
X211488184Y-56497211D01*
X211698377Y-56410147D01*
X211698381Y-56410145D01*
X211702951Y-56408252D01*
X211709627Y-56404161D01*
X211901190Y-56286771D01*
X211901196Y-56286767D01*
X211905404Y-56284188D01*
X212085957Y-56129981D01*
X212107565Y-56104681D01*
X216227989Y-56104681D01*
X216228359Y-56111502D01*
X216233883Y-56162364D01*
X216237509Y-56177616D01*
X216282664Y-56298066D01*
X216291202Y-56313661D01*
X216367703Y-56415736D01*
X216380264Y-56428297D01*
X216482339Y-56504798D01*
X216497934Y-56513336D01*
X216618382Y-56558490D01*
X216633637Y-56562117D01*
X216684502Y-56567643D01*
X216691316Y-56568012D01*
X217463873Y-56568012D01*
X217479112Y-56563537D01*
X217480317Y-56562147D01*
X217481988Y-56554464D01*
X217481988Y-56549896D01*
X217989988Y-56549896D01*
X217994463Y-56565135D01*
X217995853Y-56566340D01*
X218003536Y-56568011D01*
X218780657Y-56568011D01*
X218787478Y-56567641D01*
X218838340Y-56562117D01*
X218853592Y-56558491D01*
X218974042Y-56513336D01*
X218989637Y-56504798D01*
X219091712Y-56428297D01*
X219104273Y-56415736D01*
X219180774Y-56313661D01*
X219189312Y-56298066D01*
X219234466Y-56177618D01*
X219238093Y-56162363D01*
X219243619Y-56111498D01*
X219243988Y-56104684D01*
X219243988Y-55332127D01*
X219239513Y-55316888D01*
X219238123Y-55315683D01*
X219230440Y-55314012D01*
X218008103Y-55314012D01*
X217992864Y-55318487D01*
X217991659Y-55319877D01*
X217989988Y-55327560D01*
X217989988Y-56549896D01*
X217481988Y-56549896D01*
X217481988Y-55332127D01*
X217477513Y-55316888D01*
X217476123Y-55315683D01*
X217468440Y-55314012D01*
X216246104Y-55314012D01*
X216230865Y-55318487D01*
X216229660Y-55319877D01*
X216227989Y-55327560D01*
X216227989Y-56104681D01*
X212107565Y-56104681D01*
X212240164Y-55949428D01*
X212242743Y-55945220D01*
X212242747Y-55945214D01*
X212361642Y-55751195D01*
X212364228Y-55746975D01*
X212415870Y-55622301D01*
X212453199Y-55532179D01*
X212453200Y-55532177D01*
X212455093Y-55527606D01*
X212486560Y-55396535D01*
X212509368Y-55301536D01*
X212509370Y-55301524D01*
X212510523Y-55296723D01*
X212529153Y-55060012D01*
X212510523Y-54823301D01*
X212506373Y-54806012D01*
X212502024Y-54787897D01*
X216227988Y-54787897D01*
X216232463Y-54803136D01*
X216233853Y-54804341D01*
X216241536Y-54806012D01*
X217463873Y-54806012D01*
X217479112Y-54801537D01*
X217480317Y-54800147D01*
X217481988Y-54792464D01*
X217481988Y-54787897D01*
X217989988Y-54787897D01*
X217994463Y-54803136D01*
X217995853Y-54804341D01*
X218003536Y-54806012D01*
X219225872Y-54806012D01*
X219241111Y-54801537D01*
X219242316Y-54800147D01*
X219243987Y-54792464D01*
X219243987Y-54015343D01*
X219243617Y-54008522D01*
X219238093Y-53957660D01*
X219234467Y-53942408D01*
X219189312Y-53821958D01*
X219180774Y-53806363D01*
X219104273Y-53704288D01*
X219091712Y-53691727D01*
X218989637Y-53615226D01*
X218974042Y-53606688D01*
X218853594Y-53561534D01*
X218838339Y-53557907D01*
X218787474Y-53552381D01*
X218780660Y-53552012D01*
X218008103Y-53552012D01*
X217992864Y-53556487D01*
X217991659Y-53557877D01*
X217989988Y-53565560D01*
X217989988Y-54787897D01*
X217481988Y-54787897D01*
X217481988Y-53570128D01*
X217477513Y-53554889D01*
X217476123Y-53553684D01*
X217468440Y-53552013D01*
X216691319Y-53552013D01*
X216684498Y-53552383D01*
X216633636Y-53557907D01*
X216618384Y-53561533D01*
X216497934Y-53606688D01*
X216482339Y-53615226D01*
X216380264Y-53691727D01*
X216367703Y-53704288D01*
X216291202Y-53806363D01*
X216282664Y-53821958D01*
X216237510Y-53942406D01*
X216233883Y-53957661D01*
X216228357Y-54008526D01*
X216227988Y-54015340D01*
X216227988Y-54787897D01*
X212502024Y-54787897D01*
X212456248Y-54597230D01*
X212455093Y-54592418D01*
X212452939Y-54587218D01*
X212366123Y-54377623D01*
X212366121Y-54377619D01*
X212364228Y-54373049D01*
X212355969Y-54359572D01*
X212242747Y-54174810D01*
X212242743Y-54174804D01*
X212240164Y-54170596D01*
X212085957Y-53990043D01*
X212079786Y-53984772D01*
X212048041Y-53957660D01*
X211905404Y-53835836D01*
X211901196Y-53833257D01*
X211901190Y-53833253D01*
X211707171Y-53714358D01*
X211702951Y-53711772D01*
X211698381Y-53709879D01*
X211698377Y-53709877D01*
X211488155Y-53622801D01*
X211488153Y-53622800D01*
X211483582Y-53620907D01*
X211403379Y-53601652D01*
X211257512Y-53566632D01*
X211257506Y-53566631D01*
X211252699Y-53565477D01*
X211015988Y-53546847D01*
X210779277Y-53565477D01*
X210774470Y-53566631D01*
X210774464Y-53566632D01*
X210628597Y-53601652D01*
X210548394Y-53620907D01*
X210543823Y-53622800D01*
X210543821Y-53622801D01*
X210333599Y-53709877D01*
X210333595Y-53709879D01*
X210329025Y-53711772D01*
X210324805Y-53714358D01*
X210130786Y-53833253D01*
X210130780Y-53833257D01*
X210126572Y-53835836D01*
X209983935Y-53957660D01*
X209952191Y-53984772D01*
X209946019Y-53990043D01*
X209791812Y-54170596D01*
X209789233Y-54174804D01*
X209789229Y-54174810D01*
X209676007Y-54359572D01*
X209667748Y-54373049D01*
X209665855Y-54377619D01*
X209665853Y-54377623D01*
X209579037Y-54587218D01*
X209576883Y-54592418D01*
X209575728Y-54597230D01*
X209525604Y-54806012D01*
X209521453Y-54823301D01*
X209502823Y-55060012D01*
X192209164Y-55060012D01*
X192209165Y-55060000D01*
X192190535Y-54823289D01*
X192186388Y-54806012D01*
X192182036Y-54787885D01*
X195908000Y-54787885D01*
X195912475Y-54803124D01*
X195913865Y-54804329D01*
X195921548Y-54806000D01*
X197143885Y-54806000D01*
X197159124Y-54801525D01*
X197160329Y-54800135D01*
X197162000Y-54792452D01*
X197162000Y-54787885D01*
X197670000Y-54787885D01*
X197674475Y-54803124D01*
X197675865Y-54804329D01*
X197683548Y-54806000D01*
X198905884Y-54806000D01*
X198921123Y-54801525D01*
X198922328Y-54800135D01*
X198923999Y-54792452D01*
X198923999Y-54015331D01*
X198923629Y-54008510D01*
X198918105Y-53957648D01*
X198914479Y-53942396D01*
X198869324Y-53821946D01*
X198860786Y-53806351D01*
X198784285Y-53704276D01*
X198771724Y-53691715D01*
X198669649Y-53615214D01*
X198654054Y-53606676D01*
X198533606Y-53561522D01*
X198518351Y-53557895D01*
X198467486Y-53552369D01*
X198460672Y-53552000D01*
X197688115Y-53552000D01*
X197672876Y-53556475D01*
X197671671Y-53557865D01*
X197670000Y-53565548D01*
X197670000Y-54787885D01*
X197162000Y-54787885D01*
X197162000Y-53570116D01*
X197157525Y-53554877D01*
X197156135Y-53553672D01*
X197148452Y-53552001D01*
X196371331Y-53552001D01*
X196364510Y-53552371D01*
X196313648Y-53557895D01*
X196298396Y-53561521D01*
X196177946Y-53606676D01*
X196162351Y-53615214D01*
X196060276Y-53691715D01*
X196047715Y-53704276D01*
X195971214Y-53806351D01*
X195962676Y-53821946D01*
X195917522Y-53942394D01*
X195913895Y-53957649D01*
X195908369Y-54008514D01*
X195908000Y-54015328D01*
X195908000Y-54787885D01*
X192182036Y-54787885D01*
X192140415Y-54614525D01*
X192135105Y-54592406D01*
X192132956Y-54587218D01*
X192046135Y-54377611D01*
X192046133Y-54377607D01*
X192044240Y-54373037D01*
X192028110Y-54346715D01*
X191922759Y-54174798D01*
X191922755Y-54174792D01*
X191920176Y-54170584D01*
X191765969Y-53990031D01*
X191585416Y-53835824D01*
X191581208Y-53833245D01*
X191581202Y-53833241D01*
X191387183Y-53714346D01*
X191382963Y-53711760D01*
X191378393Y-53709867D01*
X191378389Y-53709865D01*
X191168167Y-53622789D01*
X191168165Y-53622788D01*
X191163594Y-53620895D01*
X191083391Y-53601640D01*
X190937524Y-53566620D01*
X190937518Y-53566619D01*
X190932711Y-53565465D01*
X190696000Y-53546835D01*
X190459289Y-53565465D01*
X190454482Y-53566619D01*
X190454476Y-53566620D01*
X190308609Y-53601640D01*
X190228406Y-53620895D01*
X190223835Y-53622788D01*
X190223833Y-53622789D01*
X190013611Y-53709865D01*
X190013607Y-53709867D01*
X190009037Y-53711760D01*
X190004817Y-53714346D01*
X189810798Y-53833241D01*
X189810792Y-53833245D01*
X189806584Y-53835824D01*
X189626031Y-53990031D01*
X189471824Y-54170584D01*
X189469245Y-54174792D01*
X189469241Y-54174798D01*
X189363890Y-54346715D01*
X189347760Y-54373037D01*
X189345867Y-54377607D01*
X189345865Y-54377611D01*
X189259044Y-54587218D01*
X189256895Y-54592406D01*
X189251585Y-54614525D01*
X189205613Y-54806012D01*
X189201465Y-54823289D01*
X189182835Y-55060000D01*
X178727362Y-55060000D01*
X178592681Y-54925319D01*
X178416597Y-54802024D01*
X178411619Y-54799703D01*
X178411616Y-54799701D01*
X178227656Y-54713919D01*
X178174371Y-54667002D01*
X178154910Y-54598724D01*
X178175452Y-54530764D01*
X178227656Y-54485529D01*
X178411359Y-54399868D01*
X178420854Y-54394385D01*
X178455607Y-54370051D01*
X178463983Y-54359572D01*
X178456916Y-54346127D01*
X177812811Y-53702021D01*
X177798868Y-53694408D01*
X177797034Y-53694539D01*
X177790420Y-53698790D01*
X177142360Y-54346851D01*
X177135933Y-54358621D01*
X177145227Y-54370635D01*
X177179146Y-54394385D01*
X177188641Y-54399868D01*
X177372344Y-54485529D01*
X177425629Y-54532446D01*
X177445090Y-54600723D01*
X177424548Y-54668683D01*
X177372344Y-54713919D01*
X177188385Y-54799701D01*
X177188382Y-54799703D01*
X177183404Y-54802024D01*
X177007319Y-54925319D01*
X176855319Y-55077319D01*
X176732024Y-55253404D01*
X176729703Y-55258382D01*
X176729701Y-55258385D01*
X176662802Y-55401850D01*
X176641178Y-55448223D01*
X176639756Y-55453531D01*
X176639755Y-55453533D01*
X176593489Y-55626198D01*
X176585542Y-55655858D01*
X176566807Y-55870000D01*
X176585542Y-56084142D01*
X176586966Y-56089455D01*
X176586966Y-56089457D01*
X176639145Y-56284188D01*
X176641178Y-56291777D01*
X176643500Y-56296757D01*
X176643501Y-56296759D01*
X176704839Y-56428297D01*
X176732024Y-56486596D01*
X176855319Y-56662681D01*
X177007319Y-56814681D01*
X177183403Y-56937976D01*
X177188381Y-56940297D01*
X177188384Y-56940299D01*
X177371753Y-57025805D01*
X177425038Y-57072722D01*
X177444499Y-57141000D01*
X177423957Y-57208959D01*
X177371753Y-57254195D01*
X177188385Y-57339701D01*
X177188382Y-57339703D01*
X177183404Y-57342024D01*
X177007319Y-57465319D01*
X176855319Y-57617319D01*
X176732024Y-57793404D01*
X176729703Y-57798382D01*
X176729701Y-57798385D01*
X176655558Y-57957385D01*
X176641178Y-57988223D01*
X176639756Y-57993531D01*
X176639755Y-57993533D01*
X176587567Y-58188301D01*
X176585542Y-58195858D01*
X176566807Y-58410000D01*
X172479591Y-58410000D01*
X172532933Y-58395707D01*
X172532935Y-58395706D01*
X172538243Y-58394284D01*
X172543225Y-58391961D01*
X172740762Y-58299849D01*
X172740767Y-58299846D01*
X172745749Y-58297523D01*
X172866153Y-58213215D01*
X172928789Y-58169357D01*
X172928792Y-58169355D01*
X172933300Y-58166198D01*
X173095198Y-58004300D01*
X173106456Y-57988223D01*
X173180477Y-57882509D01*
X173226523Y-57816749D01*
X173228846Y-57811767D01*
X173228849Y-57811762D01*
X173320961Y-57614225D01*
X173320961Y-57614224D01*
X173323284Y-57609243D01*
X173327581Y-57593209D01*
X173381119Y-57393402D01*
X173381119Y-57393400D01*
X173382543Y-57388087D01*
X173402498Y-57160000D01*
X173382543Y-56931913D01*
X173380844Y-56925572D01*
X173324707Y-56716067D01*
X173324706Y-56716065D01*
X173323284Y-56710757D01*
X173320961Y-56705775D01*
X173228849Y-56508238D01*
X173228846Y-56508233D01*
X173226523Y-56503251D01*
X173095198Y-56315700D01*
X172933300Y-56153802D01*
X172928792Y-56150645D01*
X172928789Y-56150643D01*
X172767588Y-56037769D01*
X172745749Y-56022477D01*
X172740767Y-56020154D01*
X172740762Y-56020151D01*
X172706543Y-56004195D01*
X172653258Y-55957278D01*
X172633797Y-55889001D01*
X172654339Y-55821041D01*
X172706543Y-55775805D01*
X172740762Y-55759849D01*
X172740767Y-55759846D01*
X172745749Y-55757523D01*
X172883115Y-55661338D01*
X172928789Y-55629357D01*
X172928792Y-55629355D01*
X172933300Y-55626198D01*
X173095198Y-55464300D01*
X173106456Y-55448223D01*
X173187755Y-55332115D01*
X173226523Y-55276749D01*
X173228846Y-55271767D01*
X173228849Y-55271762D01*
X173320961Y-55074225D01*
X173320961Y-55074224D01*
X173323284Y-55069243D01*
X173325758Y-55060012D01*
X173381119Y-54853402D01*
X173381119Y-54853400D01*
X173382543Y-54848087D01*
X173402498Y-54620000D01*
X173382543Y-54391913D01*
X173378711Y-54377611D01*
X173324707Y-54176067D01*
X173324706Y-54176065D01*
X173323284Y-54170757D01*
X173320961Y-54165775D01*
X173228849Y-53968238D01*
X173228846Y-53968233D01*
X173226523Y-53963251D01*
X173137306Y-53835836D01*
X173098357Y-53780211D01*
X173098355Y-53780208D01*
X173095198Y-53775700D01*
X172933300Y-53613802D01*
X172928792Y-53610645D01*
X172928789Y-53610643D01*
X172825865Y-53538575D01*
X172745749Y-53482477D01*
X172740767Y-53480154D01*
X172740762Y-53480151D01*
X172706543Y-53464195D01*
X172653258Y-53417278D01*
X172633797Y-53349001D01*
X172637885Y-53335475D01*
X176567788Y-53335475D01*
X176585557Y-53538575D01*
X176587460Y-53549368D01*
X176640226Y-53746295D01*
X176643972Y-53756587D01*
X176730135Y-53941364D01*
X176735613Y-53950850D01*
X176759949Y-53985607D01*
X176770428Y-53993983D01*
X176783872Y-53986917D01*
X177427979Y-53342811D01*
X177434356Y-53331132D01*
X178164408Y-53331132D01*
X178164539Y-53332966D01*
X178168790Y-53339580D01*
X178816851Y-53987640D01*
X178828621Y-53994067D01*
X178840635Y-53984772D01*
X178864387Y-53950850D01*
X178869865Y-53941364D01*
X178956028Y-53756587D01*
X178959774Y-53746295D01*
X179012540Y-53549368D01*
X179014443Y-53538575D01*
X179032212Y-53335475D01*
X179032212Y-53324525D01*
X179014443Y-53121425D01*
X179012540Y-53110632D01*
X178959774Y-52913705D01*
X178956028Y-52903413D01*
X178869865Y-52718636D01*
X178864387Y-52709150D01*
X178840051Y-52674393D01*
X178829572Y-52666017D01*
X178816128Y-52673083D01*
X178172021Y-53317189D01*
X178164408Y-53331132D01*
X177434356Y-53331132D01*
X177435592Y-53328868D01*
X177435461Y-53327034D01*
X177431210Y-53320420D01*
X176783149Y-52672360D01*
X176771379Y-52665933D01*
X176759365Y-52675228D01*
X176735613Y-52709150D01*
X176730135Y-52718636D01*
X176643972Y-52903413D01*
X176640226Y-52913705D01*
X176587460Y-53110632D01*
X176585557Y-53121425D01*
X176567788Y-53324525D01*
X176567788Y-53335475D01*
X172637885Y-53335475D01*
X172654339Y-53281041D01*
X172706543Y-53235805D01*
X172740762Y-53219849D01*
X172740767Y-53219846D01*
X172745749Y-53217523D01*
X172882991Y-53121425D01*
X172928789Y-53089357D01*
X172928792Y-53089355D01*
X172933300Y-53086198D01*
X173095198Y-52924300D01*
X173104489Y-52911032D01*
X173165450Y-52823970D01*
X173226523Y-52736749D01*
X173228846Y-52731767D01*
X173228849Y-52731762D01*
X173320961Y-52534225D01*
X173320961Y-52534224D01*
X173323284Y-52529243D01*
X173324847Y-52523412D01*
X173381119Y-52313402D01*
X173381119Y-52313400D01*
X173382543Y-52308087D01*
X173383213Y-52300428D01*
X177136017Y-52300428D01*
X177143083Y-52313872D01*
X177787189Y-52957979D01*
X177801132Y-52965592D01*
X177802966Y-52965461D01*
X177809580Y-52961210D01*
X178457640Y-52313149D01*
X178464067Y-52301379D01*
X178454773Y-52289365D01*
X178420854Y-52265615D01*
X178411359Y-52260132D01*
X178226587Y-52173972D01*
X178216295Y-52170226D01*
X178019368Y-52117460D01*
X178008575Y-52115557D01*
X177805475Y-52097788D01*
X177794525Y-52097788D01*
X177591425Y-52115557D01*
X177580632Y-52117460D01*
X177383705Y-52170226D01*
X177373413Y-52173972D01*
X177188636Y-52260135D01*
X177179150Y-52265613D01*
X177144393Y-52289949D01*
X177136017Y-52300428D01*
X173383213Y-52300428D01*
X173402498Y-52080000D01*
X173382543Y-51851913D01*
X173323284Y-51630757D01*
X173291121Y-51561783D01*
X173228849Y-51428238D01*
X173228846Y-51428233D01*
X173226523Y-51423251D01*
X173095198Y-51235700D01*
X172933300Y-51073802D01*
X172928792Y-51070645D01*
X172928789Y-51070643D01*
X172850611Y-51015902D01*
X172745749Y-50942477D01*
X172740767Y-50940154D01*
X172740762Y-50940151D01*
X172705951Y-50923919D01*
X172652666Y-50877002D01*
X172633205Y-50808725D01*
X172653747Y-50740765D01*
X172705951Y-50695529D01*
X172740511Y-50679414D01*
X172750007Y-50673931D01*
X172928467Y-50548972D01*
X172936875Y-50541916D01*
X173090916Y-50387875D01*
X173097972Y-50379467D01*
X173222931Y-50201007D01*
X173228414Y-50191511D01*
X173320490Y-49994053D01*
X173324236Y-49983761D01*
X173370394Y-49811497D01*
X173370058Y-49797401D01*
X173362116Y-49794000D01*
X170021033Y-49794000D01*
X170007502Y-49797973D01*
X170006273Y-49806522D01*
X170053764Y-49983761D01*
X170057510Y-49994053D01*
X170149586Y-50191511D01*
X170155069Y-50201007D01*
X170280028Y-50379467D01*
X170287084Y-50387875D01*
X170441125Y-50541916D01*
X170449533Y-50548972D01*
X170627993Y-50673931D01*
X170637489Y-50679414D01*
X170672049Y-50695529D01*
X170725334Y-50742446D01*
X170744795Y-50810723D01*
X170724253Y-50878683D01*
X170672049Y-50923919D01*
X170637238Y-50940151D01*
X170637233Y-50940154D01*
X170632251Y-50942477D01*
X170527389Y-51015902D01*
X170449211Y-51070643D01*
X170449208Y-51070645D01*
X170444700Y-51073802D01*
X170282802Y-51235700D01*
X170151477Y-51423251D01*
X170149154Y-51428233D01*
X170149151Y-51428238D01*
X170086879Y-51561783D01*
X170054716Y-51630757D01*
X169995457Y-51851913D01*
X169975502Y-52080000D01*
X169995457Y-52308087D01*
X169996881Y-52313400D01*
X169996881Y-52313402D01*
X170053154Y-52523412D01*
X170054716Y-52529243D01*
X170057039Y-52534224D01*
X170057039Y-52534225D01*
X170149151Y-52731762D01*
X170149154Y-52731767D01*
X170151477Y-52736749D01*
X170212550Y-52823970D01*
X170273512Y-52911032D01*
X170282802Y-52924300D01*
X170444700Y-53086198D01*
X170449208Y-53089355D01*
X170449211Y-53089357D01*
X170495009Y-53121425D01*
X170632251Y-53217523D01*
X170637233Y-53219846D01*
X170637238Y-53219849D01*
X170671457Y-53235805D01*
X170724742Y-53282722D01*
X170744203Y-53350999D01*
X170723661Y-53418959D01*
X170671457Y-53464195D01*
X170637238Y-53480151D01*
X170637233Y-53480154D01*
X170632251Y-53482477D01*
X170552135Y-53538575D01*
X170449211Y-53610643D01*
X170449208Y-53610645D01*
X170444700Y-53613802D01*
X170282802Y-53775700D01*
X170279645Y-53780208D01*
X170279643Y-53780211D01*
X170240694Y-53835836D01*
X170151477Y-53963251D01*
X170149154Y-53968233D01*
X170149151Y-53968238D01*
X170057039Y-54165775D01*
X170054716Y-54170757D01*
X170053294Y-54176065D01*
X170053293Y-54176067D01*
X169999289Y-54377611D01*
X169995457Y-54391913D01*
X169975502Y-54620000D01*
X169995457Y-54848087D01*
X169996881Y-54853400D01*
X169996881Y-54853402D01*
X170052243Y-55060012D01*
X170054716Y-55069243D01*
X170057039Y-55074224D01*
X170057039Y-55074225D01*
X170149151Y-55271762D01*
X170149154Y-55271767D01*
X170151477Y-55276749D01*
X170190245Y-55332115D01*
X170271545Y-55448223D01*
X170282802Y-55464300D01*
X170444700Y-55626198D01*
X170449208Y-55629355D01*
X170449211Y-55629357D01*
X170494885Y-55661338D01*
X170632251Y-55757523D01*
X170637233Y-55759846D01*
X170637238Y-55759849D01*
X170671457Y-55775805D01*
X170724742Y-55822722D01*
X170744203Y-55890999D01*
X170723661Y-55958959D01*
X170671457Y-56004195D01*
X170637238Y-56020151D01*
X170637233Y-56020154D01*
X170632251Y-56022477D01*
X170610412Y-56037769D01*
X170449211Y-56150643D01*
X170449208Y-56150645D01*
X170444700Y-56153802D01*
X170282802Y-56315700D01*
X170151477Y-56503251D01*
X170149154Y-56508233D01*
X170149151Y-56508238D01*
X170057039Y-56705775D01*
X170054716Y-56710757D01*
X170053294Y-56716065D01*
X170053293Y-56716067D01*
X169997156Y-56925572D01*
X169995457Y-56931913D01*
X169975502Y-57160000D01*
X168275500Y-57160000D01*
X168275500Y-52911032D01*
X168276030Y-52899793D01*
X168277709Y-52892281D01*
X168275562Y-52823969D01*
X168275500Y-52820012D01*
X168275500Y-52792017D01*
X168274992Y-52787994D01*
X168274059Y-52776152D01*
X168273842Y-52769229D01*
X168272665Y-52731795D01*
X168266987Y-52712251D01*
X168262977Y-52692888D01*
X168261420Y-52680560D01*
X168261420Y-52680558D01*
X168260427Y-52672701D01*
X168257511Y-52665337D01*
X168257510Y-52665332D01*
X168244093Y-52631444D01*
X168240248Y-52620215D01*
X168230080Y-52585219D01*
X168227869Y-52577607D01*
X168217510Y-52560091D01*
X168208813Y-52542341D01*
X168201319Y-52523412D01*
X168175238Y-52487514D01*
X168168722Y-52477594D01*
X168150173Y-52446229D01*
X168150171Y-52446226D01*
X168146135Y-52439402D01*
X168131747Y-52425014D01*
X168118906Y-52409980D01*
X168111602Y-52399927D01*
X168106942Y-52393513D01*
X168072750Y-52365227D01*
X168063971Y-52357238D01*
X167393250Y-51686517D01*
X167385674Y-51678191D01*
X167381553Y-51671697D01*
X167331734Y-51624914D01*
X167328893Y-51622160D01*
X167309094Y-51602361D01*
X167305969Y-51599937D01*
X167305960Y-51599929D01*
X167305874Y-51599863D01*
X167296849Y-51592155D01*
X167270285Y-51567210D01*
X167264506Y-51561783D01*
X167246669Y-51551977D01*
X167230153Y-51541127D01*
X167214067Y-51528650D01*
X167173334Y-51511024D01*
X167162686Y-51505807D01*
X167151058Y-51499415D01*
X167123803Y-51484431D01*
X167116128Y-51482460D01*
X167116122Y-51482458D01*
X167104089Y-51479369D01*
X167085387Y-51472966D01*
X167066708Y-51464883D01*
X167032872Y-51459524D01*
X167022873Y-51457940D01*
X167011260Y-51455535D01*
X166968282Y-51444500D01*
X166947935Y-51444500D01*
X166928224Y-51442949D01*
X166915950Y-51441005D01*
X166908121Y-51439765D01*
X166900229Y-51440511D01*
X166863944Y-51443941D01*
X166852086Y-51444500D01*
X165686993Y-51444500D01*
X165618872Y-51424498D01*
X165583780Y-51390771D01*
X165478357Y-51240211D01*
X165478355Y-51240208D01*
X165475198Y-51235700D01*
X165313300Y-51073802D01*
X165308789Y-51070643D01*
X165304576Y-51067108D01*
X165305527Y-51065974D01*
X165265529Y-51015929D01*
X165258224Y-50945310D01*
X165290258Y-50881951D01*
X165351462Y-50845970D01*
X165368517Y-50842918D01*
X165379316Y-50841745D01*
X165515705Y-50790615D01*
X165632261Y-50703261D01*
X165719615Y-50586705D01*
X165770745Y-50450316D01*
X165777500Y-50388134D01*
X165777500Y-49268503D01*
X170007606Y-49268503D01*
X170007942Y-49282599D01*
X170015884Y-49286000D01*
X171416885Y-49286000D01*
X171432124Y-49281525D01*
X171433329Y-49280135D01*
X171435000Y-49272452D01*
X171435000Y-49267885D01*
X171943000Y-49267885D01*
X171947475Y-49283124D01*
X171948865Y-49284329D01*
X171956548Y-49286000D01*
X173356967Y-49286000D01*
X173370498Y-49282027D01*
X173371727Y-49273478D01*
X173324236Y-49096239D01*
X173320490Y-49085947D01*
X173228414Y-48888489D01*
X173222931Y-48878993D01*
X173097972Y-48700533D01*
X173090916Y-48692125D01*
X172936875Y-48538084D01*
X172928467Y-48531028D01*
X172750007Y-48406069D01*
X172740511Y-48400586D01*
X172543053Y-48308510D01*
X172532761Y-48304764D01*
X172322312Y-48248375D01*
X172311519Y-48246472D01*
X172148830Y-48232238D01*
X172143365Y-48232000D01*
X171961115Y-48232000D01*
X171945876Y-48236475D01*
X171944671Y-48237865D01*
X171943000Y-48245548D01*
X171943000Y-49267885D01*
X171435000Y-49267885D01*
X171435000Y-48250115D01*
X171430525Y-48234876D01*
X171429135Y-48233671D01*
X171421452Y-48232000D01*
X171234635Y-48232000D01*
X171229170Y-48232238D01*
X171066481Y-48246472D01*
X171055688Y-48248375D01*
X170845239Y-48304764D01*
X170834947Y-48308510D01*
X170637489Y-48400586D01*
X170627993Y-48406069D01*
X170449533Y-48531028D01*
X170441125Y-48538084D01*
X170287084Y-48692125D01*
X170280028Y-48700533D01*
X170155069Y-48878993D01*
X170149586Y-48888489D01*
X170057510Y-49085947D01*
X170053764Y-49096239D01*
X170007606Y-49268503D01*
X165777500Y-49268503D01*
X165777500Y-48691866D01*
X165770745Y-48629684D01*
X165719615Y-48493295D01*
X165632261Y-48376739D01*
X165515705Y-48289385D01*
X165379316Y-48238255D01*
X165317134Y-48231500D01*
X162820866Y-48231500D01*
X162758684Y-48238255D01*
X162622295Y-48289385D01*
X162505739Y-48376739D01*
X162418385Y-48493295D01*
X162367255Y-48629684D01*
X162360500Y-48691866D01*
X162360500Y-50388134D01*
X162367255Y-50450316D01*
X162418385Y-50586705D01*
X162505739Y-50703261D01*
X162622295Y-50790615D01*
X162758684Y-50841745D01*
X162769474Y-50842917D01*
X162771606Y-50843803D01*
X162774222Y-50844425D01*
X162774121Y-50844848D01*
X162835035Y-50870155D01*
X162875463Y-50928517D01*
X162877922Y-50999471D01*
X162841629Y-51060490D01*
X162832969Y-51067489D01*
X162829207Y-51070646D01*
X162824700Y-51073802D01*
X162662802Y-51235700D01*
X162531477Y-51423251D01*
X162529154Y-51428233D01*
X162529151Y-51428238D01*
X162466879Y-51561783D01*
X162434716Y-51630757D01*
X162375457Y-51851913D01*
X162355502Y-52080000D01*
X162375457Y-52308087D01*
X162376881Y-52313400D01*
X162376881Y-52313402D01*
X162433154Y-52523412D01*
X162434716Y-52529243D01*
X162437039Y-52534224D01*
X162437039Y-52534225D01*
X162529151Y-52731762D01*
X162529154Y-52731767D01*
X162531477Y-52736749D01*
X162592550Y-52823970D01*
X162653512Y-52911032D01*
X162662802Y-52924300D01*
X162824700Y-53086198D01*
X162829208Y-53089355D01*
X162829211Y-53089357D01*
X162875009Y-53121425D01*
X163012251Y-53217523D01*
X163017233Y-53219846D01*
X163017238Y-53219849D01*
X163051457Y-53235805D01*
X163104742Y-53282722D01*
X163124203Y-53350999D01*
X163103661Y-53418959D01*
X163051457Y-53464195D01*
X163017238Y-53480151D01*
X163017233Y-53480154D01*
X163012251Y-53482477D01*
X162932135Y-53538575D01*
X162829211Y-53610643D01*
X162829208Y-53610645D01*
X162824700Y-53613802D01*
X162662802Y-53775700D01*
X162659645Y-53780208D01*
X162659643Y-53780211D01*
X162620694Y-53835836D01*
X162531477Y-53963251D01*
X162529154Y-53968233D01*
X162529151Y-53968238D01*
X162437039Y-54165775D01*
X162434716Y-54170757D01*
X162433294Y-54176065D01*
X162433293Y-54176067D01*
X162379289Y-54377611D01*
X162375457Y-54391913D01*
X162355502Y-54620000D01*
X162375457Y-54848087D01*
X162376881Y-54853400D01*
X162376881Y-54853402D01*
X162432243Y-55060012D01*
X162434716Y-55069243D01*
X162437039Y-55074224D01*
X162437039Y-55074225D01*
X162529151Y-55271762D01*
X162529154Y-55271767D01*
X162531477Y-55276749D01*
X162570245Y-55332115D01*
X162651545Y-55448223D01*
X162662802Y-55464300D01*
X162824700Y-55626198D01*
X162829208Y-55629355D01*
X162829211Y-55629357D01*
X162874885Y-55661338D01*
X163012251Y-55757523D01*
X163017233Y-55759846D01*
X163017238Y-55759849D01*
X163051457Y-55775805D01*
X163104742Y-55822722D01*
X163124203Y-55890999D01*
X163103661Y-55958959D01*
X163051457Y-56004195D01*
X163017238Y-56020151D01*
X163017233Y-56020154D01*
X163012251Y-56022477D01*
X162990412Y-56037769D01*
X162829211Y-56150643D01*
X162829208Y-56150645D01*
X162824700Y-56153802D01*
X162662802Y-56315700D01*
X162531477Y-56503251D01*
X162529154Y-56508233D01*
X162529151Y-56508238D01*
X162437039Y-56705775D01*
X162434716Y-56710757D01*
X162433294Y-56716065D01*
X162433293Y-56716067D01*
X162377156Y-56925572D01*
X162375457Y-56931913D01*
X162355502Y-57160000D01*
X158961401Y-57160000D01*
X158858597Y-57088016D01*
X158853619Y-57085695D01*
X158853616Y-57085693D01*
X158670247Y-57000187D01*
X158616962Y-56953270D01*
X158597501Y-56884992D01*
X158618043Y-56817033D01*
X158670247Y-56771797D01*
X158853616Y-56686291D01*
X158853619Y-56686289D01*
X158858597Y-56683968D01*
X159034681Y-56560673D01*
X159186681Y-56408673D01*
X159309976Y-56232588D01*
X159344898Y-56157699D01*
X159398499Y-56042751D01*
X159398500Y-56042749D01*
X159400822Y-56037769D01*
X159412412Y-55994517D01*
X159455034Y-55835449D01*
X159455034Y-55835447D01*
X159456458Y-55830134D01*
X159475193Y-55615992D01*
X159456458Y-55401850D01*
X159437776Y-55332127D01*
X159402245Y-55199525D01*
X159402244Y-55199523D01*
X159400822Y-55194215D01*
X159347932Y-55080792D01*
X159312299Y-55004377D01*
X159312297Y-55004374D01*
X159309976Y-54999396D01*
X159186681Y-54823311D01*
X159034681Y-54671311D01*
X158858597Y-54548016D01*
X158853619Y-54545695D01*
X158853616Y-54545693D01*
X158669656Y-54459911D01*
X158616371Y-54412994D01*
X158596910Y-54344716D01*
X158617452Y-54276756D01*
X158669656Y-54231521D01*
X158853359Y-54145860D01*
X158862854Y-54140377D01*
X158897607Y-54116043D01*
X158905983Y-54105564D01*
X158898916Y-54092119D01*
X158254811Y-53448013D01*
X158240868Y-53440400D01*
X158239034Y-53440531D01*
X158232420Y-53444782D01*
X157584360Y-54092843D01*
X157577933Y-54104613D01*
X157587227Y-54116627D01*
X157621146Y-54140377D01*
X157630641Y-54145860D01*
X157814344Y-54231521D01*
X157867629Y-54278438D01*
X157887090Y-54346715D01*
X157866548Y-54414675D01*
X157814344Y-54459911D01*
X157630385Y-54545693D01*
X157630382Y-54545695D01*
X157625404Y-54548016D01*
X157449319Y-54671311D01*
X157297319Y-54823311D01*
X157174024Y-54999396D01*
X157171703Y-55004374D01*
X157171701Y-55004377D01*
X157136068Y-55080792D01*
X157083178Y-55194215D01*
X157081756Y-55199523D01*
X157081755Y-55199525D01*
X157046224Y-55332127D01*
X157027542Y-55401850D01*
X157008807Y-55615992D01*
X157027542Y-55830134D01*
X157028966Y-55835447D01*
X157028966Y-55835449D01*
X157071589Y-55994517D01*
X157083178Y-56037769D01*
X157085500Y-56042749D01*
X157085501Y-56042751D01*
X157139103Y-56157699D01*
X157174024Y-56232588D01*
X157297319Y-56408673D01*
X157449319Y-56560673D01*
X157625403Y-56683968D01*
X157630381Y-56686289D01*
X157630384Y-56686291D01*
X157813753Y-56771797D01*
X157867038Y-56818714D01*
X157886499Y-56886992D01*
X157865957Y-56954951D01*
X157813753Y-57000187D01*
X157630385Y-57085693D01*
X157630382Y-57085695D01*
X157625404Y-57088016D01*
X157449319Y-57211311D01*
X157297319Y-57363311D01*
X157174024Y-57539396D01*
X157171703Y-57544374D01*
X157171701Y-57544377D01*
X157085501Y-57729233D01*
X157083178Y-57734215D01*
X157081756Y-57739523D01*
X157081755Y-57739525D01*
X157028966Y-57936535D01*
X157027542Y-57941850D01*
X157008807Y-58155992D01*
X153416500Y-58155992D01*
X153416500Y-53081467D01*
X157009788Y-53081467D01*
X157027557Y-53284567D01*
X157029460Y-53295360D01*
X157082226Y-53492287D01*
X157085972Y-53502579D01*
X157172135Y-53687356D01*
X157177613Y-53696842D01*
X157201949Y-53731599D01*
X157212428Y-53739975D01*
X157225872Y-53732909D01*
X157869979Y-53088803D01*
X157876356Y-53077124D01*
X158606408Y-53077124D01*
X158606539Y-53078958D01*
X158610790Y-53085572D01*
X159258851Y-53733632D01*
X159270621Y-53740059D01*
X159282635Y-53730764D01*
X159306387Y-53696842D01*
X159311865Y-53687356D01*
X159398028Y-53502579D01*
X159401774Y-53492287D01*
X159454540Y-53295360D01*
X159456443Y-53284567D01*
X159474212Y-53081467D01*
X159474212Y-53070517D01*
X159456443Y-52867417D01*
X159454540Y-52856624D01*
X159401774Y-52659697D01*
X159398028Y-52649405D01*
X159311865Y-52464628D01*
X159306387Y-52455142D01*
X159282051Y-52420385D01*
X159271572Y-52412009D01*
X159258128Y-52419075D01*
X158614021Y-53063181D01*
X158606408Y-53077124D01*
X157876356Y-53077124D01*
X157877592Y-53074860D01*
X157877461Y-53073026D01*
X157873210Y-53066412D01*
X157225149Y-52418352D01*
X157213379Y-52411925D01*
X157201365Y-52421220D01*
X157177613Y-52455142D01*
X157172135Y-52464628D01*
X157085972Y-52649405D01*
X157082226Y-52659697D01*
X157029460Y-52856624D01*
X157027557Y-52867417D01*
X157009788Y-53070517D01*
X157009788Y-53081467D01*
X153416500Y-53081467D01*
X153416500Y-52046420D01*
X157578017Y-52046420D01*
X157585083Y-52059864D01*
X158229189Y-52703971D01*
X158243132Y-52711584D01*
X158244966Y-52711453D01*
X158251580Y-52707202D01*
X158899640Y-52059141D01*
X158906067Y-52047371D01*
X158896773Y-52035357D01*
X158862854Y-52011607D01*
X158853359Y-52006124D01*
X158668587Y-51919964D01*
X158658295Y-51916218D01*
X158461368Y-51863452D01*
X158450575Y-51861549D01*
X158247475Y-51843780D01*
X158236525Y-51843780D01*
X158033425Y-51861549D01*
X158022632Y-51863452D01*
X157825705Y-51916218D01*
X157815413Y-51919964D01*
X157630636Y-52006127D01*
X157621150Y-52011605D01*
X157586393Y-52035941D01*
X157578017Y-52046420D01*
X153416500Y-52046420D01*
X153416500Y-46045545D01*
X153417105Y-46033208D01*
X153417124Y-46033019D01*
X153419261Y-46024297D01*
X153418865Y-46015328D01*
X153418865Y-46015323D01*
X153418345Y-46003561D01*
X153419266Y-45981812D01*
X153420537Y-45972000D01*
X153420858Y-45969521D01*
X153427400Y-45942651D01*
X153432535Y-45928530D01*
X155382905Y-45928530D01*
X155383809Y-45950098D01*
X155397461Y-46275814D01*
X155397999Y-46279288D01*
X155434229Y-46513320D01*
X155450637Y-46619312D01*
X155541771Y-46954741D01*
X155669727Y-47277921D01*
X155832911Y-47584824D01*
X155834896Y-47587723D01*
X156027296Y-47868718D01*
X156027301Y-47868724D01*
X156029287Y-47871625D01*
X156256409Y-48134748D01*
X156511445Y-48370914D01*
X156514267Y-48372995D01*
X156514270Y-48372997D01*
X156551691Y-48400586D01*
X156791218Y-48577180D01*
X156794255Y-48578934D01*
X156794259Y-48578936D01*
X156910909Y-48646284D01*
X157092239Y-48750975D01*
X157217486Y-48805694D01*
X157407535Y-48888725D01*
X157407538Y-48888726D01*
X157410756Y-48890132D01*
X157414113Y-48891171D01*
X157414118Y-48891173D01*
X157739441Y-48991877D01*
X157742801Y-48992917D01*
X157746257Y-48993576D01*
X157746256Y-48993576D01*
X158080782Y-49057390D01*
X158080787Y-49057391D01*
X158084233Y-49058048D01*
X158274742Y-49072707D01*
X158427301Y-49084446D01*
X158427302Y-49084446D01*
X158430798Y-49084715D01*
X158648507Y-49077112D01*
X158774660Y-49072707D01*
X158774664Y-49072707D01*
X158778175Y-49072584D01*
X158781656Y-49072070D01*
X159118544Y-49022324D01*
X159118550Y-49022323D01*
X159122036Y-49021808D01*
X159125440Y-49020909D01*
X159125443Y-49020908D01*
X159454685Y-48933918D01*
X159454694Y-48933915D01*
X159458093Y-48933017D01*
X159597376Y-48878993D01*
X159778878Y-48808594D01*
X159778884Y-48808591D01*
X159782159Y-48807321D01*
X159785266Y-48805697D01*
X159785272Y-48805694D01*
X160087085Y-48647909D01*
X160087087Y-48647908D01*
X160090193Y-48646284D01*
X160190041Y-48578936D01*
X160375443Y-48453882D01*
X160375453Y-48453875D01*
X160378358Y-48451915D01*
X160473534Y-48370914D01*
X160640387Y-48228910D01*
X160640388Y-48228909D01*
X160643060Y-48226635D01*
X160798946Y-48060634D01*
X160878590Y-47975822D01*
X160878594Y-47975817D01*
X160881001Y-47973254D01*
X160883106Y-47970440D01*
X160883112Y-47970433D01*
X161087106Y-47697747D01*
X161089215Y-47694928D01*
X161155633Y-47581722D01*
X161263325Y-47398166D01*
X161263328Y-47398161D01*
X161265107Y-47395128D01*
X161406484Y-47077589D01*
X161511585Y-46746271D01*
X161579099Y-46405301D01*
X161600589Y-46149378D01*
X161608001Y-46061115D01*
X161608002Y-46061104D01*
X161608184Y-46058931D01*
X161608268Y-46052958D01*
X161609368Y-45974177D01*
X161609368Y-45974165D01*
X161609398Y-45972000D01*
X161608174Y-45950098D01*
X161590191Y-45628462D01*
X161589995Y-45624953D01*
X161582108Y-45578322D01*
X161532615Y-45285700D01*
X161532614Y-45285695D01*
X161532028Y-45282231D01*
X161436220Y-44948107D01*
X161389778Y-44835429D01*
X161305102Y-44629990D01*
X161305098Y-44629982D01*
X161303764Y-44626745D01*
X161136311Y-44322150D01*
X160935950Y-44038120D01*
X160705176Y-43778193D01*
X160446867Y-43545611D01*
X160444017Y-43543570D01*
X160444010Y-43543565D01*
X160167096Y-43345314D01*
X160167093Y-43345312D01*
X160164242Y-43343271D01*
X159860824Y-43173696D01*
X159540394Y-43039000D01*
X159537025Y-43038009D01*
X159537021Y-43038007D01*
X159277252Y-42961553D01*
X159206947Y-42940861D01*
X158864639Y-42880503D01*
X158861130Y-42880282D01*
X158861128Y-42880282D01*
X158521253Y-42858899D01*
X158521247Y-42858899D01*
X158517735Y-42858678D01*
X158420057Y-42863455D01*
X158174068Y-42875486D01*
X158174060Y-42875487D01*
X158170561Y-42875658D01*
X158167093Y-42876220D01*
X158167090Y-42876220D01*
X157830918Y-42930667D01*
X157830915Y-42930668D01*
X157827443Y-42931230D01*
X157824056Y-42932176D01*
X157824050Y-42932177D01*
X157554173Y-43007529D01*
X157492659Y-43024704D01*
X157453902Y-43040363D01*
X157173644Y-43153594D01*
X157173640Y-43153596D01*
X157170380Y-43154913D01*
X157167293Y-43156582D01*
X157167289Y-43156584D01*
X157132462Y-43175415D01*
X156864623Y-43320235D01*
X156579201Y-43518609D01*
X156576559Y-43520922D01*
X156576555Y-43520925D01*
X156545663Y-43547969D01*
X156317670Y-43747562D01*
X156083289Y-44004241D01*
X155878982Y-44285447D01*
X155877240Y-44288513D01*
X155877239Y-44288515D01*
X155821794Y-44386116D01*
X155707293Y-44587674D01*
X155659400Y-44699417D01*
X155586343Y-44869872D01*
X155570363Y-44907155D01*
X155548560Y-44979370D01*
X155479671Y-45207544D01*
X155469899Y-45239909D01*
X155469265Y-45243364D01*
X155409227Y-45570485D01*
X155407152Y-45581788D01*
X155406906Y-45585304D01*
X155406906Y-45585305D01*
X155383679Y-45917460D01*
X155382905Y-45928530D01*
X153432535Y-45928530D01*
X154009455Y-44341998D01*
X154309036Y-43518152D01*
X154326769Y-43485455D01*
X154584895Y-43142448D01*
X154591772Y-43134084D01*
X154675842Y-43040363D01*
X154684508Y-43030702D01*
X154712265Y-43007529D01*
X157316058Y-41405195D01*
X157352467Y-41390038D01*
X157619465Y-41325455D01*
X157630091Y-41323364D01*
X158065087Y-41257049D01*
X158075844Y-41255880D01*
X158148376Y-41251141D01*
X158185442Y-41254222D01*
G37*
%TD.AperFunction*%
%TD*%
M02*
