%TF.GenerationSoftware,KiCad,Pcbnew,(6.0.4)*%
%TF.CreationDate,2022-06-03T19:19:18-06:00*%
%TF.ProjectId,Gas_Sensor_Module,4761735f-5365-46e7-936f-725f4d6f6475,rev?*%
%TF.SameCoordinates,Original*%
%TF.FileFunction,Soldermask,Bot*%
%TF.FilePolarity,Negative*%
%FSLAX46Y46*%
G04 Gerber Fmt 4.6, Leading zero omitted, Abs format (unit mm)*
G04 Created by KiCad (PCBNEW (6.0.4)) date 2022-06-03 19:19:18*
%MOMM*%
%LPD*%
G01*
G04 APERTURE LIST*
G04 Aperture macros list*
%AMRoundRect*
0 Rectangle with rounded corners*
0 $1 Rounding radius*
0 $2 $3 $4 $5 $6 $7 $8 $9 X,Y pos of 4 corners*
0 Add a 4 corners polygon primitive as box body*
4,1,4,$2,$3,$4,$5,$6,$7,$8,$9,$2,$3,0*
0 Add four circle primitives for the rounded corners*
1,1,$1+$1,$2,$3*
1,1,$1+$1,$4,$5*
1,1,$1+$1,$6,$7*
1,1,$1+$1,$8,$9*
0 Add four rect primitives between the rounded corners*
20,1,$1+$1,$2,$3,$4,$5,0*
20,1,$1+$1,$4,$5,$6,$7,0*
20,1,$1+$1,$6,$7,$8,$9,0*
20,1,$1+$1,$8,$9,$2,$3,0*%
%AMFreePoly0*
4,1,6,0.500000,-0.850000,-0.200000,-0.850000,-0.500000,-0.550000,-0.500000,0.850000,0.500000,0.850000,0.500000,-0.850000,0.500000,-0.850000,$1*%
G04 Aperture macros list end*
%ADD10R,2.400000X1.600000*%
%ADD11O,2.400000X1.600000*%
%ADD12R,1.500000X1.000000*%
%ADD13O,1.700000X1.950000*%
%ADD14RoundRect,0.250000X-0.600000X-0.725000X0.600000X-0.725000X0.600000X0.725000X-0.600000X0.725000X0*%
%ADD15R,0.550000X0.250000*%
%ADD16FreePoly0,180.000000*%
%ADD17RoundRect,0.250000X-0.400000X-0.625000X0.400000X-0.625000X0.400000X0.625000X-0.400000X0.625000X0*%
%ADD18C,1.440000*%
%ADD19R,2.000000X2.000000*%
%ADD20C,2.000000*%
G04 APERTURE END LIST*
D10*
%TO.C,LM358*%
X164069000Y-49540000D03*
D11*
X164069000Y-52080000D03*
X164069000Y-54620000D03*
X164069000Y-57160000D03*
X171689000Y-57160000D03*
X171689000Y-54620000D03*
X171689000Y-52080000D03*
X171689000Y-49540000D03*
%TD*%
D12*
%TO.C,D3*%
X212762000Y-71298000D03*
X212762000Y-74498000D03*
X207862000Y-74498000D03*
X207862000Y-71298000D03*
%TD*%
D13*
%TO.C,J1*%
X176330000Y-70358000D03*
X173830000Y-70358000D03*
X171330000Y-70358000D03*
X168830000Y-70358000D03*
X166330000Y-70358000D03*
D14*
X163830000Y-70358000D03*
%TD*%
D15*
%TO.C,U1*%
X227489000Y-63512000D03*
X227489000Y-64012000D03*
X227489000Y-64512000D03*
X227489000Y-65012000D03*
X225139000Y-65012000D03*
X225139000Y-64512000D03*
X225139000Y-64012000D03*
X225139000Y-63512000D03*
D16*
X226314000Y-64262000D03*
%TD*%
D17*
%TO.C,R9*%
X225780000Y-69850000D03*
X228880000Y-69850000D03*
%TD*%
%TO.C,R8*%
X226034000Y-58420000D03*
X229134000Y-58420000D03*
%TD*%
D14*
%TO.C,J2*%
X183193995Y-70312001D03*
D13*
X185693995Y-70312001D03*
X188193995Y-70312001D03*
X190693995Y-70312001D03*
%TD*%
D12*
%TO.C,D4*%
X204126000Y-71298000D03*
X204126000Y-74498000D03*
X199226000Y-74498000D03*
X199226000Y-71298000D03*
%TD*%
%TO.C,D2*%
X221144000Y-71298000D03*
X221144000Y-74498000D03*
X216244000Y-74498000D03*
X216244000Y-71298000D03*
%TD*%
D18*
%TO.C,POT2*%
X177800000Y-53330000D03*
X177800000Y-55870000D03*
X177800000Y-58410000D03*
%TD*%
%TO.C,POT1*%
X158242000Y-53075992D03*
X158242000Y-55615992D03*
X158242000Y-58155992D03*
%TD*%
D19*
%TO.C,MQ135*%
X217735988Y-55060012D03*
D20*
X219125988Y-58420012D03*
X217735988Y-61780012D03*
X211015988Y-61780012D03*
X209625988Y-58420012D03*
X211015988Y-55060012D03*
%TD*%
%TO.C,MQ2*%
X190696000Y-55060000D03*
X189306000Y-58420000D03*
X190696000Y-61780000D03*
X197416000Y-61780000D03*
X198806000Y-58420000D03*
D19*
X197416000Y-55060000D03*
%TD*%
M02*
