M48
; DRILL file {KiCad (6.0.4)} date Fri Jun  3 19:19:23 2022
; FORMAT={-:-/ absolute / inch / decimal}
; #@! TF.CreationDate,2022-06-03T19:19:23-06:00
; #@! TF.GenerationSoftware,Kicad,Pcbnew,(6.0.4)
; #@! TF.FileFunction,Plated,1,2,PTH
FMAT,2
INCH
; #@! TA.AperFunction,Plated,PTH,ViaDrill
T1C0.0150
; #@! TA.AperFunction,Plated,PTH,ComponentDrill
T2C0.0315
; #@! TA.AperFunction,Plated,PTH,ComponentDrill
T3C0.0374
; #@! TA.AperFunction,Plated,PTH,ComponentDrill
T4C0.0394
%
G90
G05
T1
X6.65Y-2.45
X6.7Y-2.38
X7.65Y-2.75
X7.75Y-2.95
X8.59Y-2.81
X8.94Y-2.63
X9.0398Y-2.5202
T2
X6.23Y-2.0896
X6.23Y-2.1896
X6.23Y-2.2896
X6.4594Y-1.9504
X6.4594Y-2.0504
X6.4594Y-2.1504
X6.4594Y-2.2504
X6.7594Y-1.9504
X6.7594Y-2.0504
X6.7594Y-2.1504
X6.7594Y-2.2504
X7.0Y-2.0996
X7.0Y-2.1996
X7.0Y-2.2996
T3
X6.45Y-2.77
X6.5484Y-2.77
X6.6469Y-2.77
X6.7453Y-2.77
X6.8437Y-2.77
X6.9421Y-2.77
X7.2124Y-2.7682
X7.3108Y-2.7682
X7.4092Y-2.7682
X7.5076Y-2.7682
T4
X7.453Y-2.3
X7.5077Y-2.1677
X7.5077Y-2.4323
X7.7723Y-2.1677
X7.7723Y-2.4323
X7.827Y-2.3
X8.253Y-2.3
X8.3077Y-2.1677
X8.3077Y-2.4323
X8.5723Y-2.1677
X8.5723Y-2.4323
X8.627Y-2.3
T0
M30
