M48
;Layer_Color=9474304
;FILE_FORMAT=4:4
METRIC,LZ
;TYPE=PLATED
T2F00S00C0.6500
T3F00S00C0.7112
T4F00S00C0.9000
T5F00S00C1.1000
%
T02
X0094138Y0031815
X0099918
T03
X0082677Y0038608
X0089535Y0042799
X0100584Y0049657
X0105156Y0049403
X0116967Y0056261
X0114173Y0059436
X0101981Y0065151
X0068072Y0053213
X0083947Y0083693
T04
X0081524Y004953
X0073924
T05
X0122936Y0062103
Y0064643
Y0067183
Y0069723
X0126492
Y0067183
Y0064643
Y0062103
X0074041Y0066802
Y0069342
Y0071882
Y0074422
Y0076962
Y0079502
M30
