M48
;Layer_Color=9474304
;FILE_FORMAT=2:5
INCH,LZ
;TYPE=PLATED
T2F00S00C0.02559
T3F00S00C0.02800
T4F00S00C0.03543
T5F00S00C0.04331
%
T02
X0370622Y0125256
X0393378
T03
X03255Y0152
X03525Y01685
X0396Y01955
X0414Y01945
X04605Y02215
X0268Y02095
X03305Y03295
T04
X0320961Y0195
X0291039
T05
X0472Y028
Y029
Y03
Y031
X04555
Y03
Y029
Y028
X02915Y0283
Y0293
Y0303
Y0273
Y0263
Y0313
M30
