G04*
G04 #@! TF.GenerationSoftware,Altium Limited,Altium Designer,22.1.2 (22)*
G04*
G04 Layer_Color=16711935*
%FSLAX25Y25*%
%MOIN*%
G70*
G04*
G04 #@! TF.SameCoordinates,02DF8324-4ACC-4833-93D7-4F50CCD373BD*
G04*
G04*
G04 #@! TF.FilePolarity,Positive*
G04*
G01*
G75*
%ADD63C,0.02000*%
%ADD64C,0.00394*%
D63*
X481431Y351038D02*
G03*
X472307Y341914I0J-9124D01*
G01*
X490555D02*
G03*
X481431Y351038I-9124J0D01*
G01*
Y332789D02*
G03*
X490555Y341914I0J9124D01*
G01*
X472307D02*
G03*
X481431Y332789I9124J0D01*
G01*
X293720Y138175D02*
G03*
X284596Y129051I0J-9124D01*
G01*
X302844D02*
G03*
X293720Y138175I-9124J0D01*
G01*
Y119927D02*
G03*
X302844Y129051I0J9124D01*
G01*
X284596D02*
G03*
X293720Y119927I9124J0D01*
G01*
X257998Y176497D02*
G03*
X336000Y98498I78001J3D01*
G01*
X478000D02*
G03*
X478356Y98647I0J501D01*
G01*
X503353Y123644D02*
G03*
X503502Y124000I-353J356D01*
G01*
X503502Y328485D02*
G03*
X463984Y368002I-39517J-0D01*
G01*
X278000D02*
G03*
X277500Y367539I0J-501D01*
G01*
X277500Y367539D02*
G03*
X276645Y367855I-500J-39D01*
G01*
X258147Y349356D02*
G03*
X257998Y349000I353J-356D01*
G01*
Y176500D02*
G03*
X257998Y176497I494J-0D01*
G01*
X336000Y98498D02*
X478000D01*
X478356Y98647D02*
X503353Y123644D01*
X503502Y328485D02*
X503502Y124000D01*
X278000Y368002D02*
X463984D01*
X258147Y349356D02*
X276645Y367855D01*
X257998Y176500D02*
Y349000D01*
D64*
X453500Y199649D02*
Y197025D01*
X454025Y196500D01*
X455074D01*
X455599Y197025D01*
Y199649D01*
X456649Y196500D02*
X457698D01*
X457173D01*
Y199649D01*
X456649Y199124D01*
M02*
