%TF.GenerationSoftware,Altium Limited,Altium Designer,22.1.2 (22)*%
G04 Layer_Color=16711935*
%FSLAX45Y45*%
%MOMM*%
%TF.SameCoordinates,487542E7-F005-4C77-86B1-A0AEE8F943D7*%
%TF.FilePolarity,Negative*%
%TF.FileFunction,Soldermask,Bot*%
%TF.Part,Single*%
G01*
G75*
%TA.AperFunction,ComponentPad*%
%ADD30R,1.40000X1.40000*%
%ADD31C,1.40000*%
%ADD38C,1.80320*%
%ADD39R,1.80320X1.80320*%
%ADD40C,0.85320*%
G04:AMPARAMS|DCode=41|XSize=1.2032mm|YSize=2.0032mm|CornerRadius=0.6016mm|HoleSize=0mm|Usage=FLASHONLY|Rotation=0.000|XOffset=0mm|YOffset=0mm|HoleType=Round|Shape=RoundedRectangle|*
%AMROUNDEDRECTD41*
21,1,1.20320,0.80000,0,0,0.0*
21,1,0.00000,2.00320,0,0,0.0*
1,1,1.20320,0.00000,-0.40000*
1,1,1.20320,0.00000,-0.40000*
1,1,1.20320,0.00000,0.40000*
1,1,1.20320,0.00000,0.40000*
%
%ADD41ROUNDEDRECTD41*%
G04:AMPARAMS|DCode=42|XSize=1.2032mm|YSize=2.3032mm|CornerRadius=0.6016mm|HoleSize=0mm|Usage=FLASHONLY|Rotation=0.000|XOffset=0mm|YOffset=0mm|HoleType=Round|Shape=RoundedRectangle|*
%AMROUNDEDRECTD42*
21,1,1.20320,1.10000,0,0,0.0*
21,1,0.00000,2.30320,0,0,0.0*
1,1,1.20320,0.00000,-0.55000*
1,1,1.20320,0.00000,-0.55000*
1,1,1.20320,0.00000,0.55000*
1,1,1.20320,0.00000,0.55000*
%
%ADD42ROUNDEDRECTD42*%
%TA.AperFunction,ViaPad*%
%ADD43C,1.47320*%
D30*
X7392400Y4953000D02*
D03*
D31*
X8152400D02*
D03*
D38*
X12649200Y6210300D02*
D03*
Y6464300D02*
D03*
Y6718300D02*
D03*
X7404100Y7442200D02*
D03*
Y6934200D02*
D03*
Y7188200D02*
D03*
Y7696200D02*
D03*
Y7950200D02*
D03*
X12293600Y6210300D02*
D03*
Y6464300D02*
D03*
Y6718300D02*
D03*
D39*
X12649200Y6972300D02*
D03*
X7404100Y6680200D02*
D03*
X12293600Y6972300D02*
D03*
D40*
X9413800Y3181500D02*
D03*
X9991800D02*
D03*
D41*
X10134800Y2813500D02*
D03*
X9270800D02*
D03*
D42*
X10134800Y3231500D02*
D03*
X9270800D02*
D03*
D43*
X10198100Y6515100D02*
D03*
X11417300Y5943600D02*
D03*
X10058400Y4965700D02*
D03*
X10515600Y4940300D02*
D03*
X6807200Y5321300D02*
D03*
X8267700Y3860800D02*
D03*
X8394700Y8369300D02*
D03*
X11696700Y5626100D02*
D03*
X8953500Y4279900D02*
D03*
%TF.MD5,4b7d2e2131a08afc83a232bdbaf21144*%
M02*
