%TF.GenerationSoftware,Altium Limited,Altium Designer,22.1.2 (22)*%
G04 Layer_Color=16711935*
%FSLAX45Y45*%
%MOMM*%
%TF.SameCoordinates,487542E7-F005-4C77-86B1-A0AEE8F943D7*%
%TF.FilePolarity,Positive*%
%TF.FileFunction,Other,Mechanical_13*%
%TF.Part,Single*%
G01*
G75*
%TA.AperFunction,NonConductor*%
%ADD46C,0.20000*%
%ADD65C,0.10000*%
D46*
X9508200Y3815700D02*
Y4845700D01*
X9948200Y3815700D02*
Y4845700D01*
D65*
X11499000Y4694200D02*
Y5364200D01*
X11869000Y4694200D02*
Y5364200D01*
X11499000D02*
X11869000D01*
X11499000Y4694200D02*
X11869000D01*
X7852300Y8640300D02*
X7997300D01*
X7852300Y8860300D02*
X7997300D01*
X7852300Y8640300D02*
Y8860300D01*
X7997300Y8640300D02*
Y8860300D01*
X10850100Y5274200D02*
X11070100D01*
X10850100Y5419200D02*
X11070100D01*
Y5274200D02*
Y5419200D01*
X10850100Y5274200D02*
Y5419200D01*
X12776200Y6083300D02*
Y7099300D01*
X12522200Y6083300D02*
Y7099300D01*
X12776200D01*
X12522200Y6083300D02*
X12776200D01*
X10385500Y5403800D02*
X10515500D01*
X10385500Y5111800D02*
X10515500D01*
X10385500D02*
Y5403800D01*
X10515500Y5111800D02*
Y5403800D01*
X12213100Y5312300D02*
Y5457300D01*
X11993100Y5312300D02*
Y5457300D01*
Y5312300D02*
X12213100D01*
X11993100Y5457300D02*
X12213100D01*
X12163400Y5591700D02*
Y5736700D01*
X11943400Y5591700D02*
Y5736700D01*
Y5591700D02*
X12163400D01*
X11943400Y5736700D02*
X12163400D01*
X7277100Y8077200D02*
X7531100D01*
X7277100Y6553200D02*
X7531100D01*
Y8077200D01*
X7277100Y6553200D02*
Y8077200D01*
X8340200Y8640300D02*
Y8860300D01*
X8195200Y8640300D02*
Y8860300D01*
X8340200D01*
X8195200Y8640300D02*
X8340200D01*
X7629000Y8636200D02*
Y8857200D01*
X7484000Y8636200D02*
Y8857200D01*
X7629000D01*
X7484000Y8636200D02*
X7629000D01*
X11118900Y3611500D02*
Y3881500D01*
Y3611500D02*
X11283900D01*
Y3881500D01*
X11118900D02*
X11283900D01*
X11459100Y4004800D02*
Y4224800D01*
X11604100Y4004800D02*
Y4224800D01*
X11459100Y4004800D02*
X11604100D01*
X11459100Y4224800D02*
X11604100D01*
X10723100Y4372500D02*
Y4517500D01*
X10943100Y4372500D02*
Y4517500D01*
X10723100D02*
X10943100D01*
X10723100Y4372500D02*
X10943100D01*
X11009400Y5797600D02*
Y6089600D01*
X11139400Y5797600D02*
Y6089600D01*
X11009400D02*
X11139400D01*
X11009400Y5797600D02*
X11139400D01*
X9597980Y5283120D02*
Y5428120D01*
X9817980Y5283120D02*
Y5428120D01*
X9597980D02*
X9817980D01*
X9597980Y5283120D02*
X9817980D01*
X10798700Y6519400D02*
X10943700D01*
X10798700Y6739400D02*
X10943700D01*
X10798700Y6519400D02*
Y6739400D01*
X10943700Y6519400D02*
Y6739400D01*
X8576200Y3852400D02*
X8721200D01*
X8576200Y4072400D02*
X8721200D01*
X8576200Y3852400D02*
Y4072400D01*
X8721200Y3852400D02*
Y4072400D01*
X7826400Y7865000D02*
X8046400D01*
X7826400Y8010000D02*
X8046400D01*
Y7865000D02*
Y8010000D01*
X7826400Y7865000D02*
Y8010000D01*
X7273400Y8639800D02*
Y8860800D01*
X7128400Y8639800D02*
Y8860800D01*
X7273400D01*
X7128400Y8639800D02*
X7273400D01*
X12420600Y6083300D02*
Y7099300D01*
X12166600Y6083300D02*
Y7099300D01*
X12420600D01*
X12166600Y6083300D02*
X12420600D01*
%TF.MD5,eba3bc596138bf4a75a2fd1da2807c55*%
M02*
