%TF.GenerationSoftware,Altium Limited,Altium Designer,22.1.2 (22)*%
G04 Layer_Color=32768*
%FSLAX45Y45*%
%MOMM*%
%TF.SameCoordinates,487542E7-F005-4C77-86B1-A0AEE8F943D7*%
%TF.FilePolarity,Positive*%
%TF.FileFunction,Other,Mechanical_15*%
%TF.Part,Single*%
G01*
G75*
%TA.AperFunction,NonConductor*%
%ADD64C,0.05000*%
%ADD65C,0.10000*%
D64*
X9290700Y3780700D02*
Y4880700D01*
Y3780700D02*
X10165700D01*
Y4880700D01*
X9290700D02*
X10165700D01*
X11214000Y4644200D02*
Y5414200D01*
X12154000Y4644200D02*
Y5414200D01*
X11214000D02*
X12154000D01*
X11214000Y4644200D02*
X12154000D01*
X7794800Y8535300D02*
X8054800D01*
X7794800Y8965300D02*
X8054800D01*
X7794800Y8535300D02*
Y8965300D01*
X8054800Y8535300D02*
Y8965300D01*
X10745100Y5216700D02*
X11175100D01*
X10745100Y5476700D02*
X11175100D01*
Y5216700D02*
Y5476700D01*
X10745100Y5216700D02*
Y5476700D01*
X12649200Y6541300D02*
Y6641300D01*
X12599200Y6591300D02*
X12699200D01*
X12803700Y6048300D02*
Y7134300D01*
X12494700Y6048300D02*
X12803700D01*
X12494700D02*
Y7134300D01*
X12803700D01*
X10295500Y5413800D02*
X10605500D01*
X10295500Y5101800D02*
X10605500D01*
X10295500D02*
Y5413800D01*
X10605500Y5101800D02*
Y5413800D01*
X12318100Y5254800D02*
Y5514800D01*
X11888100Y5254800D02*
Y5514800D01*
Y5254800D02*
X12318100D01*
X11888100Y5514800D02*
X12318100D01*
X12268400Y5534200D02*
Y5794200D01*
X11838400Y5534200D02*
Y5794200D01*
Y5534200D02*
X12268400D01*
X11838400Y5794200D02*
X12268400D01*
X7404100Y7265200D02*
Y7365200D01*
X7354100Y7315200D02*
X7454100D01*
X7249600Y6518200D02*
X7558600D01*
Y8112200D01*
X7249600D02*
X7558600D01*
X7249600Y6518200D02*
Y8112200D01*
X8397700Y8535300D02*
Y8965300D01*
X8137700Y8535300D02*
Y8965300D01*
X8397700D01*
X8137700Y8535300D02*
X8397700D01*
X7686500Y8526700D02*
Y8966700D01*
X7426500Y8526700D02*
Y8966700D01*
X7686500D01*
X7426500Y8526700D02*
X7686500D01*
X11293900Y3526500D02*
Y3966500D01*
X11108900D02*
X11293900D01*
X11108900Y3526500D02*
Y3966500D01*
Y3526500D02*
X11293900D01*
X11401600Y3899800D02*
Y4329800D01*
X11661600Y3899800D02*
Y4329800D01*
X11401600Y3899800D02*
X11661600D01*
X11401600Y4329800D02*
X11661600D01*
X10618100Y4315000D02*
Y4575000D01*
X11048100Y4315000D02*
Y4575000D01*
X10618100D02*
X11048100D01*
X10618100Y4315000D02*
X11048100D01*
X10919400Y5787600D02*
Y6099600D01*
X11229400Y5787600D02*
Y6099600D01*
X10919400D02*
X11229400D01*
X10919400Y5787600D02*
X11229400D01*
X9492980Y5225620D02*
Y5485620D01*
X9922980Y5225620D02*
Y5485620D01*
X9492980D02*
X9922980D01*
X9492980Y5225620D02*
X9922980D01*
X10741200Y6414400D02*
X11001200D01*
X10741200Y6844400D02*
X11001200D01*
X10741200Y6414400D02*
Y6844400D01*
X11001200Y6414400D02*
Y6844400D01*
X8518700Y3747400D02*
X8778700D01*
X8518700Y4177400D02*
X8778700D01*
X8518700Y3747400D02*
Y4177400D01*
X8778700Y3747400D02*
Y4177400D01*
X7721400Y7807500D02*
X8151400D01*
X7721400Y8067500D02*
X8151400D01*
Y7807500D02*
Y8067500D01*
X7721400Y7807500D02*
Y8067500D01*
X7330900Y8530300D02*
Y8970300D01*
X7070900Y8530300D02*
Y8970300D01*
X7330900D01*
X7070900Y8530300D02*
X7330900D01*
X12293600Y6541300D02*
Y6641300D01*
X12243600Y6591300D02*
X12343600D01*
X12448100Y6048300D02*
Y7134300D01*
X12139100Y6048300D02*
X12448100D01*
X12139100D02*
Y7134300D01*
X12448100D01*
D65*
X11634000Y5029200D02*
X11734000D01*
X11684000Y4979200D02*
Y5079200D01*
X7924800Y8700300D02*
Y8800300D01*
X7874800Y8750300D02*
X7974800D01*
X10960100Y5296700D02*
Y5396700D01*
X10910100Y5346700D02*
X11010100D01*
X10450500Y5207800D02*
Y5307800D01*
X10400500Y5257800D02*
X10500500D01*
X12053100Y5384800D02*
X12153100D01*
X12103100Y5334800D02*
Y5434800D01*
X12003400Y5664200D02*
X12103400D01*
X12053400Y5614200D02*
Y5714200D01*
X8217700Y8750300D02*
X8317700D01*
X8267700Y8700300D02*
Y8800300D01*
X7506500Y8746700D02*
X7606500D01*
X7556500Y8696700D02*
Y8796700D01*
X11201400Y3696500D02*
Y3796500D01*
X11151400Y3746500D02*
X11251400D01*
X11481600Y4114800D02*
X11581600D01*
X11531600Y4064800D02*
Y4164800D01*
X10783100Y4445000D02*
X10883100D01*
X10833100Y4395000D02*
Y4495000D01*
X11024400Y5943600D02*
X11124400D01*
X11074400Y5893600D02*
Y5993600D01*
X9657980Y5355620D02*
X9757980D01*
X9707980Y5305620D02*
Y5405620D01*
X10871200Y6579400D02*
Y6679400D01*
X10821200Y6629400D02*
X10921200D01*
X8648700Y3912400D02*
Y4012400D01*
X8598700Y3962400D02*
X8698700D01*
X7936400Y7887500D02*
Y7987500D01*
X7886400Y7937500D02*
X7986400D01*
X7150900Y8750300D02*
X7250900D01*
X7200900Y8700300D02*
Y8800300D01*
%TF.MD5,2acb217e6b6b2c72fa857ad09bb056a3*%
M02*
