%TF.GenerationSoftware,Altium Limited,Altium Designer,22.1.2 (22)*%
G04 Layer_Color=255*
%FSLAX45Y45*%
%MOMM*%
%TF.SameCoordinates,487542E7-F005-4C77-86B1-A0AEE8F943D7*%
%TF.FilePolarity,Positive*%
%TF.FileFunction,Pads,Top*%
%TF.Part,Single*%
G01*
G75*
%TA.AperFunction,SMDPad,CuDef*%
%ADD10R,2.00000X0.90000*%
%ADD11R,5.00000X5.00000*%
%ADD12R,1.80000X0.64000*%
G04:AMPARAMS|DCode=13|XSize=1mm|YSize=2.05mm|CornerRadius=0.05mm|HoleSize=0mm|Usage=FLASHONLY|Rotation=90.000|XOffset=0mm|YOffset=0mm|HoleType=Round|Shape=RoundedRectangle|*
%AMROUNDEDRECTD13*
21,1,1.00000,1.95000,0,0,90.0*
21,1,0.90000,2.05000,0,0,90.0*
1,1,0.10000,0.97500,0.45000*
1,1,0.10000,0.97500,-0.45000*
1,1,0.10000,-0.97500,-0.45000*
1,1,0.10000,-0.97500,0.45000*
%
%ADD13ROUNDEDRECTD13*%
G04:AMPARAMS|DCode=14|XSize=3.25mm|YSize=2.05mm|CornerRadius=0.05125mm|HoleSize=0mm|Usage=FLASHONLY|Rotation=90.000|XOffset=0mm|YOffset=0mm|HoleType=Round|Shape=RoundedRectangle|*
%AMROUNDEDRECTD14*
21,1,3.25000,1.94750,0,0,90.0*
21,1,3.14750,2.05000,0,0,90.0*
1,1,0.10250,0.97375,1.57375*
1,1,0.10250,0.97375,-1.57375*
1,1,0.10250,-0.97375,-1.57375*
1,1,0.10250,-0.97375,1.57375*
%
%ADD14ROUNDEDRECTD14*%
%ADD15R,1.55000X1.50000*%
%ADD16R,1.25000X1.55000*%
%ADD17R,0.90000X0.80000*%
%ADD18R,1.70000X0.80000*%
%ADD19R,1.50000X1.55000*%
%ADD20R,1.45000X0.95000*%
%TA.AperFunction,ConnectorPad*%
%ADD21R,0.30000X1.15000*%
%TA.AperFunction,SMDPad,CuDef*%
%ADD22R,1.55000X1.55000*%
%ADD23R,1.22000X1.25000*%
%ADD24R,0.95000X1.45000*%
%ADD25R,1.40000X1.55000*%
%ADD26R,1.55000X1.25000*%
%TA.AperFunction,ComponentPad*%
%ADD30R,1.40000X1.40000*%
%ADD31C,1.40000*%
%ADD32C,1.60000*%
%ADD33R,1.60000X1.60000*%
%ADD34C,0.65000*%
G04:AMPARAMS|DCode=35|XSize=1mm|YSize=1.8mm|CornerRadius=0.5mm|HoleSize=0mm|Usage=FLASHONLY|Rotation=0.000|XOffset=0mm|YOffset=0mm|HoleType=Round|Shape=RoundedRectangle|*
%AMROUNDEDRECTD35*
21,1,1.00000,0.80000,0,0,0.0*
21,1,0.00000,1.80000,0,0,0.0*
1,1,1.00000,0.00000,-0.40000*
1,1,1.00000,0.00000,-0.40000*
1,1,1.00000,0.00000,0.40000*
1,1,1.00000,0.00000,0.40000*
%
%ADD35ROUNDEDRECTD35*%
G04:AMPARAMS|DCode=36|XSize=1mm|YSize=2.1mm|CornerRadius=0.5mm|HoleSize=0mm|Usage=FLASHONLY|Rotation=0.000|XOffset=0mm|YOffset=0mm|HoleType=Round|Shape=RoundedRectangle|*
%AMROUNDEDRECTD36*
21,1,1.00000,1.10000,0,0,0.0*
21,1,0.00000,2.10000,0,0,0.0*
1,1,1.00000,0.00000,-0.55000*
1,1,1.00000,0.00000,-0.55000*
1,1,1.00000,0.00000,0.55000*
1,1,1.00000,0.00000,0.55000*
%
%ADD36ROUNDEDRECTD36*%
D10*
X8775700Y8166100D02*
D03*
Y8039100D02*
D03*
Y7912100D02*
D03*
Y7785100D02*
D03*
Y7658100D02*
D03*
Y7531100D02*
D03*
Y7404100D02*
D03*
Y7277100D02*
D03*
Y7150100D02*
D03*
Y7023100D02*
D03*
Y6896100D02*
D03*
Y6769100D02*
D03*
Y6642100D02*
D03*
Y6515100D02*
D03*
Y6388100D02*
D03*
Y6261100D02*
D03*
Y6134100D02*
D03*
Y6007100D02*
D03*
Y5880100D02*
D03*
X10475700D02*
D03*
Y6007100D02*
D03*
Y6134100D02*
D03*
Y6261100D02*
D03*
Y6388100D02*
D03*
Y6515100D02*
D03*
Y6642100D02*
D03*
Y6769100D02*
D03*
Y6896100D02*
D03*
Y7023100D02*
D03*
Y7150100D02*
D03*
Y7277100D02*
D03*
Y7404100D02*
D03*
Y7531100D02*
D03*
Y7658100D02*
D03*
Y7785100D02*
D03*
Y7912100D02*
D03*
Y8039100D02*
D03*
Y8166100D02*
D03*
D11*
X9525700Y7416100D02*
D03*
D12*
X10038700Y4775200D02*
D03*
Y4648200D02*
D03*
Y4521200D02*
D03*
Y4394200D02*
D03*
Y4267200D02*
D03*
Y4140200D02*
D03*
Y4013200D02*
D03*
Y3886200D02*
D03*
X9417700D02*
D03*
Y4013200D02*
D03*
Y4140200D02*
D03*
Y4267200D02*
D03*
Y4394200D02*
D03*
Y4521200D02*
D03*
Y4648200D02*
D03*
Y4775200D02*
D03*
D13*
X11366500Y5259200D02*
D03*
Y5029200D02*
D03*
Y4799200D02*
D03*
D14*
X12001500Y5029200D02*
D03*
D15*
X7924800Y8660300D02*
D03*
Y8840300D02*
D03*
X8267700D02*
D03*
Y8660300D02*
D03*
X11531600Y4024800D02*
D03*
Y4204800D02*
D03*
D16*
X11062600Y5346700D02*
D03*
X10857600D02*
D03*
X9605480Y5355620D02*
D03*
X9810480D02*
D03*
D17*
X10350500Y5257800D02*
D03*
X10550500Y5352800D02*
D03*
Y5162800D02*
D03*
X10974400Y6038600D02*
D03*
Y5848600D02*
D03*
X11174400Y5943600D02*
D03*
D18*
X11493500Y6522900D02*
D03*
Y6862900D02*
D03*
X8585200Y3190600D02*
D03*
Y3530600D02*
D03*
D19*
X12193100Y5384800D02*
D03*
X12013100D02*
D03*
X12143400Y5664200D02*
D03*
X11963400D02*
D03*
X8026400Y7937500D02*
D03*
X7846400D02*
D03*
D20*
X10502900Y4034500D02*
D03*
Y3839500D02*
D03*
D21*
X10037800Y3288000D02*
D03*
X9957800D02*
D03*
X9477800D02*
D03*
X9397800D02*
D03*
X9367800D02*
D03*
X9447800D02*
D03*
X9527800D02*
D03*
X9577800D02*
D03*
X9627800D02*
D03*
X9677800D02*
D03*
X9727800D02*
D03*
X9777800D02*
D03*
X9827800D02*
D03*
X9877800D02*
D03*
X9927800D02*
D03*
X10007800D02*
D03*
D22*
X7556500Y8839200D02*
D03*
Y8654200D02*
D03*
X7200900Y8842800D02*
D03*
Y8657800D02*
D03*
D23*
X11201400Y3894000D02*
D03*
Y3599000D02*
D03*
D24*
X9093200Y3835400D02*
D03*
X8898200D02*
D03*
D25*
X10738100Y4445000D02*
D03*
X10928100D02*
D03*
D26*
X10871200Y6526900D02*
D03*
Y6731900D02*
D03*
X8648700Y3859900D02*
D03*
Y4064900D02*
D03*
D30*
X7392400Y4953000D02*
D03*
D31*
X8152400D02*
D03*
D32*
X12649200Y6210300D02*
D03*
Y6464300D02*
D03*
Y6718300D02*
D03*
X7404100Y7442200D02*
D03*
Y6934200D02*
D03*
Y7188200D02*
D03*
Y7696200D02*
D03*
Y7950200D02*
D03*
X12293600Y6210300D02*
D03*
Y6464300D02*
D03*
Y6718300D02*
D03*
D33*
X12649200Y6972300D02*
D03*
X7404100Y6680200D02*
D03*
X12293600Y6972300D02*
D03*
D34*
X9413800Y3181500D02*
D03*
X9991800D02*
D03*
D35*
X10134800Y2813500D02*
D03*
X9270800D02*
D03*
D36*
X10134800Y3231500D02*
D03*
X9270800D02*
D03*
%TF.MD5,a4a205ecb0b248e62f1ee37147658523*%
M02*
