%TF.GenerationSoftware,Altium Limited,Altium Designer,22.1.2 (22)*%
G04 Layer_Color=16711935*
%FSLAX45Y45*%
%MOMM*%
%TF.SameCoordinates,487542E7-F005-4C77-86B1-A0AEE8F943D7*%
%TF.FilePolarity,Positive*%
%TF.FileFunction,Other,Top_Assembly*%
%TF.Part,Single*%
G01*
G75*
%TA.AperFunction,NonConductor*%
%ADD46C,0.20000*%
G36*
X9686720Y7340099D02*
X9678584D01*
Y7393631D01*
X9659908Y7340099D01*
X9652326D01*
X9633835Y7394555D01*
Y7340099D01*
X9625699D01*
Y7404078D01*
X9638365D01*
X9653528Y7358682D01*
Y7358590D01*
X9653621Y7358405D01*
X9653713Y7358128D01*
X9653898Y7357665D01*
X9654268Y7356556D01*
X9654730Y7355169D01*
X9655192Y7353597D01*
X9655747Y7352025D01*
X9656209Y7350546D01*
X9656579Y7349252D01*
X9656672Y7349437D01*
X9656764Y7349899D01*
X9657041Y7350731D01*
X9657411Y7351841D01*
X9657873Y7353320D01*
X9658521Y7355076D01*
X9659168Y7357111D01*
X9660000Y7359514D01*
X9675348Y7404078D01*
X9686720D01*
Y7340099D01*
D02*
G37*
G36*
X9791380D02*
X9783521D01*
Y7390117D01*
X9783429Y7390025D01*
X9782966Y7389655D01*
X9782412Y7389100D01*
X9781487Y7388453D01*
X9780470Y7387621D01*
X9779176Y7386696D01*
X9777696Y7385679D01*
X9776032Y7384662D01*
X9775940D01*
X9775847Y7384570D01*
X9775293Y7384200D01*
X9774368Y7383738D01*
X9773259Y7383183D01*
X9771964Y7382536D01*
X9770577Y7381889D01*
X9769191Y7381242D01*
X9767804Y7380687D01*
Y7388268D01*
X9767896D01*
X9768081Y7388453D01*
X9768451Y7388546D01*
X9768913Y7388823D01*
X9769468Y7389100D01*
X9770115Y7389470D01*
X9771687Y7390395D01*
X9773536Y7391412D01*
X9775385Y7392706D01*
X9777327Y7394185D01*
X9779268Y7395757D01*
X9779361Y7395850D01*
X9779453Y7395942D01*
X9779731Y7396219D01*
X9780100Y7396497D01*
X9780932Y7397421D01*
X9782042Y7398531D01*
X9783151Y7399825D01*
X9784353Y7401304D01*
X9785370Y7402784D01*
X9786295Y7404356D01*
X9791380D01*
Y7340099D01*
D02*
G37*
G36*
X9726753Y7403986D02*
X9728602Y7403893D01*
X9730451Y7403708D01*
X9732301Y7403431D01*
X9733872Y7403154D01*
X9733965D01*
X9734150Y7403061D01*
X9734427D01*
X9734797Y7402876D01*
X9735814Y7402599D01*
X9737108Y7402137D01*
X9738588Y7401489D01*
X9740159Y7400657D01*
X9741731Y7399733D01*
X9743210Y7398531D01*
X9743303Y7398438D01*
X9743395Y7398346D01*
X9743673Y7398069D01*
X9744042Y7397791D01*
X9744967Y7396867D01*
X9746077Y7395572D01*
X9747278Y7394000D01*
X9748573Y7392151D01*
X9749775Y7390025D01*
X9750792Y7387621D01*
Y7387529D01*
X9750884Y7387344D01*
X9751069Y7386974D01*
X9751162Y7386419D01*
X9751439Y7385772D01*
X9751624Y7385032D01*
X9751809Y7384200D01*
X9752086Y7383183D01*
X9752364Y7382166D01*
X9752548Y7380964D01*
X9753011Y7378375D01*
X9753288Y7375509D01*
X9753381Y7372366D01*
Y7372273D01*
Y7372088D01*
Y7371626D01*
Y7371164D01*
X9753288Y7370517D01*
Y7369777D01*
X9753196Y7368020D01*
X9752918Y7365986D01*
X9752641Y7363860D01*
X9752179Y7361641D01*
X9751624Y7359422D01*
Y7359329D01*
X9751531Y7359145D01*
X9751439Y7358867D01*
X9751347Y7358497D01*
X9750977Y7357480D01*
X9750422Y7356186D01*
X9749867Y7354707D01*
X9749128Y7353227D01*
X9748203Y7351656D01*
X9747278Y7350176D01*
X9747186Y7349991D01*
X9746816Y7349529D01*
X9746261Y7348882D01*
X9745522Y7348050D01*
X9744690Y7347125D01*
X9743673Y7346201D01*
X9742656Y7345184D01*
X9741454Y7344352D01*
X9741269Y7344259D01*
X9740899Y7343982D01*
X9740252Y7343612D01*
X9739327Y7343150D01*
X9738218Y7342595D01*
X9736923Y7342133D01*
X9735444Y7341578D01*
X9733780Y7341116D01*
X9733595D01*
X9733318Y7341023D01*
X9733040Y7340931D01*
X9732116Y7340838D01*
X9730821Y7340653D01*
X9729342Y7340468D01*
X9727585Y7340284D01*
X9725644Y7340191D01*
X9723517Y7340099D01*
X9700496D01*
Y7404078D01*
X9725089D01*
X9726753Y7403986D01*
D02*
G37*
G36*
X7846364Y5019105D02*
X7847011D01*
X7848767Y5018920D01*
X7850709Y5018642D01*
X7852743Y5018180D01*
X7854962Y5017625D01*
X7856996Y5016886D01*
X7857088D01*
X7857273Y5016793D01*
X7857551Y5016608D01*
X7857921Y5016424D01*
X7858845Y5015961D01*
X7860047Y5015129D01*
X7861434Y5014205D01*
X7862821Y5013003D01*
X7864115Y5011616D01*
X7865317Y5010044D01*
Y5009952D01*
X7865409Y5009859D01*
X7865594Y5009582D01*
X7865779Y5009304D01*
X7866242Y5008380D01*
X7866796Y5007178D01*
X7867443Y5005699D01*
X7867906Y5003942D01*
X7868368Y5002093D01*
X7868553Y5000059D01*
X7860417Y4999412D01*
Y4999504D01*
Y4999689D01*
X7860324Y4999966D01*
X7860232Y5000429D01*
X7859955Y5001446D01*
X7859585Y5002833D01*
X7859030Y5004312D01*
X7858198Y5005791D01*
X7857181Y5007178D01*
X7855886Y5008472D01*
X7855702Y5008565D01*
X7855239Y5008935D01*
X7854315Y5009489D01*
X7853113Y5010044D01*
X7851541Y5010599D01*
X7849692Y5011154D01*
X7847381Y5011523D01*
X7844792Y5011616D01*
X7843497D01*
X7842943Y5011523D01*
X7842203Y5011431D01*
X7840539Y5011246D01*
X7838690Y5010876D01*
X7836841Y5010414D01*
X7835084Y5009674D01*
X7834344Y5009212D01*
X7833605Y5008750D01*
X7833420Y5008657D01*
X7833050Y5008287D01*
X7832495Y5007640D01*
X7831940Y5006901D01*
X7831293Y5005884D01*
X7830738Y5004774D01*
X7830369Y5003480D01*
X7830184Y5002000D01*
Y5001815D01*
Y5001446D01*
X7830276Y5000798D01*
X7830461Y5000059D01*
X7830738Y4999134D01*
X7831201Y4998210D01*
X7831755Y4997285D01*
X7832588Y4996361D01*
X7832680Y4996268D01*
X7833142Y4995991D01*
X7833512Y4995713D01*
X7833882Y4995528D01*
X7834437Y4995251D01*
X7835084Y4994881D01*
X7835916Y4994604D01*
X7836841Y4994234D01*
X7837858Y4993864D01*
X7839060Y4993402D01*
X7840354Y4993032D01*
X7841833Y4992570D01*
X7843497Y4992200D01*
X7845347Y4991738D01*
X7845439D01*
X7845809Y4991645D01*
X7846364Y4991553D01*
X7847011Y4991368D01*
X7847843Y4991183D01*
X7848860Y4990906D01*
X7849877Y4990628D01*
X7850986Y4990351D01*
X7853390Y4989704D01*
X7855702Y4989057D01*
X7856811Y4988687D01*
X7857828Y4988317D01*
X7858753Y4988040D01*
X7859492Y4987670D01*
X7859585D01*
X7859770Y4987577D01*
X7860047Y4987392D01*
X7860417Y4987207D01*
X7861434Y4986653D01*
X7862636Y4985913D01*
X7864023Y4984896D01*
X7865409Y4983787D01*
X7866704Y4982492D01*
X7867813Y4981105D01*
X7867906Y4980920D01*
X7868276Y4980458D01*
X7868645Y4979626D01*
X7869200Y4978517D01*
X7869662Y4977222D01*
X7870125Y4975650D01*
X7870402Y4973894D01*
X7870495Y4972045D01*
Y4971952D01*
Y4971860D01*
Y4971582D01*
Y4971213D01*
X7870310Y4970196D01*
X7870125Y4968901D01*
X7869755Y4967422D01*
X7869293Y4965850D01*
X7868553Y4964186D01*
X7867536Y4962429D01*
Y4962337D01*
X7867443Y4962244D01*
X7866981Y4961690D01*
X7866334Y4960857D01*
X7865409Y4959933D01*
X7864208Y4958823D01*
X7862728Y4957622D01*
X7861064Y4956512D01*
X7859122Y4955495D01*
X7859030D01*
X7858845Y4955403D01*
X7858568Y4955310D01*
X7858198Y4955125D01*
X7857643Y4954940D01*
X7856996Y4954663D01*
X7855517Y4954293D01*
X7853760Y4953831D01*
X7851634Y4953369D01*
X7849322Y4953091D01*
X7846826Y4952999D01*
X7845347D01*
X7844607Y4953091D01*
X7843775D01*
X7842850Y4953184D01*
X7841741Y4953276D01*
X7839429Y4953646D01*
X7837025Y4954016D01*
X7834622Y4954663D01*
X7832310Y4955495D01*
X7832218D01*
X7832033Y4955587D01*
X7831755Y4955772D01*
X7831386Y4955957D01*
X7830276Y4956512D01*
X7828982Y4957344D01*
X7827503Y4958454D01*
X7825931Y4959748D01*
X7824451Y4961320D01*
X7823065Y4963076D01*
Y4963169D01*
X7822880Y4963354D01*
X7822787Y4963631D01*
X7822510Y4964001D01*
X7822325Y4964463D01*
X7822048Y4965018D01*
X7821400Y4966405D01*
X7820753Y4968162D01*
X7820198Y4970103D01*
X7819829Y4972322D01*
X7819644Y4974633D01*
X7827595Y4975373D01*
Y4975281D01*
Y4975188D01*
X7827687Y4974911D01*
Y4974541D01*
X7827872Y4973709D01*
X7828150Y4972507D01*
X7828520Y4971305D01*
X7828889Y4969918D01*
X7829537Y4968624D01*
X7830184Y4967422D01*
X7830276Y4967329D01*
X7830554Y4966960D01*
X7831016Y4966312D01*
X7831755Y4965665D01*
X7832680Y4964833D01*
X7833697Y4964001D01*
X7835084Y4963169D01*
X7836563Y4962429D01*
X7836656D01*
X7836748Y4962337D01*
X7837025Y4962244D01*
X7837303Y4962152D01*
X7838227Y4961875D01*
X7839429Y4961505D01*
X7840909Y4961135D01*
X7842573Y4960857D01*
X7844422Y4960673D01*
X7846456Y4960580D01*
X7847288D01*
X7848213Y4960673D01*
X7849322Y4960765D01*
X7850617Y4960950D01*
X7852096Y4961135D01*
X7853575Y4961505D01*
X7854962Y4961967D01*
X7855147Y4962059D01*
X7855609Y4962244D01*
X7856256Y4962614D01*
X7857088Y4962984D01*
X7857921Y4963631D01*
X7858845Y4964278D01*
X7859770Y4965018D01*
X7860509Y4965943D01*
X7860602Y4966035D01*
X7860787Y4966405D01*
X7861064Y4966867D01*
X7861434Y4967607D01*
X7861804Y4968346D01*
X7862081Y4969271D01*
X7862266Y4970288D01*
X7862358Y4971397D01*
Y4971490D01*
Y4971952D01*
X7862266Y4972507D01*
X7862174Y4973247D01*
X7861896Y4973986D01*
X7861619Y4974911D01*
X7861156Y4975835D01*
X7860509Y4976667D01*
X7860417Y4976760D01*
X7860139Y4977037D01*
X7859770Y4977407D01*
X7859122Y4977962D01*
X7858383Y4978517D01*
X7857366Y4979164D01*
X7856164Y4979811D01*
X7854777Y4980366D01*
X7854685Y4980458D01*
X7854222Y4980551D01*
X7853483Y4980828D01*
X7853020Y4980920D01*
X7852373Y4981105D01*
X7851726Y4981383D01*
X7850894Y4981568D01*
X7849969Y4981845D01*
X7848860Y4982122D01*
X7847750Y4982400D01*
X7846456Y4982770D01*
X7844977Y4983139D01*
X7843405Y4983509D01*
X7843312D01*
X7843035Y4983602D01*
X7842573Y4983694D01*
X7842018Y4983879D01*
X7841278Y4984064D01*
X7840446Y4984249D01*
X7838597Y4984804D01*
X7836563Y4985451D01*
X7834437Y4986098D01*
X7832588Y4986745D01*
X7831755Y4987115D01*
X7831016Y4987485D01*
X7830923D01*
X7830831Y4987577D01*
X7830276Y4987947D01*
X7829444Y4988409D01*
X7828520Y4989149D01*
X7827410Y4989981D01*
X7826301Y4990998D01*
X7825191Y4992200D01*
X7824267Y4993494D01*
X7824174Y4993679D01*
X7823897Y4994142D01*
X7823527Y4994881D01*
X7823157Y4995806D01*
X7822787Y4997008D01*
X7822417Y4998395D01*
X7822140Y4999874D01*
X7822048Y5001446D01*
Y5001538D01*
Y5001631D01*
Y5001908D01*
Y5002278D01*
X7822233Y5003202D01*
X7822417Y5004404D01*
X7822695Y5005791D01*
X7823157Y5007363D01*
X7823804Y5008935D01*
X7824729Y5010506D01*
Y5010599D01*
X7824821Y5010691D01*
X7825284Y5011246D01*
X7825931Y5011986D01*
X7826763Y5012910D01*
X7827872Y5013927D01*
X7829259Y5015037D01*
X7830923Y5016054D01*
X7832772Y5016978D01*
X7832865D01*
X7833050Y5017071D01*
X7833327Y5017163D01*
X7833697Y5017348D01*
X7834159Y5017533D01*
X7834807Y5017718D01*
X7836193Y5018088D01*
X7837950Y5018458D01*
X7839984Y5018827D01*
X7842111Y5019105D01*
X7844514Y5019197D01*
X7845716D01*
X7846364Y5019105D01*
D02*
G37*
G36*
X7908494Y4954108D02*
X7900635D01*
Y5004127D01*
X7900543Y5004034D01*
X7900080Y5003665D01*
X7899526Y5003110D01*
X7898601Y5002463D01*
X7897584Y5001631D01*
X7896290Y5000706D01*
X7894810Y4999689D01*
X7893146Y4998672D01*
X7893054D01*
X7892961Y4998580D01*
X7892407Y4998210D01*
X7891482Y4997747D01*
X7890373Y4997193D01*
X7889078Y4996546D01*
X7887691Y4995898D01*
X7886305Y4995251D01*
X7884918Y4994696D01*
Y5002278D01*
X7885010D01*
X7885195Y5002463D01*
X7885565Y5002555D01*
X7886027Y5002833D01*
X7886582Y5003110D01*
X7887229Y5003480D01*
X7888801Y5004404D01*
X7890650Y5005421D01*
X7892499Y5006716D01*
X7894441Y5008195D01*
X7896382Y5009767D01*
X7896475Y5009859D01*
X7896567Y5009952D01*
X7896845Y5010229D01*
X7897214Y5010506D01*
X7898046Y5011431D01*
X7899156Y5012540D01*
X7900265Y5013835D01*
X7901467Y5015314D01*
X7902484Y5016793D01*
X7903409Y5018365D01*
X7908494D01*
Y4954108D01*
D02*
G37*
G36*
X7780905Y4961690D02*
X7812432D01*
Y4954108D01*
X7772399D01*
Y5018088D01*
X7780905D01*
Y4961690D01*
D02*
G37*
G36*
X11492391Y6858303D02*
X11442373D01*
X11442465Y6858210D01*
X11442835Y6857748D01*
X11443390Y6857193D01*
X11444037Y6856268D01*
X11444869Y6855251D01*
X11445793Y6853957D01*
X11446810Y6852478D01*
X11447827Y6850814D01*
Y6850721D01*
X11447920Y6850629D01*
X11448290Y6850074D01*
X11448752Y6849149D01*
X11449307Y6848040D01*
X11449954Y6846746D01*
X11450601Y6845359D01*
X11451248Y6843972D01*
X11451803Y6842585D01*
X11444222D01*
Y6842677D01*
X11444037Y6842862D01*
X11443944Y6843232D01*
X11443667Y6843694D01*
X11443390Y6844249D01*
X11443020Y6844896D01*
X11442095Y6846468D01*
X11441078Y6848317D01*
X11439784Y6850166D01*
X11438305Y6852108D01*
X11436733Y6854050D01*
X11436640Y6854142D01*
X11436548Y6854234D01*
X11436270Y6854512D01*
X11435993Y6854882D01*
X11435069Y6855714D01*
X11433959Y6856823D01*
X11432665Y6857933D01*
X11431185Y6859135D01*
X11429706Y6860152D01*
X11428134Y6861076D01*
Y6866161D01*
X11492391D01*
Y6858303D01*
D02*
G37*
G36*
Y6814293D02*
Y6805972D01*
X11443667Y6792566D01*
X11443575D01*
X11443390Y6792474D01*
X11443112Y6792381D01*
X11442650Y6792289D01*
X11441633Y6792012D01*
X11440431Y6791734D01*
X11439137Y6791364D01*
X11437935Y6790995D01*
X11436918Y6790717D01*
X11436455Y6790625D01*
X11436178Y6790532D01*
X11436270D01*
X11436363Y6790440D01*
X11436918Y6790347D01*
X11437750Y6790162D01*
X11438767Y6789885D01*
X11439876Y6789608D01*
X11441171Y6789238D01*
X11442465Y6788961D01*
X11443667Y6788591D01*
X11492391Y6775092D01*
Y6766216D01*
X11428412Y6749482D01*
Y6758265D01*
X11470387Y6767788D01*
X11470479D01*
X11470664Y6767881D01*
X11471034Y6767973D01*
X11471496Y6768065D01*
X11472143Y6768158D01*
X11472791Y6768343D01*
X11473623Y6768528D01*
X11474547Y6768713D01*
X11476489Y6769175D01*
X11478708Y6769637D01*
X11481112Y6770099D01*
X11483516Y6770562D01*
X11483423D01*
X11483053Y6770654D01*
X11482591Y6770839D01*
X11481851Y6770932D01*
X11481112Y6771117D01*
X11480187Y6771394D01*
X11478153Y6771856D01*
X11476119Y6772411D01*
X11475102Y6772596D01*
X11474177Y6772873D01*
X11473345Y6773058D01*
X11472606Y6773243D01*
X11472051Y6773428D01*
X11471681Y6773520D01*
X11428412Y6785632D01*
Y6795895D01*
X11460864Y6804955D01*
X11460956D01*
X11461419Y6805140D01*
X11462066Y6805325D01*
X11462898Y6805510D01*
X11464007Y6805788D01*
X11465209Y6806157D01*
X11466596Y6806527D01*
X11468168Y6806897D01*
X11469924Y6807359D01*
X11471681Y6807729D01*
X11475472Y6808561D01*
X11479447Y6809393D01*
X11483516Y6810040D01*
X11483423D01*
X11483238Y6810133D01*
X11482868D01*
X11482406Y6810318D01*
X11481851Y6810410D01*
X11481204Y6810595D01*
X11480372Y6810688D01*
X11479447Y6810965D01*
X11477413Y6811427D01*
X11475010Y6811982D01*
X11472421Y6812537D01*
X11469555Y6813276D01*
X11428412Y6823262D01*
Y6831860D01*
X11492391Y6814293D01*
D02*
G37*
G36*
X11476304Y6743565D02*
X11477598Y6743380D01*
X11479078Y6743010D01*
X11480649Y6742548D01*
X11482314Y6741808D01*
X11484070Y6740791D01*
X11484163D01*
X11484255Y6740698D01*
X11484810Y6740236D01*
X11485642Y6739589D01*
X11486567Y6738664D01*
X11487676Y6737463D01*
X11488878Y6735983D01*
X11489987Y6734319D01*
X11491004Y6732377D01*
Y6732285D01*
X11491097Y6732100D01*
X11491189Y6731823D01*
X11491374Y6731453D01*
X11491559Y6730898D01*
X11491837Y6730251D01*
X11492206Y6728772D01*
X11492669Y6727015D01*
X11493131Y6724889D01*
X11493408Y6722577D01*
X11493501Y6720081D01*
Y6718601D01*
X11493408Y6717862D01*
Y6717030D01*
X11493316Y6716105D01*
X11493223Y6714996D01*
X11492854Y6712684D01*
X11492484Y6710280D01*
X11491837Y6707877D01*
X11491004Y6705565D01*
Y6705473D01*
X11490912Y6705288D01*
X11490727Y6705010D01*
X11490542Y6704641D01*
X11489987Y6703531D01*
X11489155Y6702237D01*
X11488046Y6700757D01*
X11486751Y6699186D01*
X11485180Y6697706D01*
X11483423Y6696320D01*
X11483331D01*
X11483146Y6696135D01*
X11482868Y6696042D01*
X11482498Y6695765D01*
X11482036Y6695580D01*
X11481481Y6695303D01*
X11480095Y6694655D01*
X11478338Y6694008D01*
X11476396Y6693453D01*
X11474177Y6693084D01*
X11471866Y6692899D01*
X11471126Y6700850D01*
X11471219D01*
X11471311D01*
X11471589Y6700942D01*
X11471959D01*
X11472791Y6701127D01*
X11473993Y6701405D01*
X11475194Y6701775D01*
X11476581Y6702144D01*
X11477876Y6702792D01*
X11479078Y6703439D01*
X11479170Y6703531D01*
X11479540Y6703809D01*
X11480187Y6704271D01*
X11480834Y6705010D01*
X11481666Y6705935D01*
X11482498Y6706952D01*
X11483331Y6708339D01*
X11484070Y6709818D01*
Y6709911D01*
X11484163Y6710003D01*
X11484255Y6710280D01*
X11484348Y6710558D01*
X11484625Y6711482D01*
X11484995Y6712684D01*
X11485365Y6714164D01*
X11485642Y6715828D01*
X11485827Y6717677D01*
X11485919Y6719711D01*
Y6720543D01*
X11485827Y6721468D01*
X11485734Y6722577D01*
X11485550Y6723871D01*
X11485365Y6725351D01*
X11484995Y6726830D01*
X11484533Y6728217D01*
X11484440Y6728402D01*
X11484255Y6728864D01*
X11483885Y6729511D01*
X11483516Y6730343D01*
X11482868Y6731176D01*
X11482221Y6732100D01*
X11481481Y6733025D01*
X11480557Y6733764D01*
X11480464Y6733857D01*
X11480095Y6734042D01*
X11479632Y6734319D01*
X11478893Y6734689D01*
X11478153Y6735059D01*
X11477229Y6735336D01*
X11476211Y6735521D01*
X11475102Y6735613D01*
X11475010D01*
X11474547D01*
X11473993Y6735521D01*
X11473253Y6735428D01*
X11472513Y6735151D01*
X11471589Y6734874D01*
X11470664Y6734411D01*
X11469832Y6733764D01*
X11469740Y6733672D01*
X11469462Y6733394D01*
X11469092Y6733025D01*
X11468538Y6732377D01*
X11467983Y6731638D01*
X11467336Y6730621D01*
X11466689Y6729419D01*
X11466134Y6728032D01*
X11466041Y6727940D01*
X11465949Y6727477D01*
X11465672Y6726738D01*
X11465579Y6726275D01*
X11465394Y6725628D01*
X11465117Y6724981D01*
X11464932Y6724149D01*
X11464654Y6723224D01*
X11464377Y6722115D01*
X11464100Y6721005D01*
X11463730Y6719711D01*
X11463360Y6718232D01*
X11462990Y6716660D01*
Y6716567D01*
X11462898Y6716290D01*
X11462805Y6715828D01*
X11462620Y6715273D01*
X11462436Y6714533D01*
X11462251Y6713701D01*
X11461696Y6711852D01*
X11461049Y6709818D01*
X11460402Y6707692D01*
X11459754Y6705843D01*
X11459384Y6705010D01*
X11459015Y6704271D01*
Y6704178D01*
X11458922Y6704086D01*
X11458552Y6703531D01*
X11458090Y6702699D01*
X11457350Y6701775D01*
X11456518Y6700665D01*
X11455501Y6699556D01*
X11454299Y6698446D01*
X11453005Y6697522D01*
X11452820Y6697429D01*
X11452358Y6697152D01*
X11451618Y6696782D01*
X11450694Y6696412D01*
X11449492Y6696042D01*
X11448105Y6695672D01*
X11446626Y6695395D01*
X11445054Y6695303D01*
X11444961D01*
X11444869D01*
X11444592D01*
X11444222D01*
X11443297Y6695487D01*
X11442095Y6695672D01*
X11440708Y6695950D01*
X11439137Y6696412D01*
X11437565Y6697059D01*
X11435993Y6697984D01*
X11435901D01*
X11435808Y6698076D01*
X11435253Y6698539D01*
X11434514Y6699186D01*
X11433589Y6700018D01*
X11432572Y6701127D01*
X11431463Y6702514D01*
X11430446Y6704178D01*
X11429521Y6706027D01*
Y6706120D01*
X11429429Y6706305D01*
X11429336Y6706582D01*
X11429151Y6706952D01*
X11428966Y6707414D01*
X11428782Y6708062D01*
X11428412Y6709448D01*
X11428042Y6711205D01*
X11427672Y6713239D01*
X11427395Y6715366D01*
X11427302Y6717769D01*
Y6718971D01*
X11427395Y6719619D01*
Y6720266D01*
X11427580Y6722022D01*
X11427857Y6723964D01*
X11428319Y6725998D01*
X11428874Y6728217D01*
X11429614Y6730251D01*
Y6730343D01*
X11429706Y6730528D01*
X11429891Y6730806D01*
X11430076Y6731176D01*
X11430538Y6732100D01*
X11431370Y6733302D01*
X11432295Y6734689D01*
X11433497Y6736076D01*
X11434884Y6737370D01*
X11436455Y6738572D01*
X11436548D01*
X11436640Y6738664D01*
X11436918Y6738849D01*
X11437195Y6739034D01*
X11438120Y6739497D01*
X11439322Y6740051D01*
X11440801Y6740698D01*
X11442558Y6741161D01*
X11444407Y6741623D01*
X11446441Y6741808D01*
X11447088Y6733672D01*
X11446995D01*
X11446810D01*
X11446533Y6733579D01*
X11446071Y6733487D01*
X11445054Y6733210D01*
X11443667Y6732840D01*
X11442188Y6732285D01*
X11440708Y6731453D01*
X11439322Y6730436D01*
X11438027Y6729141D01*
X11437935Y6728957D01*
X11437565Y6728494D01*
X11437010Y6727570D01*
X11436455Y6726368D01*
X11435901Y6724796D01*
X11435346Y6722947D01*
X11434976Y6720636D01*
X11434884Y6718047D01*
Y6716752D01*
X11434976Y6716198D01*
X11435069Y6715458D01*
X11435253Y6713794D01*
X11435623Y6711945D01*
X11436086Y6710096D01*
X11436825Y6708339D01*
X11437288Y6707599D01*
X11437750Y6706860D01*
X11437842Y6706675D01*
X11438212Y6706305D01*
X11438859Y6705750D01*
X11439599Y6705195D01*
X11440616Y6704548D01*
X11441725Y6703993D01*
X11443020Y6703624D01*
X11444499Y6703439D01*
X11444684D01*
X11445054D01*
X11445701Y6703531D01*
X11446441Y6703716D01*
X11447365Y6703993D01*
X11448290Y6704456D01*
X11449214Y6705010D01*
X11450139Y6705843D01*
X11450231Y6705935D01*
X11450509Y6706397D01*
X11450786Y6706767D01*
X11450971Y6707137D01*
X11451248Y6707692D01*
X11451618Y6708339D01*
X11451896Y6709171D01*
X11452265Y6710096D01*
X11452635Y6711113D01*
X11453097Y6712314D01*
X11453467Y6713609D01*
X11453930Y6715088D01*
X11454299Y6716752D01*
X11454762Y6718601D01*
Y6718694D01*
X11454854Y6719064D01*
X11454947Y6719619D01*
X11455132Y6720266D01*
X11455316Y6721098D01*
X11455594Y6722115D01*
X11455871Y6723132D01*
X11456149Y6724241D01*
X11456796Y6726645D01*
X11457443Y6728957D01*
X11457813Y6730066D01*
X11458183Y6731083D01*
X11458460Y6732008D01*
X11458830Y6732747D01*
Y6732840D01*
X11458922Y6733025D01*
X11459107Y6733302D01*
X11459292Y6733672D01*
X11459847Y6734689D01*
X11460586Y6735891D01*
X11461603Y6737278D01*
X11462713Y6738664D01*
X11464007Y6739959D01*
X11465394Y6741068D01*
X11465579Y6741161D01*
X11466041Y6741531D01*
X11466873Y6741900D01*
X11467983Y6742455D01*
X11469277Y6742917D01*
X11470849Y6743380D01*
X11472606Y6743657D01*
X11474455Y6743750D01*
X11474547D01*
X11474640D01*
X11474917D01*
X11475287D01*
X11476304Y6743565D01*
D02*
G37*
G36*
X8584092Y3503166D02*
X8583999D01*
X8583629D01*
X8583075D01*
X8582335Y3503258D01*
X8581503Y3503351D01*
X8580578Y3503536D01*
X8579654Y3503720D01*
X8578637Y3504090D01*
X8578544D01*
X8578452Y3504183D01*
X8577897Y3504368D01*
X8577065Y3504737D01*
X8575955Y3505292D01*
X8574661Y3506032D01*
X8573182Y3506956D01*
X8571702Y3507973D01*
X8570131Y3509268D01*
X8570038D01*
X8569946Y3509453D01*
X8569391Y3509915D01*
X8568559Y3510747D01*
X8567357Y3511949D01*
X8565970Y3513336D01*
X8564306Y3515093D01*
X8562457Y3517219D01*
X8560515Y3519530D01*
X8560423Y3519623D01*
X8560145Y3519993D01*
X8559683Y3520547D01*
X8559128Y3521195D01*
X8558389Y3522027D01*
X8557557Y3523044D01*
X8556632Y3524061D01*
X8555615Y3525263D01*
X8553396Y3527574D01*
X8551177Y3529885D01*
X8550068Y3530995D01*
X8548958Y3532012D01*
X8547941Y3532937D01*
X8546924Y3533676D01*
X8546832D01*
X8546739Y3533861D01*
X8546462Y3534046D01*
X8546092Y3534231D01*
X8545075Y3534878D01*
X8543873Y3535618D01*
X8542394Y3536265D01*
X8540822Y3536912D01*
X8539065Y3537282D01*
X8537401Y3537467D01*
X8537309D01*
X8537216D01*
X8536662Y3537374D01*
X8535737Y3537282D01*
X8534720Y3537005D01*
X8533426Y3536635D01*
X8532131Y3535988D01*
X8530837Y3535155D01*
X8529543Y3534046D01*
X8529358Y3533861D01*
X8528988Y3533399D01*
X8528525Y3532752D01*
X8527878Y3531735D01*
X8527324Y3530440D01*
X8526769Y3528961D01*
X8526399Y3527204D01*
X8526307Y3525263D01*
Y3524708D01*
X8526399Y3524338D01*
X8526491Y3523229D01*
X8526769Y3521934D01*
X8527139Y3520547D01*
X8527786Y3518976D01*
X8528618Y3517496D01*
X8529727Y3516110D01*
X8529912Y3515925D01*
X8530375Y3515555D01*
X8531114Y3515000D01*
X8532224Y3514445D01*
X8533518Y3513798D01*
X8535182Y3513243D01*
X8537031Y3512874D01*
X8539158Y3512689D01*
X8538326Y3504645D01*
X8538233D01*
X8537956Y3504737D01*
X8537494D01*
X8536847Y3504830D01*
X8536107Y3505015D01*
X8535275Y3505200D01*
X8534258Y3505477D01*
X8533241Y3505754D01*
X8531022Y3506494D01*
X8528803Y3507604D01*
X8527693Y3508251D01*
X8526584Y3509083D01*
X8525567Y3509915D01*
X8524642Y3510840D01*
X8524550Y3510932D01*
X8524457Y3511117D01*
X8524180Y3511394D01*
X8523903Y3511857D01*
X8523533Y3512411D01*
X8523163Y3513059D01*
X8522701Y3513798D01*
X8522238Y3514723D01*
X8521776Y3515740D01*
X8521314Y3516849D01*
X8520944Y3518051D01*
X8520574Y3519346D01*
X8520297Y3520732D01*
X8520020Y3522212D01*
X8519927Y3523783D01*
X8519835Y3525448D01*
Y3526372D01*
X8519927Y3527019D01*
X8520020Y3527759D01*
X8520112Y3528684D01*
X8520297Y3529701D01*
X8520482Y3530718D01*
X8521129Y3533121D01*
X8522054Y3535525D01*
X8522608Y3536727D01*
X8523255Y3537929D01*
X8524088Y3539039D01*
X8525012Y3540056D01*
X8525105Y3540148D01*
X8525197Y3540333D01*
X8525567Y3540518D01*
X8525937Y3540888D01*
X8526399Y3541350D01*
X8527046Y3541812D01*
X8527693Y3542275D01*
X8528525Y3542829D01*
X8530282Y3543754D01*
X8532501Y3544678D01*
X8533611Y3545048D01*
X8534905Y3545233D01*
X8536199Y3545418D01*
X8537586Y3545511D01*
X8537771D01*
X8538233D01*
X8538973Y3545418D01*
X8539990Y3545326D01*
X8541100Y3545141D01*
X8542394Y3544771D01*
X8543781Y3544401D01*
X8545168Y3543846D01*
X8545352Y3543754D01*
X8545815Y3543569D01*
X8546554Y3543199D01*
X8547571Y3542644D01*
X8548681Y3541905D01*
X8550068Y3540980D01*
X8551455Y3539871D01*
X8553026Y3538576D01*
X8553211Y3538391D01*
X8553766Y3537929D01*
X8554228Y3537467D01*
X8554691Y3537005D01*
X8555245Y3536450D01*
X8555985Y3535710D01*
X8556725Y3534971D01*
X8557557Y3534046D01*
X8558481Y3533121D01*
X8559498Y3532012D01*
X8560515Y3530810D01*
X8561717Y3529516D01*
X8562919Y3528036D01*
X8564214Y3526557D01*
X8564306Y3526465D01*
X8564491Y3526280D01*
X8564768Y3525910D01*
X8565138Y3525448D01*
X8565693Y3524893D01*
X8566248Y3524246D01*
X8567449Y3522766D01*
X8568836Y3521195D01*
X8570223Y3519715D01*
X8571425Y3518421D01*
X8571887Y3517866D01*
X8572350Y3517404D01*
X8572442Y3517311D01*
X8572719Y3517034D01*
X8573089Y3516664D01*
X8573644Y3516202D01*
X8574291Y3515740D01*
X8574938Y3515185D01*
X8576510Y3514076D01*
Y3545603D01*
X8584092D01*
Y3503166D01*
D02*
G37*
G36*
Y3481993D02*
Y3473672D01*
X8535367Y3460266D01*
X8535275D01*
X8535090Y3460174D01*
X8534812Y3460081D01*
X8534350Y3459989D01*
X8533333Y3459711D01*
X8532131Y3459434D01*
X8530837Y3459064D01*
X8529635Y3458694D01*
X8528618Y3458417D01*
X8528156Y3458325D01*
X8527878Y3458232D01*
X8527971D01*
X8528063Y3458140D01*
X8528618Y3458047D01*
X8529450Y3457862D01*
X8530467Y3457585D01*
X8531577Y3457308D01*
X8532871Y3456938D01*
X8534165Y3456660D01*
X8535367Y3456291D01*
X8584092Y3442792D01*
Y3433916D01*
X8520112Y3417182D01*
Y3425965D01*
X8562087Y3435488D01*
X8562179D01*
X8562364Y3435580D01*
X8562734Y3435673D01*
X8563196Y3435765D01*
X8563844Y3435858D01*
X8564491Y3436043D01*
X8565323Y3436228D01*
X8566248Y3436412D01*
X8568189Y3436875D01*
X8570408Y3437337D01*
X8572812Y3437799D01*
X8575216Y3438262D01*
X8575123D01*
X8574753Y3438354D01*
X8574291Y3438539D01*
X8573552Y3438631D01*
X8572812Y3438816D01*
X8571887Y3439094D01*
X8569853Y3439556D01*
X8567819Y3440111D01*
X8566802Y3440296D01*
X8565878Y3440573D01*
X8565046Y3440758D01*
X8564306Y3440943D01*
X8563751Y3441128D01*
X8563381Y3441220D01*
X8520112Y3453332D01*
Y3463595D01*
X8552564Y3472655D01*
X8552657D01*
X8553119Y3472840D01*
X8553766Y3473025D01*
X8554598Y3473210D01*
X8555708Y3473487D01*
X8556909Y3473857D01*
X8558296Y3474227D01*
X8559868Y3474597D01*
X8561625Y3475059D01*
X8563381Y3475429D01*
X8567172Y3476261D01*
X8571148Y3477093D01*
X8575216Y3477740D01*
X8575123D01*
X8574938Y3477833D01*
X8574569D01*
X8574106Y3478018D01*
X8573552Y3478110D01*
X8572904Y3478295D01*
X8572072Y3478388D01*
X8571148Y3478665D01*
X8569114Y3479127D01*
X8566710Y3479682D01*
X8564121Y3480237D01*
X8561255Y3480976D01*
X8520112Y3490962D01*
Y3499560D01*
X8584092Y3481993D01*
D02*
G37*
G36*
X8568004Y3411264D02*
X8569299Y3411080D01*
X8570778Y3410710D01*
X8572350Y3410247D01*
X8574014Y3409508D01*
X8575771Y3408491D01*
X8575863D01*
X8575955Y3408398D01*
X8576510Y3407936D01*
X8577342Y3407289D01*
X8578267Y3406364D01*
X8579376Y3405162D01*
X8580578Y3403683D01*
X8581688Y3402019D01*
X8582705Y3400077D01*
Y3399985D01*
X8582797Y3399800D01*
X8582890Y3399523D01*
X8583075Y3399153D01*
X8583259Y3398598D01*
X8583537Y3397951D01*
X8583907Y3396471D01*
X8584369Y3394715D01*
X8584831Y3392588D01*
X8585109Y3390277D01*
X8585201Y3387781D01*
Y3386301D01*
X8585109Y3385562D01*
Y3384730D01*
X8585016Y3383805D01*
X8584924Y3382696D01*
X8584554Y3380384D01*
X8584184Y3377980D01*
X8583537Y3375576D01*
X8582705Y3373265D01*
Y3373173D01*
X8582612Y3372988D01*
X8582427Y3372710D01*
X8582242Y3372340D01*
X8581688Y3371231D01*
X8580856Y3369937D01*
X8579746Y3368457D01*
X8578452Y3366886D01*
X8576880Y3365406D01*
X8575123Y3364019D01*
X8575031D01*
X8574846Y3363835D01*
X8574569Y3363742D01*
X8574199Y3363465D01*
X8573736Y3363280D01*
X8573182Y3363002D01*
X8571795Y3362355D01*
X8570038Y3361708D01*
X8568097Y3361153D01*
X8565878Y3360783D01*
X8563566Y3360599D01*
X8562827Y3368550D01*
X8562919D01*
X8563012D01*
X8563289Y3368642D01*
X8563659D01*
X8564491Y3368827D01*
X8565693Y3369105D01*
X8566895Y3369474D01*
X8568282Y3369844D01*
X8569576Y3370491D01*
X8570778Y3371139D01*
X8570870Y3371231D01*
X8571240Y3371508D01*
X8571887Y3371971D01*
X8572535Y3372710D01*
X8573367Y3373635D01*
X8574199Y3374652D01*
X8575031Y3376039D01*
X8575771Y3377518D01*
Y3377610D01*
X8575863Y3377703D01*
X8575955Y3377980D01*
X8576048Y3378258D01*
X8576325Y3379182D01*
X8576695Y3380384D01*
X8577065Y3381863D01*
X8577342Y3383528D01*
X8577527Y3385377D01*
X8577620Y3387411D01*
Y3388243D01*
X8577527Y3389167D01*
X8577435Y3390277D01*
X8577250Y3391571D01*
X8577065Y3393051D01*
X8576695Y3394530D01*
X8576233Y3395917D01*
X8576140Y3396102D01*
X8575955Y3396564D01*
X8575586Y3397211D01*
X8575216Y3398043D01*
X8574569Y3398875D01*
X8573921Y3399800D01*
X8573182Y3400724D01*
X8572257Y3401464D01*
X8572165Y3401557D01*
X8571795Y3401741D01*
X8571333Y3402019D01*
X8570593Y3402389D01*
X8569853Y3402758D01*
X8568929Y3403036D01*
X8567912Y3403221D01*
X8566802Y3403313D01*
X8566710D01*
X8566248D01*
X8565693Y3403221D01*
X8564953Y3403128D01*
X8564214Y3402851D01*
X8563289Y3402574D01*
X8562364Y3402111D01*
X8561532Y3401464D01*
X8561440Y3401372D01*
X8561162Y3401094D01*
X8560793Y3400724D01*
X8560238Y3400077D01*
X8559683Y3399338D01*
X8559036Y3398321D01*
X8558389Y3397119D01*
X8557834Y3395732D01*
X8557742Y3395639D01*
X8557649Y3395177D01*
X8557372Y3394437D01*
X8557279Y3393975D01*
X8557094Y3393328D01*
X8556817Y3392681D01*
X8556632Y3391849D01*
X8556355Y3390924D01*
X8556077Y3389815D01*
X8555800Y3388705D01*
X8555430Y3387411D01*
X8555060Y3385932D01*
X8554691Y3384360D01*
Y3384267D01*
X8554598Y3383990D01*
X8554506Y3383528D01*
X8554321Y3382973D01*
X8554136Y3382233D01*
X8553951Y3381401D01*
X8553396Y3379552D01*
X8552749Y3377518D01*
X8552102Y3375392D01*
X8551455Y3373542D01*
X8551085Y3372710D01*
X8550715Y3371971D01*
Y3371878D01*
X8550622Y3371786D01*
X8550253Y3371231D01*
X8549790Y3370399D01*
X8549051Y3369474D01*
X8548219Y3368365D01*
X8547202Y3367255D01*
X8546000Y3366146D01*
X8544705Y3365221D01*
X8544520Y3365129D01*
X8544058Y3364852D01*
X8543318Y3364482D01*
X8542394Y3364112D01*
X8541192Y3363742D01*
X8539805Y3363372D01*
X8538326Y3363095D01*
X8536754Y3363002D01*
X8536662D01*
X8536569D01*
X8536292D01*
X8535922D01*
X8534997Y3363187D01*
X8533795Y3363372D01*
X8532409Y3363650D01*
X8530837Y3364112D01*
X8529265Y3364759D01*
X8527693Y3365684D01*
X8527601D01*
X8527508Y3365776D01*
X8526954Y3366238D01*
X8526214Y3366886D01*
X8525290Y3367718D01*
X8524273Y3368827D01*
X8523163Y3370214D01*
X8522146Y3371878D01*
X8521221Y3373727D01*
Y3373820D01*
X8521129Y3374005D01*
X8521037Y3374282D01*
X8520852Y3374652D01*
X8520667Y3375114D01*
X8520482Y3375761D01*
X8520112Y3377148D01*
X8519742Y3378905D01*
X8519372Y3380939D01*
X8519095Y3383065D01*
X8519003Y3385469D01*
Y3386671D01*
X8519095Y3387318D01*
Y3387966D01*
X8519280Y3389722D01*
X8519557Y3391664D01*
X8520020Y3393698D01*
X8520574Y3395917D01*
X8521314Y3397951D01*
Y3398043D01*
X8521406Y3398228D01*
X8521591Y3398506D01*
X8521776Y3398875D01*
X8522238Y3399800D01*
X8523071Y3401002D01*
X8523995Y3402389D01*
X8525197Y3403776D01*
X8526584Y3405070D01*
X8528156Y3406272D01*
X8528248D01*
X8528341Y3406364D01*
X8528618Y3406549D01*
X8528895Y3406734D01*
X8529820Y3407196D01*
X8531022Y3407751D01*
X8532501Y3408398D01*
X8534258Y3408861D01*
X8536107Y3409323D01*
X8538141Y3409508D01*
X8538788Y3401372D01*
X8538696D01*
X8538511D01*
X8538233Y3401279D01*
X8537771Y3401187D01*
X8536754Y3400909D01*
X8535367Y3400540D01*
X8533888Y3399985D01*
X8532409Y3399153D01*
X8531022Y3398136D01*
X8529727Y3396841D01*
X8529635Y3396656D01*
X8529265Y3396194D01*
X8528710Y3395270D01*
X8528156Y3394068D01*
X8527601Y3392496D01*
X8527046Y3390647D01*
X8526676Y3388335D01*
X8526584Y3385747D01*
Y3384452D01*
X8526676Y3383897D01*
X8526769Y3383158D01*
X8526954Y3381494D01*
X8527324Y3379644D01*
X8527786Y3377795D01*
X8528525Y3376039D01*
X8528988Y3375299D01*
X8529450Y3374559D01*
X8529543Y3374375D01*
X8529912Y3374005D01*
X8530560Y3373450D01*
X8531299Y3372895D01*
X8532316Y3372248D01*
X8533426Y3371693D01*
X8534720Y3371323D01*
X8536199Y3371139D01*
X8536384D01*
X8536754D01*
X8537401Y3371231D01*
X8538141Y3371416D01*
X8539065Y3371693D01*
X8539990Y3372156D01*
X8540915Y3372710D01*
X8541839Y3373542D01*
X8541932Y3373635D01*
X8542209Y3374097D01*
X8542486Y3374467D01*
X8542671Y3374837D01*
X8542949Y3375392D01*
X8543318Y3376039D01*
X8543596Y3376871D01*
X8543966Y3377795D01*
X8544335Y3378812D01*
X8544798Y3380014D01*
X8545168Y3381309D01*
X8545630Y3382788D01*
X8546000Y3384452D01*
X8546462Y3386301D01*
Y3386394D01*
X8546554Y3386764D01*
X8546647Y3387318D01*
X8546832Y3387966D01*
X8547017Y3388798D01*
X8547294Y3389815D01*
X8547571Y3390832D01*
X8547849Y3391941D01*
X8548496Y3394345D01*
X8549143Y3396656D01*
X8549513Y3397766D01*
X8549883Y3398783D01*
X8550160Y3399707D01*
X8550530Y3400447D01*
Y3400540D01*
X8550622Y3400724D01*
X8550807Y3401002D01*
X8550992Y3401372D01*
X8551547Y3402389D01*
X8552287Y3403591D01*
X8553304Y3404977D01*
X8554413Y3406364D01*
X8555708Y3407659D01*
X8557094Y3408768D01*
X8557279Y3408861D01*
X8557742Y3409230D01*
X8558574Y3409600D01*
X8559683Y3410155D01*
X8560978Y3410617D01*
X8562549Y3411080D01*
X8564306Y3411357D01*
X8566155Y3411449D01*
X8566248D01*
X8566340D01*
X8566617D01*
X8566987D01*
X8568004Y3411264D01*
D02*
G37*
G36*
X10502901Y3997095D02*
X10502808D01*
X10502438D01*
X10501884D01*
X10501144Y3997188D01*
X10500312Y3997280D01*
X10499387Y3997465D01*
X10498463Y3997650D01*
X10497446Y3998020D01*
X10497353D01*
X10497261Y3998112D01*
X10496706Y3998297D01*
X10495874Y3998667D01*
X10494765Y3999222D01*
X10493470Y3999961D01*
X10491991Y4000886D01*
X10490512Y4001903D01*
X10488940Y4003197D01*
X10488847D01*
X10488755Y4003382D01*
X10488200Y4003844D01*
X10487368Y4004677D01*
X10486166Y4005878D01*
X10484779Y4007265D01*
X10483115Y4009022D01*
X10481266Y4011148D01*
X10479324Y4013460D01*
X10479232Y4013552D01*
X10478955Y4013922D01*
X10478492Y4014477D01*
X10477938Y4015124D01*
X10477198Y4015956D01*
X10476366Y4016973D01*
X10475441Y4017990D01*
X10474424Y4019192D01*
X10472205Y4021504D01*
X10469986Y4023815D01*
X10468877Y4024924D01*
X10467767Y4025941D01*
X10466750Y4026866D01*
X10465733Y4027606D01*
X10465641D01*
X10465549Y4027791D01*
X10465271Y4027975D01*
X10464901Y4028160D01*
X10463884Y4028808D01*
X10462682Y4029547D01*
X10461203Y4030194D01*
X10459631Y4030842D01*
X10457875Y4031211D01*
X10456210Y4031396D01*
X10456118D01*
X10456026D01*
X10455471Y4031304D01*
X10454546Y4031211D01*
X10453529Y4030934D01*
X10452235Y4030564D01*
X10450940Y4029917D01*
X10449646Y4029085D01*
X10448352Y4027975D01*
X10448167Y4027791D01*
X10447797Y4027328D01*
X10447335Y4026681D01*
X10446688Y4025664D01*
X10446133Y4024370D01*
X10445578Y4022890D01*
X10445208Y4021134D01*
X10445116Y4019192D01*
Y4018637D01*
X10445208Y4018268D01*
X10445301Y4017158D01*
X10445578Y4015864D01*
X10445948Y4014477D01*
X10446595Y4012905D01*
X10447427Y4011426D01*
X10448537Y4010039D01*
X10448722Y4009854D01*
X10449184Y4009484D01*
X10449923Y4008929D01*
X10451033Y4008375D01*
X10452327Y4007728D01*
X10453992Y4007173D01*
X10455841Y4006803D01*
X10457967Y4006618D01*
X10457135Y3998574D01*
X10457043D01*
X10456765Y3998667D01*
X10456303D01*
X10455656Y3998759D01*
X10454916Y3998944D01*
X10454084Y3999129D01*
X10453067Y3999407D01*
X10452050Y3999684D01*
X10449831Y4000424D01*
X10447612Y4001533D01*
X10446503Y4002180D01*
X10445393Y4003012D01*
X10444376Y4003844D01*
X10443452Y4004769D01*
X10443359Y4004861D01*
X10443267Y4005046D01*
X10442989Y4005324D01*
X10442712Y4005786D01*
X10442342Y4006341D01*
X10441972Y4006988D01*
X10441510Y4007728D01*
X10441048Y4008652D01*
X10440585Y4009669D01*
X10440123Y4010779D01*
X10439753Y4011981D01*
X10439383Y4013275D01*
X10439106Y4014662D01*
X10438829Y4016141D01*
X10438736Y4017713D01*
X10438644Y4019377D01*
Y4020302D01*
X10438736Y4020949D01*
X10438829Y4021688D01*
X10438921Y4022613D01*
X10439106Y4023630D01*
X10439291Y4024647D01*
X10439938Y4027051D01*
X10440863Y4029455D01*
X10441418Y4030657D01*
X10442065Y4031859D01*
X10442897Y4032968D01*
X10443821Y4033985D01*
X10443914Y4034078D01*
X10444006Y4034262D01*
X10444376Y4034447D01*
X10444746Y4034817D01*
X10445208Y4035279D01*
X10445855Y4035742D01*
X10446503Y4036204D01*
X10447335Y4036759D01*
X10449091Y4037683D01*
X10451310Y4038608D01*
X10452420Y4038978D01*
X10453714Y4039163D01*
X10455009Y4039348D01*
X10456395Y4039440D01*
X10456580D01*
X10457043D01*
X10457782Y4039348D01*
X10458799Y4039255D01*
X10459909Y4039070D01*
X10461203Y4038700D01*
X10462590Y4038331D01*
X10463977Y4037776D01*
X10464162Y4037683D01*
X10464624Y4037498D01*
X10465364Y4037129D01*
X10466381Y4036574D01*
X10467490Y4035834D01*
X10468877Y4034910D01*
X10470264Y4033800D01*
X10471836Y4032506D01*
X10472020Y4032321D01*
X10472575Y4031859D01*
X10473037Y4031396D01*
X10473500Y4030934D01*
X10474054Y4030379D01*
X10474794Y4029640D01*
X10475534Y4028900D01*
X10476366Y4027975D01*
X10477290Y4027051D01*
X10478307Y4025941D01*
X10479324Y4024739D01*
X10480526Y4023445D01*
X10481728Y4021966D01*
X10483023Y4020486D01*
X10483115Y4020394D01*
X10483300Y4020209D01*
X10483577Y4019839D01*
X10483947Y4019377D01*
X10484502Y4018822D01*
X10485057Y4018175D01*
X10486259Y4016696D01*
X10487646Y4015124D01*
X10489032Y4013645D01*
X10490234Y4012350D01*
X10490697Y4011796D01*
X10491159Y4011333D01*
X10491251Y4011241D01*
X10491529Y4010964D01*
X10491898Y4010594D01*
X10492453Y4010131D01*
X10493100Y4009669D01*
X10493748Y4009114D01*
X10495319Y4008005D01*
Y4039532D01*
X10502901D01*
Y3997095D01*
D02*
G37*
G36*
Y3982672D02*
X10489587Y3974258D01*
X10489495D01*
X10489310Y3974074D01*
X10489032Y3973889D01*
X10488663Y3973611D01*
X10487646Y3972964D01*
X10486351Y3972132D01*
X10484964Y3971115D01*
X10483485Y3970098D01*
X10482098Y3969081D01*
X10480804Y3968156D01*
X10480711Y3968064D01*
X10480341Y3967787D01*
X10479787Y3967324D01*
X10479140Y3966677D01*
X10477753Y3965290D01*
X10477106Y3964551D01*
X10476551Y3963811D01*
X10476458Y3963719D01*
X10476366Y3963534D01*
X10476181Y3963164D01*
X10475904Y3962609D01*
X10475626Y3962054D01*
X10475349Y3961407D01*
X10474887Y3959928D01*
Y3959835D01*
X10474794Y3959650D01*
Y3959281D01*
X10474702Y3958818D01*
X10474609Y3958171D01*
Y3957432D01*
X10474517Y3956414D01*
Y3945505D01*
X10502901D01*
Y3936999D01*
X10438921D01*
Y3966677D01*
X10439014Y3967417D01*
Y3968249D01*
X10439106Y3970190D01*
X10439383Y3972224D01*
X10439661Y3974443D01*
X10440123Y3976477D01*
X10440401Y3977494D01*
X10440678Y3978327D01*
Y3978419D01*
X10440770Y3978511D01*
X10441048Y3979066D01*
X10441418Y3979898D01*
X10442065Y3980915D01*
X10442897Y3982025D01*
X10444006Y3983227D01*
X10445301Y3984336D01*
X10446780Y3985446D01*
X10446872D01*
X10446965Y3985538D01*
X10447520Y3985908D01*
X10448444Y3986278D01*
X10449646Y3986833D01*
X10451033Y3987295D01*
X10452697Y3987757D01*
X10454454Y3988034D01*
X10456395Y3988127D01*
X10456488D01*
X10456673D01*
X10457043D01*
X10457505Y3988034D01*
X10458152D01*
X10458799Y3987942D01*
X10460371Y3987572D01*
X10462220Y3987017D01*
X10464162Y3986278D01*
X10466103Y3985168D01*
X10467028Y3984429D01*
X10467952Y3983689D01*
X10468045Y3983597D01*
X10468137Y3983504D01*
X10468415Y3983227D01*
X10468692Y3982857D01*
X10469062Y3982395D01*
X10469432Y3981840D01*
X10469894Y3981100D01*
X10470449Y3980361D01*
X10470911Y3979436D01*
X10471373Y3978419D01*
X10471928Y3977310D01*
X10472390Y3976108D01*
X10472760Y3974721D01*
X10473222Y3973334D01*
X10473500Y3971762D01*
X10473777Y3970098D01*
X10473870Y3970283D01*
X10474054Y3970653D01*
X10474424Y3971207D01*
X10474794Y3971947D01*
X10475811Y3973611D01*
X10476458Y3974443D01*
X10477013Y3975183D01*
X10477198Y3975368D01*
X10477660Y3975830D01*
X10478400Y3976570D01*
X10479324Y3977494D01*
X10480619Y3978511D01*
X10482006Y3979713D01*
X10483670Y3980915D01*
X10485519Y3982210D01*
X10502901Y3993212D01*
Y3982672D01*
D02*
G37*
G36*
X9086491Y3835399D02*
X9078632D01*
Y3885417D01*
X9078539Y3885325D01*
X9078077Y3884955D01*
X9077522Y3884400D01*
X9076598Y3883753D01*
X9075581Y3882921D01*
X9074286Y3881997D01*
X9072807Y3880980D01*
X9071143Y3879963D01*
X9071050D01*
X9070958Y3879870D01*
X9070403Y3879500D01*
X9069479Y3879038D01*
X9068369Y3878483D01*
X9067075Y3877836D01*
X9065688Y3877189D01*
X9064301Y3876542D01*
X9062914Y3875987D01*
Y3883568D01*
X9063007D01*
X9063192Y3883753D01*
X9063562Y3883846D01*
X9064024Y3884123D01*
X9064579Y3884400D01*
X9065226Y3884770D01*
X9066797Y3885695D01*
X9068647Y3886712D01*
X9070496Y3888006D01*
X9072437Y3889485D01*
X9074379Y3891057D01*
X9074471Y3891150D01*
X9074564Y3891242D01*
X9074841Y3891520D01*
X9075211Y3891797D01*
X9076043Y3892721D01*
X9077153Y3893831D01*
X9078262Y3895125D01*
X9079464Y3896605D01*
X9080481Y3898084D01*
X9081406Y3899656D01*
X9086491D01*
Y3835399D01*
D02*
G37*
G36*
X9026117Y3899286D02*
X9026949D01*
X9028891Y3899193D01*
X9030925Y3898916D01*
X9033143Y3898639D01*
X9035178Y3898176D01*
X9036195Y3897899D01*
X9037027Y3897622D01*
X9037119D01*
X9037212Y3897529D01*
X9037766Y3897252D01*
X9038598Y3896882D01*
X9039615Y3896235D01*
X9040725Y3895403D01*
X9041927Y3894293D01*
X9043036Y3892999D01*
X9044146Y3891520D01*
Y3891427D01*
X9044238Y3891335D01*
X9044608Y3890780D01*
X9044978Y3889855D01*
X9045533Y3888653D01*
X9045995Y3887267D01*
X9046457Y3885602D01*
X9046735Y3883846D01*
X9046827Y3881904D01*
Y3881812D01*
Y3881627D01*
Y3881257D01*
X9046735Y3880795D01*
Y3880147D01*
X9046642Y3879500D01*
X9046272Y3877928D01*
X9045717Y3876079D01*
X9044978Y3874138D01*
X9043868Y3872196D01*
X9043129Y3871272D01*
X9042389Y3870347D01*
X9042297Y3870255D01*
X9042204Y3870162D01*
X9041927Y3869885D01*
X9041557Y3869607D01*
X9041095Y3869238D01*
X9040540Y3868868D01*
X9039800Y3868406D01*
X9039061Y3867851D01*
X9038136Y3867389D01*
X9037119Y3866926D01*
X9036010Y3866371D01*
X9034808Y3865909D01*
X9033421Y3865539D01*
X9032034Y3865077D01*
X9030462Y3864800D01*
X9028798Y3864522D01*
X9028983Y3864430D01*
X9029353Y3864245D01*
X9029908Y3863875D01*
X9030647Y3863505D01*
X9032311Y3862488D01*
X9033143Y3861841D01*
X9033883Y3861286D01*
X9034068Y3861101D01*
X9034530Y3860639D01*
X9035270Y3859900D01*
X9036195Y3858975D01*
X9037212Y3857681D01*
X9038413Y3856294D01*
X9039615Y3854630D01*
X9040910Y3852780D01*
X9051912Y3835399D01*
X9041372D01*
X9032959Y3848712D01*
Y3848805D01*
X9032774Y3848990D01*
X9032589Y3849267D01*
X9032311Y3849637D01*
X9031664Y3850654D01*
X9030832Y3851948D01*
X9029815Y3853335D01*
X9028798Y3854814D01*
X9027781Y3856201D01*
X9026856Y3857496D01*
X9026764Y3857588D01*
X9026487Y3857958D01*
X9026024Y3858513D01*
X9025377Y3859160D01*
X9023990Y3860547D01*
X9023251Y3861194D01*
X9022511Y3861749D01*
X9022419Y3861841D01*
X9022234Y3861934D01*
X9021864Y3862119D01*
X9021309Y3862396D01*
X9020754Y3862673D01*
X9020107Y3862951D01*
X9018628Y3863413D01*
X9018535D01*
X9018351Y3863505D01*
X9017981D01*
X9017518Y3863598D01*
X9016871Y3863690D01*
X9016132D01*
X9015115Y3863783D01*
X9004205D01*
Y3835399D01*
X8995699D01*
Y3899378D01*
X9025377D01*
X9026117Y3899286D01*
D02*
G37*
%LPC*%
G36*
X9723795Y7396497D02*
X9709002D01*
Y7347680D01*
X9724164D01*
X9724812Y7347772D01*
X9726198Y7347865D01*
X9727770Y7347957D01*
X9729434Y7348142D01*
X9731099Y7348420D01*
X9732485Y7348789D01*
X9732670Y7348882D01*
X9733133Y7348974D01*
X9733780Y7349252D01*
X9734612Y7349622D01*
X9735537Y7350176D01*
X9736461Y7350731D01*
X9737386Y7351378D01*
X9738310Y7352118D01*
X9738403Y7352303D01*
X9738772Y7352673D01*
X9739327Y7353320D01*
X9739974Y7354244D01*
X9740714Y7355446D01*
X9741546Y7356833D01*
X9742286Y7358405D01*
X9742933Y7360162D01*
Y7360254D01*
X9743025Y7360439D01*
X9743118Y7360716D01*
X9743210Y7361086D01*
X9743303Y7361548D01*
X9743488Y7362196D01*
X9743673Y7362843D01*
X9743858Y7363582D01*
X9744135Y7365432D01*
X9744412Y7367558D01*
X9744597Y7369962D01*
X9744690Y7372551D01*
Y7372643D01*
Y7373013D01*
Y7373475D01*
X9744597Y7374215D01*
Y7375047D01*
X9744505Y7375972D01*
X9744412Y7377081D01*
X9744320Y7378190D01*
X9743858Y7380687D01*
X9743303Y7383276D01*
X9742471Y7385679D01*
X9741916Y7386881D01*
X9741361Y7387898D01*
Y7387991D01*
X9741176Y7388176D01*
X9740991Y7388453D01*
X9740807Y7388823D01*
X9740067Y7389747D01*
X9739142Y7390857D01*
X9737940Y7392059D01*
X9736554Y7393261D01*
X9734982Y7394278D01*
X9733318Y7395110D01*
X9733133Y7395202D01*
X9732670Y7395295D01*
X9731838Y7395572D01*
X9730636Y7395850D01*
X9729157Y7396034D01*
X9727308Y7396312D01*
X9726198Y7396404D01*
X9724997D01*
X9723795Y7396497D01*
D02*
G37*
G36*
X10456488Y3979436D02*
X10456395D01*
X10456303D01*
X10455748Y3979344D01*
X10454916Y3979251D01*
X10453807Y3979066D01*
X10452697Y3978604D01*
X10451403Y3978049D01*
X10450201Y3977217D01*
X10448999Y3976108D01*
X10448906Y3975923D01*
X10448537Y3975460D01*
X10448074Y3974721D01*
X10447520Y3973519D01*
X10446965Y3972132D01*
X10446503Y3970283D01*
X10446133Y3968156D01*
X10446040Y3965660D01*
Y3945505D01*
X10467213D01*
Y3964551D01*
X10467120Y3965660D01*
X10467028Y3966954D01*
X10466935Y3968434D01*
X10466750Y3969913D01*
X10466473Y3971392D01*
X10466103Y3972687D01*
X10466011Y3972872D01*
X10465826Y3973241D01*
X10465549Y3973796D01*
X10465179Y3974536D01*
X10464624Y3975368D01*
X10463977Y3976200D01*
X10463145Y3977032D01*
X10462220Y3977679D01*
X10462128Y3977772D01*
X10461758Y3977957D01*
X10461203Y3978234D01*
X10460463Y3978604D01*
X10459631Y3978881D01*
X10458707Y3979159D01*
X10457597Y3979344D01*
X10456488Y3979436D01*
D02*
G37*
G36*
X9024360Y3892259D02*
X9004205D01*
Y3871087D01*
X9023251D01*
X9024360Y3871179D01*
X9025655Y3871272D01*
X9027134Y3871364D01*
X9028613Y3871549D01*
X9030092Y3871826D01*
X9031387Y3872196D01*
X9031572Y3872289D01*
X9031942Y3872474D01*
X9032496Y3872751D01*
X9033236Y3873121D01*
X9034068Y3873676D01*
X9034900Y3874323D01*
X9035732Y3875155D01*
X9036379Y3876079D01*
X9036472Y3876172D01*
X9036657Y3876542D01*
X9036934Y3877096D01*
X9037304Y3877836D01*
X9037581Y3878668D01*
X9037859Y3879593D01*
X9038044Y3880702D01*
X9038136Y3881812D01*
Y3881904D01*
Y3881997D01*
X9038044Y3882551D01*
X9037951Y3883383D01*
X9037766Y3884493D01*
X9037304Y3885602D01*
X9036749Y3886897D01*
X9035917Y3888099D01*
X9034808Y3889301D01*
X9034623Y3889393D01*
X9034160Y3889763D01*
X9033421Y3890225D01*
X9032219Y3890780D01*
X9030832Y3891335D01*
X9028983Y3891797D01*
X9026856Y3892167D01*
X9024360Y3892259D01*
D02*
G37*
%LPD*%
D46*
X8665700Y8925100D02*
X10585700D01*
Y5755100D02*
Y8925100D01*
X8665700Y5755100D02*
X10585700D01*
X8665700D02*
Y8925100D01*
X11348500Y6472900D02*
Y6912900D01*
X11638500D01*
Y6472900D02*
Y6912900D01*
X11348500Y6472900D02*
X11638500D01*
X8440200Y3140600D02*
Y3580600D01*
X8730200D01*
Y3140600D02*
Y3580600D01*
X8440200Y3140600D02*
X8730200D01*
X10420400Y3782000D02*
X10585400D01*
Y4092000D01*
X10420400D02*
X10585400D01*
X10420400Y3782000D02*
Y4092000D01*
X8840700Y3752900D02*
Y3917900D01*
Y3752900D02*
X9150700D01*
Y3917900D01*
X8840700D02*
X9150700D01*
%TF.MD5,5f40f1903a24a84d8ea39e44f2545f66*%
M02*
