%TF.GenerationSoftware,Altium Limited,Altium Designer,22.1.2 (22)*%
G04 Layer_Physical_Order=1*
G04 Layer_Color=255*
%FSLAX45Y45*%
%MOMM*%
%TF.SameCoordinates,487542E7-F005-4C77-86B1-A0AEE8F943D7*%
%TF.FilePolarity,Positive*%
%TF.FileFunction,Copper,L1,Top,Signal*%
%TF.Part,Single*%
G01*
G75*
%TA.AperFunction,SMDPad,CuDef*%
%ADD10R,2.00000X0.90000*%
%ADD11R,5.00000X5.00000*%
%ADD12R,1.80000X0.64000*%
G04:AMPARAMS|DCode=13|XSize=1mm|YSize=2.05mm|CornerRadius=0.05mm|HoleSize=0mm|Usage=FLASHONLY|Rotation=90.000|XOffset=0mm|YOffset=0mm|HoleType=Round|Shape=RoundedRectangle|*
%AMROUNDEDRECTD13*
21,1,1.00000,1.95000,0,0,90.0*
21,1,0.90000,2.05000,0,0,90.0*
1,1,0.10000,0.97500,0.45000*
1,1,0.10000,0.97500,-0.45000*
1,1,0.10000,-0.97500,-0.45000*
1,1,0.10000,-0.97500,0.45000*
%
%ADD13ROUNDEDRECTD13*%
G04:AMPARAMS|DCode=14|XSize=3.25mm|YSize=2.05mm|CornerRadius=0.05125mm|HoleSize=0mm|Usage=FLASHONLY|Rotation=90.000|XOffset=0mm|YOffset=0mm|HoleType=Round|Shape=RoundedRectangle|*
%AMROUNDEDRECTD14*
21,1,3.25000,1.94750,0,0,90.0*
21,1,3.14750,2.05000,0,0,90.0*
1,1,0.10250,0.97375,1.57375*
1,1,0.10250,0.97375,-1.57375*
1,1,0.10250,-0.97375,-1.57375*
1,1,0.10250,-0.97375,1.57375*
%
%ADD14ROUNDEDRECTD14*%
%ADD15R,1.55000X1.50000*%
%ADD16R,1.25000X1.55000*%
%ADD17R,0.90000X0.80000*%
%ADD18R,1.70000X0.80000*%
%ADD19R,1.50000X1.55000*%
%ADD20R,1.45000X0.95000*%
%TA.AperFunction,ConnectorPad*%
%ADD21R,0.30000X1.15000*%
%TA.AperFunction,SMDPad,CuDef*%
%ADD22R,1.55000X1.55000*%
%ADD23R,1.22000X1.25000*%
%ADD24R,0.95000X1.45000*%
%ADD25R,1.40000X1.55000*%
%ADD26R,1.55000X1.25000*%
%TA.AperFunction,Conductor*%
%ADD27C,0.38100*%
%ADD28C,0.20320*%
%ADD29C,0.12700*%
%TA.AperFunction,ComponentPad*%
%ADD30R,1.40000X1.40000*%
%ADD31C,1.40000*%
%ADD32C,1.60000*%
%ADD33R,1.60000X1.60000*%
%ADD34C,0.65000*%
G04:AMPARAMS|DCode=35|XSize=1mm|YSize=1.8mm|CornerRadius=0.5mm|HoleSize=0mm|Usage=FLASHONLY|Rotation=0.000|XOffset=0mm|YOffset=0mm|HoleType=Round|Shape=RoundedRectangle|*
%AMROUNDEDRECTD35*
21,1,1.00000,0.80000,0,0,0.0*
21,1,0.00000,1.80000,0,0,0.0*
1,1,1.00000,0.00000,-0.40000*
1,1,1.00000,0.00000,-0.40000*
1,1,1.00000,0.00000,0.40000*
1,1,1.00000,0.00000,0.40000*
%
%ADD35ROUNDEDRECTD35*%
G04:AMPARAMS|DCode=36|XSize=1mm|YSize=2.1mm|CornerRadius=0.5mm|HoleSize=0mm|Usage=FLASHONLY|Rotation=0.000|XOffset=0mm|YOffset=0mm|HoleType=Round|Shape=RoundedRectangle|*
%AMROUNDEDRECTD36*
21,1,1.00000,1.10000,0,0,0.0*
21,1,0.00000,2.10000,0,0,0.0*
1,1,1.00000,0.00000,-0.55000*
1,1,1.00000,0.00000,-0.55000*
1,1,1.00000,0.00000,0.55000*
1,1,1.00000,0.00000,0.55000*
%
%ADD36ROUNDEDRECTD36*%
%TA.AperFunction,ViaPad*%
%ADD37C,1.27000*%
G36*
X12868083Y7896416D02*
Y4937355D01*
X10561681Y2548267D01*
X8551533D01*
X8172450Y2927350D01*
X7886700Y3251200D01*
X6629400Y4508500D01*
Y8813800D01*
X7086600Y9271000D01*
X11493500D01*
X12868083Y7896416D01*
D02*
G37*
%LPC*%
G36*
X8370600Y8647599D02*
X8280400D01*
Y8559900D01*
X8370600D01*
Y8647599D01*
D02*
G37*
G36*
X7303800Y8645101D02*
X7213600D01*
Y8554900D01*
X7303800D01*
Y8645101D01*
D02*
G37*
G36*
X7188200D02*
X7098000D01*
Y8554900D01*
X7188200D01*
Y8645101D01*
D02*
G37*
G36*
X7543800Y8641501D02*
X7453600D01*
Y8551300D01*
X7543800D01*
Y8641501D01*
D02*
G37*
G36*
X7298720Y8940620D02*
X7103080D01*
Y8760700D01*
X7098000D01*
Y8670501D01*
X7200900D01*
X7303800D01*
Y8760700D01*
X7298720D01*
Y8802659D01*
X7458680D01*
Y8757100D01*
X7453600D01*
Y8666901D01*
X7556500D01*
Y8654201D01*
X7569200D01*
Y8551300D01*
X7659400D01*
Y8614059D01*
X7821900D01*
Y8559900D01*
X7912100D01*
Y8660299D01*
X7937500D01*
Y8559900D01*
X8027700D01*
Y8620159D01*
X8164800D01*
Y8559900D01*
X8255000D01*
Y8660299D01*
X8267700D01*
Y8672999D01*
X8370600D01*
Y8692216D01*
X8382333Y8697076D01*
X8494259Y8585150D01*
Y8525627D01*
X8418367Y8449735D01*
X8405735Y8453120D01*
X8383665D01*
X8362347Y8447408D01*
X8343233Y8436373D01*
X8327627Y8420767D01*
X8316592Y8401653D01*
X8310880Y8380335D01*
Y8358265D01*
X8316592Y8336947D01*
X8327627Y8317833D01*
X8343233Y8302227D01*
X8354559Y8295689D01*
Y8140700D01*
X8357614Y8125339D01*
X8366316Y8112316D01*
X8455216Y8023416D01*
X8468239Y8014714D01*
X8483600Y8011659D01*
X8655380D01*
Y7952241D01*
X8283789D01*
X8270146Y7965884D01*
X8257123Y7974586D01*
X8241762Y7977641D01*
X8121720D01*
Y8035320D01*
X7946800D01*
Y8040400D01*
X7859100D01*
Y7937500D01*
X7846400D01*
Y7924800D01*
X7746000D01*
Y7855711D01*
X7474979D01*
X7471370Y7868411D01*
X7488441Y7885483D01*
X7502317Y7909517D01*
X7509500Y7936324D01*
Y7937500D01*
X7404100D01*
X7298700D01*
Y7936324D01*
X7305883Y7909517D01*
X7319759Y7885483D01*
X7339383Y7865859D01*
X7339688Y7865683D01*
X7339453Y7857928D01*
X7338162Y7851899D01*
X7326271Y7843954D01*
X6778816Y7296499D01*
X6770114Y7283476D01*
X6767059Y7268115D01*
Y5394911D01*
X6755733Y5388373D01*
X6740127Y5372767D01*
X6729092Y5353653D01*
X6723380Y5332335D01*
Y5310265D01*
X6729092Y5288947D01*
X6740127Y5269833D01*
X6755733Y5254227D01*
X6774847Y5243192D01*
X6796165Y5237480D01*
X6818235D01*
X6839553Y5243192D01*
X6858667Y5254227D01*
X6874273Y5269833D01*
X6885308Y5288947D01*
X6891020Y5310265D01*
Y5332335D01*
X6885308Y5353653D01*
X6874273Y5372767D01*
X6858667Y5388373D01*
X6847341Y5394911D01*
Y7251488D01*
X7292047Y7696193D01*
X7303780Y7691333D01*
Y7682993D01*
X7310617Y7657478D01*
X7323824Y7634602D01*
X7342502Y7615924D01*
X7365378Y7602717D01*
X7390893Y7595880D01*
X7417307D01*
X7442822Y7602717D01*
X7465698Y7615924D01*
X7484376Y7634602D01*
X7496764Y7656059D01*
X8253989D01*
X8407332Y7502716D01*
X8420355Y7494014D01*
X8435716Y7490959D01*
X8655380D01*
Y7456941D01*
X8398627D01*
X8384984Y7470584D01*
X8371961Y7479286D01*
X8356600Y7482341D01*
X7496764D01*
X7484376Y7503798D01*
X7465698Y7522476D01*
X7442822Y7535683D01*
X7417307Y7542520D01*
X7390893D01*
X7365378Y7535683D01*
X7342502Y7522476D01*
X7323824Y7503798D01*
X7310617Y7480922D01*
X7303780Y7455407D01*
Y7428993D01*
X7310617Y7403478D01*
X7323824Y7380602D01*
X7342502Y7361924D01*
X7365378Y7348717D01*
X7390893Y7341880D01*
X7417307D01*
X7442822Y7348717D01*
X7465698Y7361924D01*
X7484376Y7380602D01*
X7496764Y7402059D01*
X8339973D01*
X8353616Y7388416D01*
X8366639Y7379714D01*
X8382000Y7376659D01*
X8655380D01*
Y7329941D01*
X8445500D01*
X8430139Y7326886D01*
X8417116Y7318184D01*
X8327273Y7228341D01*
X7496764D01*
X7484376Y7249798D01*
X7465698Y7268476D01*
X7442822Y7281683D01*
X7417307Y7288520D01*
X7390893D01*
X7365378Y7281683D01*
X7342502Y7268476D01*
X7323824Y7249798D01*
X7310617Y7226922D01*
X7303780Y7201407D01*
Y7174993D01*
X7310617Y7149478D01*
X7323824Y7126602D01*
X7342502Y7107924D01*
X7365378Y7094717D01*
X7390893Y7087880D01*
X7417307D01*
X7442822Y7094717D01*
X7465698Y7107924D01*
X7484376Y7126602D01*
X7496764Y7148059D01*
X8343900D01*
X8359261Y7151114D01*
X8372284Y7159816D01*
X8462127Y7249659D01*
X8655380D01*
Y7190241D01*
X8572500D01*
X8557139Y7187186D01*
X8544116Y7178484D01*
X8339973Y6974341D01*
X7496764D01*
X7484376Y6995798D01*
X7465698Y7014476D01*
X7442822Y7027683D01*
X7417307Y7034520D01*
X7390893D01*
X7365378Y7027683D01*
X7342502Y7014476D01*
X7323824Y6995798D01*
X7310617Y6972922D01*
X7303780Y6947407D01*
Y6920993D01*
X7310617Y6895478D01*
X7323824Y6872602D01*
X7342502Y6853924D01*
X7365378Y6840717D01*
X7390893Y6833880D01*
X7417307D01*
X7442822Y6840717D01*
X7465698Y6853924D01*
X7484376Y6872602D01*
X7496764Y6894059D01*
X8356600D01*
X8371961Y6897114D01*
X8384984Y6905816D01*
X8589127Y7109959D01*
X8655380D01*
Y6957780D01*
Y6830780D01*
Y6703780D01*
Y6555241D01*
X8369300D01*
X8353939Y6552186D01*
X8340916Y6543484D01*
X8124016Y6326584D01*
X8115314Y6313561D01*
X8112259Y6298200D01*
Y5034117D01*
X8096942Y5025274D01*
X8080126Y5008458D01*
X8068235Y4987862D01*
X8062080Y4964891D01*
Y4941109D01*
X8068235Y4918138D01*
X8080126Y4897542D01*
X8096942Y4880726D01*
X8117538Y4868835D01*
X8140509Y4862680D01*
X8164291D01*
X8187262Y4868835D01*
X8207858Y4880726D01*
X8224674Y4897542D01*
X8236565Y4918138D01*
X8242720Y4941109D01*
Y4964891D01*
X8236565Y4987862D01*
X8224674Y5008458D01*
X8207858Y5025274D01*
X8192541Y5034117D01*
Y6281573D01*
X8385927Y6474959D01*
X8655380D01*
Y6458500D01*
X8650300D01*
Y6400800D01*
X8901100D01*
Y6458500D01*
X8896020D01*
Y6576780D01*
Y6703780D01*
Y6830780D01*
Y6957780D01*
Y7084780D01*
Y7211780D01*
Y7338780D01*
Y7465780D01*
Y7592780D01*
Y7719780D01*
Y7846780D01*
Y7973780D01*
Y8095700D01*
X8901100D01*
Y8153400D01*
X8650300D01*
Y8095700D01*
X8639157Y8091941D01*
X8500227D01*
X8434841Y8157327D01*
Y8295689D01*
X8446167Y8302227D01*
X8461773Y8317833D01*
X8472808Y8336947D01*
X8478520Y8358265D01*
Y8380335D01*
X8475135Y8392967D01*
X8562784Y8480616D01*
X8571486Y8493639D01*
X8574541Y8509000D01*
Y8601778D01*
X8571486Y8617139D01*
X8562784Y8630162D01*
X8389892Y8803054D01*
X8376869Y8811756D01*
X8365520Y8814013D01*
Y8935620D01*
X8169880D01*
Y8880441D01*
X8022620D01*
Y8935620D01*
X7826980D01*
Y8879341D01*
X7654320D01*
Y8937020D01*
X7458680D01*
Y8882941D01*
X7298720D01*
Y8940620D01*
D02*
G37*
G36*
X10525700Y8930818D02*
X8725700D01*
X8717772Y8929241D01*
X8711050Y8924750D01*
X8706559Y8918028D01*
X8704982Y8910100D01*
Y8280100D01*
X8706559Y8272171D01*
X8711050Y8265450D01*
X8717772Y8260959D01*
X8725700Y8259382D01*
X10525700D01*
X10533628Y8260959D01*
X10540350Y8265450D01*
X10544841Y8272171D01*
X10546418Y8280100D01*
Y8910100D01*
X10544841Y8918028D01*
X10540350Y8924750D01*
X10533628Y8929241D01*
X10525700Y8930818D01*
D02*
G37*
G36*
X10601100Y8236500D02*
X10488400D01*
Y8178800D01*
X10601100D01*
Y8236500D01*
D02*
G37*
G36*
X10463000D02*
X10350300D01*
Y8178800D01*
X10463000D01*
Y8236500D01*
D02*
G37*
G36*
X8901100D02*
X8788400D01*
Y8178800D01*
X8901100D01*
Y8236500D01*
D02*
G37*
G36*
X8763000D02*
X8650300D01*
Y8178800D01*
X8763000D01*
Y8236500D01*
D02*
G37*
G36*
X7417976Y8055600D02*
X7416800D01*
Y7962900D01*
X7509500D01*
Y7964076D01*
X7502317Y7990883D01*
X7488441Y8014917D01*
X7468817Y8034541D01*
X7444783Y8048417D01*
X7417976Y8055600D01*
D02*
G37*
G36*
X7391400D02*
X7390224D01*
X7363417Y8048417D01*
X7339383Y8034541D01*
X7319759Y8014917D01*
X7305883Y7990883D01*
X7298700Y7964076D01*
Y7962900D01*
X7391400D01*
Y8055600D01*
D02*
G37*
G36*
X7833700Y8040400D02*
X7746000D01*
Y7950200D01*
X7833700D01*
Y8040400D01*
D02*
G37*
G36*
X9801100Y7691500D02*
X9538400D01*
Y7428800D01*
X9801100D01*
Y7691500D01*
D02*
G37*
G36*
X9513000D02*
X9250300D01*
Y7428800D01*
X9513000D01*
Y7691500D01*
D02*
G37*
G36*
X9801100Y7403400D02*
X9538400D01*
Y7140700D01*
X9801100D01*
Y7403400D01*
D02*
G37*
G36*
X9513000D02*
X9250300D01*
Y7140700D01*
X9513000D01*
Y7403400D01*
D02*
G37*
G36*
X12399000Y7077700D02*
X12306300D01*
Y6985000D01*
X12399000D01*
Y7077700D01*
D02*
G37*
G36*
X12280900D02*
X12188200D01*
Y6985000D01*
X12280900D01*
Y7077700D01*
D02*
G37*
G36*
X10601100Y8153400D02*
X10350300D01*
Y8095700D01*
X10355380D01*
Y7973780D01*
Y7825241D01*
X10236200D01*
X10220839Y7822186D01*
X10207816Y7813484D01*
X9991916Y7597584D01*
X9983214Y7584561D01*
X9980159Y7569200D01*
Y6874627D01*
X9055197Y5949666D01*
X9046496Y5936643D01*
X9043440Y5921282D01*
Y4657818D01*
X9046496Y4642457D01*
X9055197Y4629434D01*
X9191816Y4492816D01*
X9204839Y4484114D01*
X9220200Y4481059D01*
X9307380D01*
Y4468880D01*
X9528020D01*
Y4573520D01*
X9307380D01*
Y4561341D01*
X9236827D01*
X9123723Y4674446D01*
Y5904654D01*
X10048684Y6829616D01*
X10057386Y6842639D01*
X10060441Y6858000D01*
Y7552573D01*
X10138095Y7630226D01*
X10148314Y7622661D01*
X10145259Y7607300D01*
Y6734927D01*
X9204516Y5794184D01*
X9195814Y5781162D01*
X9192759Y5765800D01*
Y4670518D01*
X9195814Y4655157D01*
X9204516Y4642134D01*
X9226834Y4619816D01*
X9239857Y4611114D01*
X9255218Y4608059D01*
X9307380D01*
Y4595880D01*
X9528020D01*
Y4700520D01*
X9307380D01*
Y4688341D01*
X9273041D01*
Y5749173D01*
X10213784Y6689916D01*
X10222486Y6702939D01*
X10225541Y6718300D01*
Y7590673D01*
X10252827Y7617959D01*
X10355380D01*
Y7465780D01*
Y7338780D01*
Y7211780D01*
Y7084780D01*
Y6957780D01*
Y6830780D01*
Y6703780D01*
Y6555241D01*
X10271711D01*
X10265173Y6566567D01*
X10249567Y6582173D01*
X10230453Y6593208D01*
X10209135Y6598920D01*
X10187065D01*
X10165747Y6593208D01*
X10146633Y6582173D01*
X10131027Y6566567D01*
X10119992Y6547453D01*
X10114280Y6526135D01*
Y6504065D01*
X10119992Y6482747D01*
X10131027Y6463633D01*
X10146633Y6448027D01*
X10165747Y6436992D01*
X10187065Y6431280D01*
X10209135D01*
X10230453Y6436992D01*
X10249567Y6448027D01*
X10265173Y6463633D01*
X10271711Y6474959D01*
X10355380D01*
Y6322780D01*
Y6195780D01*
Y6068780D01*
Y5941780D01*
Y5814780D01*
X10596020D01*
Y5941780D01*
Y6068780D01*
Y6220959D01*
X12193187D01*
X12193280Y6220865D01*
Y6197093D01*
X12200117Y6171578D01*
X12213324Y6148702D01*
X12232002Y6130024D01*
X12254878Y6116817D01*
X12280393Y6109980D01*
X12306807D01*
X12332322Y6116817D01*
X12355198Y6130024D01*
X12373876Y6148702D01*
X12386264Y6170159D01*
X12556536D01*
X12568924Y6148702D01*
X12587602Y6130024D01*
X12610478Y6116817D01*
X12635993Y6109980D01*
X12662407D01*
X12687922Y6116817D01*
X12710798Y6130024D01*
X12729476Y6148702D01*
X12742683Y6171578D01*
X12749520Y6197093D01*
Y6223507D01*
X12742683Y6249022D01*
X12729476Y6271898D01*
X12710798Y6290576D01*
X12687922Y6303783D01*
X12662407Y6310620D01*
X12635993D01*
X12610478Y6303783D01*
X12587602Y6290576D01*
X12568924Y6271898D01*
X12556536Y6250441D01*
X12386264D01*
X12373876Y6271898D01*
X12355198Y6290576D01*
X12332322Y6303783D01*
X12306807Y6310620D01*
X12280393D01*
X12254878Y6303783D01*
X12234450Y6291989D01*
X12225175Y6298186D01*
X12209814Y6301241D01*
X10596020D01*
Y6347959D01*
X12184414D01*
X12199775Y6351014D01*
X12212798Y6359716D01*
X12235238Y6382156D01*
X12254878Y6370817D01*
X12280393Y6363980D01*
X12306807D01*
X12332322Y6370817D01*
X12355198Y6384024D01*
X12373876Y6402702D01*
X12386264Y6424159D01*
X12556536D01*
X12568924Y6402702D01*
X12587602Y6384024D01*
X12610478Y6370817D01*
X12635993Y6363980D01*
X12662407D01*
X12687922Y6370817D01*
X12710798Y6384024D01*
X12729476Y6402702D01*
X12742683Y6425578D01*
X12749520Y6451093D01*
Y6477507D01*
X12742683Y6503022D01*
X12729476Y6525898D01*
X12710798Y6544576D01*
X12687922Y6557783D01*
X12662407Y6564620D01*
X12635993D01*
X12610478Y6557783D01*
X12587602Y6544576D01*
X12568924Y6525898D01*
X12556536Y6504441D01*
X12386264D01*
X12373876Y6525898D01*
X12355198Y6544576D01*
X12332322Y6557783D01*
X12306807Y6564620D01*
X12280393D01*
X12254878Y6557783D01*
X12232002Y6544576D01*
X12213324Y6525898D01*
X12200117Y6503022D01*
X12193280Y6477507D01*
Y6453735D01*
X12167787Y6428241D01*
X10596020D01*
Y6474959D01*
X10773380D01*
Y6444080D01*
X10969020D01*
Y6486759D01*
X11023707D01*
X11039069Y6489814D01*
X11052091Y6498516D01*
X11375480Y6821905D01*
X11388180Y6820697D01*
Y6802580D01*
X11598820D01*
Y6923220D01*
X11388180D01*
Y6903041D01*
X11359707D01*
X11344346Y6899986D01*
X11331323Y6891284D01*
X11007080Y6567041D01*
X10969020D01*
Y6609720D01*
X10773380D01*
Y6555241D01*
X10596020D01*
Y6703780D01*
Y6830780D01*
Y6957780D01*
Y7084780D01*
Y7211780D01*
Y7338780D01*
Y7465780D01*
Y7592780D01*
Y7719780D01*
Y7846780D01*
Y7998959D01*
X11781613D01*
X12609059Y7171513D01*
Y7072620D01*
X12548880D01*
Y6871980D01*
X12749520D01*
Y7072620D01*
X12689341D01*
Y7188140D01*
X12686286Y7203501D01*
X12677584Y7216524D01*
X11826624Y8067484D01*
X11813601Y8076186D01*
X11798240Y8079241D01*
X10596020D01*
Y8095700D01*
X10601100D01*
Y8153400D01*
D02*
G37*
G36*
X12399000Y6959600D02*
X12306300D01*
Y6866900D01*
X12399000D01*
Y6959600D01*
D02*
G37*
G36*
X12280900D02*
X12188200D01*
Y6866900D01*
X12280900D01*
Y6959600D01*
D02*
G37*
G36*
X12662407Y6818620D02*
X12635993D01*
X12610478Y6811783D01*
X12587602Y6798576D01*
X12568924Y6779898D01*
X12555717Y6757022D01*
X12548880Y6731507D01*
Y6705093D01*
X12555717Y6679578D01*
X12568924Y6656702D01*
X12587602Y6638024D01*
X12610478Y6624817D01*
X12635993Y6617980D01*
X12662407D01*
X12687922Y6624817D01*
X12710798Y6638024D01*
X12729476Y6656702D01*
X12742683Y6679578D01*
X12749520Y6705093D01*
Y6731507D01*
X12742683Y6757022D01*
X12729476Y6779898D01*
X12710798Y6798576D01*
X12687922Y6811783D01*
X12662407Y6818620D01*
D02*
G37*
G36*
X11645900Y7279141D02*
X11378300D01*
X11362938Y7276086D01*
X11349916Y7267384D01*
X10901266Y6818734D01*
X10898583Y6814720D01*
X10773380D01*
Y6649080D01*
X10969020D01*
Y6771472D01*
X10969387Y6773319D01*
X11394927Y7198859D01*
X11629273D01*
X12138216Y6689916D01*
X12151239Y6681214D01*
X12166600Y6678159D01*
X12200936D01*
X12213324Y6656702D01*
X12232002Y6638024D01*
X12254878Y6624817D01*
X12280393Y6617980D01*
X12306807D01*
X12332322Y6624817D01*
X12355198Y6638024D01*
X12373876Y6656702D01*
X12387083Y6679578D01*
X12393920Y6705093D01*
Y6731507D01*
X12387083Y6757022D01*
X12373876Y6779898D01*
X12355198Y6798576D01*
X12332322Y6811783D01*
X12306807Y6818620D01*
X12280393D01*
X12254878Y6811783D01*
X12232002Y6798576D01*
X12213324Y6779898D01*
X12200936Y6758441D01*
X12183227D01*
X11674284Y7267384D01*
X11661262Y7276086D01*
X11645900Y7279141D01*
D02*
G37*
G36*
X11603900Y6588300D02*
X11506200D01*
Y6535600D01*
X11603900D01*
Y6588300D01*
D02*
G37*
G36*
X11480800D02*
X11383100D01*
Y6535600D01*
X11480800D01*
Y6588300D01*
D02*
G37*
G36*
X11603900Y6510200D02*
X11506200D01*
Y6457500D01*
X11603900D01*
Y6510200D01*
D02*
G37*
G36*
X11480800D02*
X11383100D01*
Y6457500D01*
X11480800D01*
Y6510200D01*
D02*
G37*
G36*
X11428335Y6027420D02*
X11406265D01*
X11384947Y6021708D01*
X11365833Y6010673D01*
X11350227Y5995067D01*
X11343689Y5983741D01*
X11239720D01*
Y6003920D01*
X11109080D01*
Y5883280D01*
X11239720D01*
Y5903459D01*
X11343689D01*
X11350227Y5892133D01*
X11365833Y5876527D01*
X11384947Y5865492D01*
X11406265Y5859780D01*
X11428335D01*
X11449653Y5865492D01*
X11468767Y5876527D01*
X11484373Y5892133D01*
X11495408Y5911247D01*
X11501120Y5932565D01*
Y5954635D01*
X11495408Y5975953D01*
X11484373Y5995067D01*
X11468767Y6010673D01*
X11449653Y6021708D01*
X11428335Y6027420D01*
D02*
G37*
G36*
X8901100Y6375400D02*
X8650300D01*
Y6317700D01*
X8655380D01*
Y6195780D01*
Y6068780D01*
Y5941780D01*
Y5814780D01*
X8896020D01*
Y5941780D01*
Y6068780D01*
Y6195780D01*
Y6317700D01*
X8901100D01*
Y6375400D01*
D02*
G37*
G36*
X12243800Y5767100D02*
X12156100D01*
Y5676900D01*
X12243800D01*
Y5767100D01*
D02*
G37*
G36*
X12130700D02*
X12043000D01*
Y5762020D01*
X11868080D01*
Y5666241D01*
X11770311D01*
X11763773Y5677567D01*
X11748167Y5693173D01*
X11729053Y5704208D01*
X11707735Y5709920D01*
X11685665D01*
X11664347Y5704208D01*
X11645233Y5693173D01*
X11629627Y5677567D01*
X11618592Y5658453D01*
X11612880Y5637135D01*
Y5615065D01*
X11618592Y5593747D01*
X11629627Y5574633D01*
X11645233Y5559027D01*
X11664347Y5547992D01*
X11685665Y5542280D01*
X11707735D01*
X11729053Y5547992D01*
X11748167Y5559027D01*
X11763773Y5574633D01*
X11770311Y5585959D01*
X11868080D01*
Y5566380D01*
X11908348D01*
X11916750Y5564709D01*
X11925152Y5566380D01*
X11961359D01*
Y5482620D01*
X11917780D01*
Y5286980D01*
X11961359D01*
Y5212519D01*
X11904125D01*
X11894197Y5210544D01*
X11885780Y5204920D01*
X11880156Y5196503D01*
X11878181Y5186575D01*
Y5069341D01*
X11489816D01*
Y5074200D01*
X11487851Y5084079D01*
X11482255Y5092455D01*
X11473879Y5098051D01*
X11464000Y5100016D01*
X11269000D01*
X11259121Y5098051D01*
X11250745Y5092455D01*
X11245149Y5084079D01*
X11243184Y5074200D01*
Y4984200D01*
X11245149Y4974321D01*
X11250745Y4965945D01*
X11259121Y4960349D01*
X11269000Y4958384D01*
X11464000D01*
X11473879Y4960349D01*
X11482255Y4965945D01*
X11487851Y4974321D01*
X11489816Y4984200D01*
Y4989059D01*
X11878181D01*
Y4871825D01*
X11880156Y4861897D01*
X11885780Y4853480D01*
X11894197Y4847856D01*
X11904125Y4845881D01*
X12098875D01*
X12108803Y4847856D01*
X12117220Y4853480D01*
X12122844Y4861897D01*
X12124819Y4871825D01*
Y5186575D01*
X12122844Y5196503D01*
X12117220Y5204920D01*
X12108803Y5210544D01*
X12098875Y5212519D01*
X12041641D01*
Y5286980D01*
X12092700D01*
Y5281900D01*
X12180400D01*
Y5384800D01*
Y5487700D01*
X12092700D01*
Y5482620D01*
X12041641D01*
Y5549163D01*
X12043000Y5561300D01*
X12130700D01*
Y5664200D01*
Y5767100D01*
D02*
G37*
G36*
X12243800Y5651500D02*
X12156100D01*
Y5561300D01*
X12243800D01*
Y5651500D01*
D02*
G37*
G36*
X12293500Y5487700D02*
X12205800D01*
Y5397500D01*
X12293500D01*
Y5487700D01*
D02*
G37*
G36*
X10450000Y5488441D02*
X10172700D01*
X10157339Y5485386D01*
X10144316Y5476684D01*
X10063393Y5395761D01*
X9893300D01*
Y5453440D01*
X9727660D01*
Y5257800D01*
X9893300D01*
Y5315479D01*
X9966543D01*
X9973332Y5302779D01*
X9970514Y5298561D01*
X9967459Y5283200D01*
Y5231000D01*
X9970514Y5215639D01*
X9979216Y5202616D01*
X10297659Y4884173D01*
Y4626727D01*
X10232273Y4561341D01*
X10149020D01*
Y4573520D01*
X9928380D01*
Y4468880D01*
X10149020D01*
Y4481059D01*
X10248900D01*
X10264261Y4484114D01*
X10277284Y4492816D01*
X10366184Y4581716D01*
X10374886Y4594739D01*
X10377941Y4610100D01*
Y4900800D01*
X10374886Y4916162D01*
X10366184Y4929184D01*
X10047741Y5247627D01*
Y5266573D01*
X10108404Y5327236D01*
X10189327Y5408159D01*
X10433373D01*
X10485180Y5356351D01*
Y5292480D01*
X10615820D01*
Y5413120D01*
X10541949D01*
X10478384Y5476684D01*
X10465361Y5485386D01*
X10450000Y5488441D01*
D02*
G37*
G36*
X12293500Y5372100D02*
X12205800D01*
Y5281900D01*
X12293500D01*
Y5372100D01*
D02*
G37*
G36*
X11464000Y5335196D02*
X11379200D01*
Y5271900D01*
X11494996D01*
Y5304200D01*
X11492636Y5316062D01*
X11485917Y5326117D01*
X11475861Y5332836D01*
X11464000Y5335196D01*
D02*
G37*
G36*
X11353800D02*
X11269000D01*
X11257139Y5332836D01*
X11247083Y5326117D01*
X11240364Y5316062D01*
X11238004Y5304200D01*
Y5271900D01*
X11353800D01*
Y5335196D01*
D02*
G37*
G36*
X11039720Y6098920D02*
X10909080D01*
Y6057791D01*
X10907150D01*
X10891788Y6054736D01*
X10878766Y6046034D01*
X10511673Y5678941D01*
X9648918D01*
X9633557Y5675886D01*
X9620534Y5667184D01*
X9598216Y5644866D01*
X9589514Y5631843D01*
X9586459Y5616482D01*
Y5453440D01*
X9522660D01*
Y5257800D01*
X9688300D01*
Y5453440D01*
X9666741D01*
Y5598659D01*
X10528300D01*
X10543661Y5601714D01*
X10556684Y5610416D01*
X10923777Y5977508D01*
X10953450D01*
X10957329Y5978280D01*
X11039720D01*
Y6098920D01*
D02*
G37*
G36*
X11494996Y5246500D02*
X11379200D01*
Y5183205D01*
X11464000D01*
X11475861Y5185564D01*
X11485917Y5192283D01*
X11492636Y5202339D01*
X11494996Y5214200D01*
Y5246500D01*
D02*
G37*
G36*
X11353800D02*
X11238004D01*
Y5214200D01*
X11240364Y5202339D01*
X11247083Y5192283D01*
X11257139Y5185564D01*
X11269000Y5183205D01*
X11353800D01*
Y5246500D01*
D02*
G37*
G36*
X7487800Y5048400D02*
X7405100D01*
Y4965700D01*
X7487800D01*
Y5048400D01*
D02*
G37*
G36*
X7379700D02*
X7297000D01*
Y4965700D01*
X7379700D01*
Y5048400D01*
D02*
G37*
G36*
X7487800Y4940300D02*
X7405100D01*
Y4857600D01*
X7487800D01*
Y4940300D01*
D02*
G37*
G36*
X7379700D02*
X7297000D01*
Y4857600D01*
X7379700D01*
Y4940300D01*
D02*
G37*
G36*
X10415820Y5318120D02*
X10285180D01*
Y5197480D01*
X10310359D01*
Y5105400D01*
X10313414Y5090039D01*
X10322116Y5077016D01*
X10435165Y4963967D01*
X10431780Y4951335D01*
Y4929265D01*
X10437492Y4907947D01*
X10448527Y4888833D01*
X10464133Y4873227D01*
X10483247Y4862192D01*
X10504565Y4856480D01*
X10526635D01*
X10547953Y4862192D01*
X10567067Y4873227D01*
X10582673Y4888833D01*
X10593708Y4907947D01*
X10599420Y4929265D01*
Y4951335D01*
X10593708Y4972653D01*
X10582673Y4991767D01*
X10567067Y5007373D01*
X10547953Y5018408D01*
X10526635Y5024120D01*
X10504565D01*
X10491933Y5020735D01*
X10390641Y5122027D01*
Y5197480D01*
X10415820D01*
Y5318120D01*
D02*
G37*
G36*
X9533100Y4832600D02*
X9430400D01*
Y4787900D01*
X9533100D01*
Y4832600D01*
D02*
G37*
G36*
X9405000D02*
X9302300D01*
Y4787900D01*
X9405000D01*
Y4832600D01*
D02*
G37*
G36*
X10069435Y5049520D02*
X10047365D01*
X10026047Y5043808D01*
X10006933Y5032773D01*
X9991327Y5017167D01*
X9980292Y4998053D01*
X9974580Y4976735D01*
Y4954665D01*
X9980292Y4933347D01*
X9991327Y4914233D01*
X10006933Y4898627D01*
X10018259Y4892089D01*
Y4827520D01*
X9928380D01*
Y4722880D01*
X10149020D01*
Y4827520D01*
X10098541D01*
Y4892089D01*
X10109867Y4898627D01*
X10125473Y4914233D01*
X10136508Y4933347D01*
X10142220Y4954665D01*
Y4976735D01*
X10136508Y4998053D01*
X10125473Y5017167D01*
X10109867Y5032773D01*
X10090753Y5043808D01*
X10069435Y5049520D01*
D02*
G37*
G36*
X9533100Y4762500D02*
X9430400D01*
Y4717800D01*
X9533100D01*
Y4762500D01*
D02*
G37*
G36*
X9405000D02*
X9302300D01*
Y4717800D01*
X9405000D01*
Y4762500D01*
D02*
G37*
G36*
X10149020Y4700520D02*
X9928380D01*
Y4595880D01*
X10149020D01*
Y4700520D01*
D02*
G37*
G36*
X10725400Y4547900D02*
X10642700D01*
Y4457700D01*
X10725400D01*
Y4547900D01*
D02*
G37*
G36*
X11039720Y5908920D02*
X10909080D01*
Y5788280D01*
X10934259D01*
Y5449900D01*
X10929843Y5444520D01*
X10774780D01*
Y5305649D01*
X10672073Y5202941D01*
X10615820D01*
Y5223120D01*
X10485180D01*
Y5102480D01*
X10615820D01*
Y5122659D01*
X10688700D01*
X10704061Y5125714D01*
X10717084Y5134416D01*
X10831549Y5248880D01*
X10940420D01*
Y5409151D01*
X10953120Y5414412D01*
X10979780Y5387751D01*
Y5248880D01*
X11022459D01*
Y5097527D01*
X10359273Y4434341D01*
X10149020D01*
Y4446520D01*
X9928380D01*
Y4341880D01*
X10149020D01*
Y4354059D01*
X10375900D01*
X10391261Y4357114D01*
X10404284Y4365816D01*
X11090984Y5052516D01*
X11099686Y5065539D01*
X11102742Y5080900D01*
Y5248880D01*
X11145420D01*
Y5444520D01*
X11036549D01*
X11014541Y5466527D01*
Y5788280D01*
X11039720D01*
Y5908920D01*
D02*
G37*
G36*
X10725400Y4432300D02*
X10642700D01*
Y4342100D01*
X10725400D01*
Y4432300D01*
D02*
G37*
G36*
X9528020Y4446520D02*
X9307380D01*
Y4434341D01*
X9271000D01*
X9255639Y4431286D01*
X9242616Y4422584D01*
X9140073Y4320041D01*
X9027111D01*
X9020573Y4331367D01*
X9004967Y4346973D01*
X8985853Y4358008D01*
X8964535Y4363720D01*
X8942465D01*
X8921147Y4358008D01*
X8902033Y4346973D01*
X8886427Y4331367D01*
X8875392Y4312253D01*
X8872921Y4303031D01*
X8861690D01*
X8846328Y4299976D01*
X8833305Y4291274D01*
X8689751Y4147720D01*
X8550880D01*
Y3982080D01*
X8746520D01*
Y4090952D01*
X8878317Y4222748D01*
X8892112D01*
X8902033Y4212827D01*
X8921147Y4201792D01*
X8942465Y4196080D01*
X8964535D01*
X8985853Y4201792D01*
X9004967Y4212827D01*
X9020573Y4228433D01*
X9027111Y4239759D01*
X9156700D01*
X9172061Y4242814D01*
X9185084Y4251516D01*
X9287627Y4354059D01*
X9307380D01*
Y4341880D01*
X9528020D01*
Y4446520D01*
D02*
G37*
G36*
X11634500Y4305200D02*
X11544300D01*
Y4217500D01*
X11634500D01*
Y4305200D01*
D02*
G37*
G36*
X11518900D02*
X11428700D01*
Y4217500D01*
X11518900D01*
Y4305200D01*
D02*
G37*
G36*
X10149020Y4319520D02*
X9928380D01*
Y4214880D01*
X10149020D01*
Y4319520D01*
D02*
G37*
G36*
Y4192520D02*
X9928380D01*
Y4087880D01*
X10149020D01*
Y4192520D01*
D02*
G37*
G36*
X11464000Y4870016D02*
X11269000D01*
X11259121Y4868051D01*
X11250745Y4862455D01*
X11245149Y4854079D01*
X11243184Y4844200D01*
Y4754200D01*
X11245149Y4744321D01*
X11250745Y4735945D01*
X11259121Y4730349D01*
X11269000Y4728384D01*
X11464000D01*
X11473879Y4730349D01*
X11482255Y4735945D01*
X11487851Y4744320D01*
X11501615Y4748417D01*
X11821659Y4428373D01*
Y4233027D01*
X11653573Y4064942D01*
X11629420D01*
Y4104400D01*
X11634500D01*
Y4192100D01*
X11428700D01*
Y4104400D01*
X11433780D01*
Y3929480D01*
X11491459D01*
Y3775827D01*
X11362573Y3646941D01*
X11282720D01*
Y3681820D01*
X11120080D01*
Y3516180D01*
X11282720D01*
Y3566659D01*
X11379200D01*
X11394561Y3569714D01*
X11407584Y3578416D01*
X11559984Y3730816D01*
X11568686Y3743839D01*
X11571741Y3759200D01*
Y3929480D01*
X11629420D01*
Y3984659D01*
X11670200D01*
X11685562Y3987714D01*
X11698584Y3996416D01*
X11890184Y4188016D01*
X11898886Y4201039D01*
X11901941Y4216400D01*
Y4445000D01*
X11898886Y4460361D01*
X11890184Y4473384D01*
X11535984Y4827584D01*
X11522961Y4836286D01*
X11507600Y4839341D01*
X11489816D01*
Y4844200D01*
X11487851Y4854079D01*
X11482255Y4862455D01*
X11473879Y4868051D01*
X11464000Y4870016D01*
D02*
G37*
G36*
X10149020Y4065520D02*
X9928380D01*
Y3960880D01*
X10149020D01*
Y4065520D01*
D02*
G37*
G36*
X9528020D02*
X9307380D01*
Y3960880D01*
X9528020D01*
Y4065520D01*
D02*
G37*
G36*
X10600800Y3912400D02*
X10515600D01*
Y3852200D01*
X10600800D01*
Y3912400D01*
D02*
G37*
G36*
X10490200D02*
X10405000D01*
Y3852200D01*
X10490200D01*
Y3912400D01*
D02*
G37*
G36*
X8971100Y3933300D02*
X8910900D01*
Y3848100D01*
X8971100D01*
Y3933300D01*
D02*
G37*
G36*
X8885500D02*
X8825300D01*
Y3848100D01*
X8885500D01*
Y3933300D01*
D02*
G37*
G36*
X9528020Y3938520D02*
X9307380D01*
Y3833880D01*
X9528020D01*
Y3938520D01*
D02*
G37*
G36*
X7504420Y6780520D02*
X7303780D01*
Y6579880D01*
X7460470D01*
X7563523Y6476828D01*
Y3898900D01*
X7565888Y3887007D01*
X7572625Y3876925D01*
X8446430Y3003121D01*
X8456512Y2996384D01*
X8468404Y2994019D01*
X9526606D01*
X9538499Y2996384D01*
X9548581Y3003121D01*
X9665252Y3119793D01*
X9869170D01*
X9881063Y3122158D01*
X9891145Y3128895D01*
X9927579Y3165330D01*
X9942560Y3162350D01*
X9947021Y3151580D01*
X9961880Y3136721D01*
X9981293Y3128680D01*
X10002306D01*
X10021720Y3136721D01*
X10036579Y3151580D01*
X10044620Y3170994D01*
Y3185412D01*
X10055630Y3194932D01*
X10056353Y3195124D01*
X10058749Y3194397D01*
Y3176500D01*
X10061341Y3156816D01*
X10068938Y3138475D01*
X10081024Y3122724D01*
X10096775Y3110638D01*
X10115116Y3103041D01*
X10122100Y3102121D01*
Y3231500D01*
Y3360879D01*
X10115116Y3359959D01*
X10096775Y3352362D01*
X10090900Y3347854D01*
X10078200Y3354117D01*
Y3370900D01*
X10050500D01*
Y3288000D01*
X10025100D01*
Y3370900D01*
X10020500D01*
Y3288000D01*
X9995100D01*
Y3370900D01*
X9988877D01*
Y3429828D01*
X10020472Y3461423D01*
X10604500D01*
X10616393Y3463788D01*
X10626475Y3470525D01*
X11018873Y3862923D01*
X11120080D01*
Y3811180D01*
X11282720D01*
Y3976820D01*
X11176848D01*
X10968241Y4185427D01*
Y4347180D01*
X11018420D01*
Y4542820D01*
X10844095D01*
X10833500Y4547900D01*
X10827184Y4547900D01*
X10750800D01*
Y4445000D01*
Y4342100D01*
X10827184D01*
X10833500Y4342100D01*
X10844095Y4347180D01*
X10887958D01*
Y4168800D01*
X10891014Y4153439D01*
X10899716Y4140416D01*
X11103321Y3936811D01*
X11098461Y3925077D01*
X11006000D01*
X10994107Y3922712D01*
X10984025Y3915975D01*
X10591628Y3523577D01*
X10007600D01*
X9995707Y3521212D01*
X9985625Y3514475D01*
X9935825Y3464675D01*
X9929088Y3454593D01*
X9926723Y3442700D01*
Y3365820D01*
X9911677D01*
Y3505028D01*
X10283575Y3876925D01*
X10290312Y3887007D01*
X10292677Y3898900D01*
Y3999309D01*
X10296791Y4003423D01*
X10410080D01*
Y3966680D01*
X10595720D01*
Y4102320D01*
X10410080D01*
Y4065577D01*
X10283918D01*
X10272026Y4063212D01*
X10261944Y4056475D01*
X10239625Y4034156D01*
X10232888Y4024074D01*
X10230523Y4012181D01*
Y3911772D01*
X10161720Y3842969D01*
X10149020Y3848230D01*
Y3938520D01*
X9928380D01*
Y3833880D01*
X10134670D01*
X10139930Y3821180D01*
X9858625Y3539875D01*
X9851888Y3529793D01*
X9849523Y3517900D01*
Y3365820D01*
X9808877D01*
Y3366177D01*
X9806512Y3378070D01*
X9799775Y3388152D01*
X9708877Y3479050D01*
Y4165200D01*
X9706512Y4177093D01*
X9699775Y4187175D01*
X9597775Y4289175D01*
X9587693Y4295912D01*
X9575800Y4298277D01*
X9528020D01*
Y4319520D01*
X9307380D01*
Y4214880D01*
X9528020D01*
Y4236123D01*
X9562928D01*
X9646723Y4152327D01*
Y4104421D01*
X9634990Y4099560D01*
X9572375Y4162175D01*
X9562293Y4168912D01*
X9550400Y4171277D01*
X9528020D01*
Y4192520D01*
X9307380D01*
Y4087880D01*
X9528020D01*
Y4101416D01*
X9540720Y4105930D01*
X9596723Y4049927D01*
Y3388294D01*
X9584023Y3383033D01*
X9171538Y3795518D01*
X9162716Y3801412D01*
X9161020Y3801750D01*
Y3928220D01*
X9025380D01*
Y3742580D01*
X9147564D01*
X9512591Y3377553D01*
X9507730Y3365820D01*
X9438200D01*
Y3370900D01*
X9410500D01*
Y3288000D01*
X9385100D01*
Y3370900D01*
X9380500D01*
Y3288000D01*
X9355100D01*
Y3370900D01*
X9327400D01*
Y3354117D01*
X9314700Y3347854D01*
X9308825Y3352362D01*
X9290484Y3359959D01*
X9283500Y3360879D01*
Y3231500D01*
Y3102121D01*
X9290484Y3103041D01*
X9308825Y3110638D01*
X9324576Y3122724D01*
X9336662Y3138475D01*
X9344259Y3156816D01*
X9346851Y3176500D01*
Y3194397D01*
X9349247Y3195124D01*
X9349970Y3194932D01*
X9360980Y3185412D01*
Y3170994D01*
X9369021Y3151580D01*
X9383880Y3136721D01*
X9403294Y3128680D01*
X9424307D01*
X9443720Y3136721D01*
X9458579Y3151580D01*
X9466620Y3170994D01*
Y3172837D01*
X9478353Y3177697D01*
X9527155Y3128895D01*
X9537237Y3122158D01*
X9549130Y3119793D01*
X9560760D01*
X9565620Y3108060D01*
X9513733Y3056173D01*
X8481277D01*
X7625677Y3911773D01*
Y6489700D01*
X7623312Y6501593D01*
X7616575Y6511675D01*
X7504420Y6623830D01*
Y6780520D01*
D02*
G37*
G36*
X10600800Y3826800D02*
X10515600D01*
Y3766600D01*
X10600800D01*
Y3826800D01*
D02*
G37*
G36*
X10490200D02*
X10405000D01*
Y3766600D01*
X10490200D01*
Y3826800D01*
D02*
G37*
G36*
X8971100Y3822700D02*
X8910900D01*
Y3737500D01*
X8971100D01*
Y3822700D01*
D02*
G37*
G36*
X8885500D02*
X8825300D01*
Y3737500D01*
X8885500D01*
Y3822700D01*
D02*
G37*
G36*
X8278735Y3944620D02*
X8256665D01*
X8235347Y3938908D01*
X8216233Y3927873D01*
X8200627Y3912267D01*
X8189592Y3893153D01*
X8183880Y3871835D01*
Y3849765D01*
X8189592Y3828447D01*
X8200627Y3809333D01*
X8216233Y3793727D01*
X8235347Y3782692D01*
X8256665Y3776980D01*
X8278735D01*
X8300053Y3782692D01*
X8319167Y3793727D01*
X8334773Y3809333D01*
X8341311Y3820659D01*
X8550880D01*
Y3777080D01*
X8608559D01*
Y3590920D01*
X8479880D01*
Y3470280D01*
X8690520D01*
Y3590920D01*
X8688841D01*
Y3777080D01*
X8746520D01*
Y3942720D01*
X8550880D01*
Y3900941D01*
X8341311D01*
X8334773Y3912267D01*
X8319167Y3927873D01*
X8300053Y3938908D01*
X8278735Y3944620D01*
D02*
G37*
G36*
X10147500Y3360879D02*
Y3244200D01*
X10210851D01*
Y3286500D01*
X10208259Y3306184D01*
X10200662Y3324525D01*
X10188576Y3340276D01*
X10172825Y3352362D01*
X10154483Y3359959D01*
X10147500Y3360879D01*
D02*
G37*
G36*
X9258100D02*
X9251117Y3359959D01*
X9232775Y3352362D01*
X9217024Y3340276D01*
X9204938Y3324525D01*
X9197341Y3306184D01*
X9194749Y3286500D01*
Y3244200D01*
X9258100D01*
Y3360879D01*
D02*
G37*
G36*
X8695600Y3256000D02*
X8597900D01*
Y3203300D01*
X8695600D01*
Y3256000D01*
D02*
G37*
G36*
X8572500D02*
X8474800D01*
Y3203300D01*
X8572500D01*
Y3256000D01*
D02*
G37*
G36*
X8695600Y3177900D02*
X8597900D01*
Y3125200D01*
X8695600D01*
Y3177900D01*
D02*
G37*
G36*
X8572500D02*
X8474800D01*
Y3125200D01*
X8572500D01*
Y3177900D01*
D02*
G37*
G36*
X10210851Y3218800D02*
X10147500D01*
Y3102121D01*
X10154483Y3103041D01*
X10172825Y3110638D01*
X10188576Y3122724D01*
X10200662Y3138475D01*
X10208259Y3156816D01*
X10210851Y3176500D01*
Y3218800D01*
D02*
G37*
G36*
X9258100D02*
X9194749D01*
Y3176500D01*
X9197341Y3156816D01*
X9204938Y3138475D01*
X9217024Y3122724D01*
X9232775Y3110638D01*
X9251117Y3103041D01*
X9258100Y3102121D01*
Y3218800D01*
D02*
G37*
G36*
X10147500Y2927879D02*
Y2826200D01*
X10210851D01*
Y2853500D01*
X10208259Y2873183D01*
X10200662Y2891525D01*
X10188576Y2907276D01*
X10172825Y2919362D01*
X10154483Y2926959D01*
X10147500Y2927879D01*
D02*
G37*
G36*
X10122100D02*
X10115116Y2926959D01*
X10096775Y2919362D01*
X10081024Y2907276D01*
X10068938Y2891525D01*
X10061341Y2873183D01*
X10058749Y2853500D01*
Y2826200D01*
X10122100D01*
Y2927879D01*
D02*
G37*
G36*
X9283500D02*
Y2826200D01*
X9346851D01*
Y2853500D01*
X9344259Y2873183D01*
X9336662Y2891525D01*
X9324576Y2907276D01*
X9308825Y2919362D01*
X9290484Y2926959D01*
X9283500Y2927879D01*
D02*
G37*
G36*
X9258100D02*
X9251117Y2926959D01*
X9232775Y2919362D01*
X9217024Y2907276D01*
X9204938Y2891525D01*
X9197341Y2873183D01*
X9194749Y2853500D01*
Y2826200D01*
X9258100D01*
Y2927879D01*
D02*
G37*
G36*
X10210851Y2800800D02*
X10147500D01*
Y2699121D01*
X10154483Y2700041D01*
X10172825Y2707638D01*
X10188576Y2719724D01*
X10200662Y2735475D01*
X10208259Y2753817D01*
X10210851Y2773500D01*
Y2800800D01*
D02*
G37*
G36*
X10122100D02*
X10058749D01*
Y2773500D01*
X10061341Y2753817D01*
X10068938Y2735475D01*
X10081024Y2719724D01*
X10096775Y2707638D01*
X10115116Y2700041D01*
X10122100Y2699121D01*
Y2800800D01*
D02*
G37*
G36*
X9346851D02*
X9283500D01*
Y2699121D01*
X9290484Y2700041D01*
X9308825Y2707638D01*
X9324576Y2719724D01*
X9336662Y2735475D01*
X9344259Y2753817D01*
X9346851Y2773500D01*
Y2800800D01*
D02*
G37*
G36*
X9258100D02*
X9194749D01*
Y2773500D01*
X9197341Y2753817D01*
X9204938Y2735475D01*
X9217024Y2719724D01*
X9232775Y2707638D01*
X9251117Y2700041D01*
X9258100Y2699121D01*
Y2800800D01*
D02*
G37*
%LPD*%
G36*
X7826980Y8760700D02*
X7821900D01*
Y8694342D01*
X7659400D01*
Y8757100D01*
X7654320D01*
Y8799059D01*
X7826980D01*
Y8760700D01*
D02*
G37*
G36*
X8238778Y7883716D02*
X8251800Y7875014D01*
X8267162Y7871959D01*
X8655380D01*
Y7719780D01*
Y7571241D01*
X8452344D01*
X8299001Y7724584D01*
X8285978Y7733286D01*
X8270616Y7736341D01*
X7496764D01*
X7484376Y7757798D01*
X7478478Y7763695D01*
X7483339Y7775429D01*
X7932648D01*
X7948009Y7778484D01*
X7961032Y7787186D01*
X7998834Y7824988D01*
X8007536Y7838011D01*
X8007868Y7839680D01*
X8121720D01*
Y7885880D01*
X8133199Y7897359D01*
X8225135D01*
X8238778Y7883716D01*
D02*
G37*
D10*
X8775700Y8166100D02*
D03*
Y8039100D02*
D03*
Y7912100D02*
D03*
Y7785100D02*
D03*
Y7658100D02*
D03*
Y7531100D02*
D03*
Y7404100D02*
D03*
Y7277100D02*
D03*
Y7150100D02*
D03*
Y7023100D02*
D03*
Y6896100D02*
D03*
Y6769100D02*
D03*
Y6642100D02*
D03*
Y6515100D02*
D03*
Y6388100D02*
D03*
Y6261100D02*
D03*
Y6134100D02*
D03*
Y6007100D02*
D03*
Y5880100D02*
D03*
X10475700D02*
D03*
Y6007100D02*
D03*
Y6134100D02*
D03*
Y6261100D02*
D03*
Y6388100D02*
D03*
Y6515100D02*
D03*
Y6642100D02*
D03*
Y6769100D02*
D03*
Y6896100D02*
D03*
Y7023100D02*
D03*
Y7150100D02*
D03*
Y7277100D02*
D03*
Y7404100D02*
D03*
Y7531100D02*
D03*
Y7658100D02*
D03*
Y7785100D02*
D03*
Y7912100D02*
D03*
Y8039100D02*
D03*
Y8166100D02*
D03*
D11*
X9525700Y7416100D02*
D03*
D12*
X10038700Y4775200D02*
D03*
Y4648200D02*
D03*
Y4521200D02*
D03*
Y4394200D02*
D03*
Y4267200D02*
D03*
Y4140200D02*
D03*
Y4013200D02*
D03*
Y3886200D02*
D03*
X9417700D02*
D03*
Y4013200D02*
D03*
Y4140200D02*
D03*
Y4267200D02*
D03*
Y4394200D02*
D03*
Y4521200D02*
D03*
Y4648200D02*
D03*
Y4775200D02*
D03*
D13*
X11366500Y5259200D02*
D03*
Y5029200D02*
D03*
Y4799200D02*
D03*
D14*
X12001500Y5029200D02*
D03*
D15*
X7924800Y8660300D02*
D03*
Y8840300D02*
D03*
X8267700D02*
D03*
Y8660300D02*
D03*
X11531600Y4024800D02*
D03*
Y4204800D02*
D03*
D16*
X11062600Y5346700D02*
D03*
X10857600D02*
D03*
X9605480Y5355620D02*
D03*
X9810480D02*
D03*
D17*
X10350500Y5257800D02*
D03*
X10550500Y5352800D02*
D03*
Y5162800D02*
D03*
X10974400Y6038600D02*
D03*
Y5848600D02*
D03*
X11174400Y5943600D02*
D03*
D18*
X11493500Y6522900D02*
D03*
Y6862900D02*
D03*
X8585200Y3190600D02*
D03*
Y3530600D02*
D03*
D19*
X12193100Y5384800D02*
D03*
X12013100D02*
D03*
X12143400Y5664200D02*
D03*
X11963400D02*
D03*
X8026400Y7937500D02*
D03*
X7846400D02*
D03*
D20*
X10502900Y4034500D02*
D03*
Y3839500D02*
D03*
D21*
X10037800Y3288000D02*
D03*
X9957800D02*
D03*
X9477800D02*
D03*
X9397800D02*
D03*
X9367800D02*
D03*
X9447800D02*
D03*
X9527800D02*
D03*
X9577800D02*
D03*
X9627800D02*
D03*
X9677800D02*
D03*
X9727800D02*
D03*
X9777800D02*
D03*
X9827800D02*
D03*
X9877800D02*
D03*
X9927800D02*
D03*
X10007800D02*
D03*
D22*
X7556500Y8839200D02*
D03*
Y8654200D02*
D03*
X7200900Y8842800D02*
D03*
Y8657800D02*
D03*
D23*
X11201400Y3894000D02*
D03*
Y3599000D02*
D03*
D24*
X9093200Y3835400D02*
D03*
X8898200D02*
D03*
D25*
X10738100Y4445000D02*
D03*
X10928100D02*
D03*
D26*
X10871200Y6526900D02*
D03*
Y6731900D02*
D03*
X8648700Y3859900D02*
D03*
Y4064900D02*
D03*
D27*
X8152400Y6298200D02*
X8369300Y6515100D01*
X8152400Y4920549D02*
Y6298200D01*
X10475700Y6515100D02*
X10859400D01*
X10198100D02*
X10475700D01*
X11023707Y6526900D02*
X11359707Y6862900D01*
X10859400Y6515100D02*
X10871200Y6526900D01*
X11023707D01*
X9232900Y5765800D02*
X10185400Y6718300D01*
Y7607300D01*
X9232900Y4670518D02*
Y5765800D01*
X11174400Y5943600D02*
X11417300D01*
X10080020Y5355620D02*
X10172700Y5448300D01*
X10007600Y5283200D02*
X10080020Y5355620D01*
X9810480D02*
X10080020D01*
X10172700Y5448300D02*
X10450000D01*
X10007600Y5231000D02*
Y5283200D01*
Y5231000D02*
X10337800Y4900800D01*
X11359707Y6862900D02*
X11493500D01*
X10528300Y5638800D02*
X10907150Y6017650D01*
X10953450D02*
X10974400Y6038600D01*
X9648918Y5638800D02*
X10528300D01*
X10907150Y6017650D02*
X10953450D01*
X8369300Y6515100D02*
X8775700D01*
X12166600Y6718300D02*
X12293600D01*
X11645900Y7239000D02*
X12166600Y6718300D01*
X11378300Y7239000D02*
X11645900D01*
X10929650Y6790350D02*
X11378300Y7239000D01*
X10871200Y6731900D02*
X10886200D01*
X10929650Y6775350D01*
Y6790350D01*
X12293600Y6464300D02*
X12649200D01*
X12293600Y6210300D02*
X12649200D01*
Y6972300D02*
Y7188140D01*
X11798240Y8039100D02*
X12649200Y7188140D01*
X10475700Y8039100D02*
X11798240D01*
X11969750Y5657850D02*
X12001500Y5626100D01*
X11963400Y5664200D02*
X11969750Y5657850D01*
X11988800Y5676900D01*
X11916750Y5604850D02*
X11969750Y5657850D01*
X11916750Y5626100D02*
X11925300D01*
X11737766D02*
X11916750D01*
X12001500Y5029200D02*
Y5626100D01*
X8326150Y8784350D02*
X8333330Y8777170D01*
X8283450Y8827050D02*
X8326150Y8784350D01*
X8270200Y8840300D02*
X8283450Y8827050D01*
X8254450D02*
X8283450D01*
X8241200Y8840300D02*
X8254450Y8827050D01*
X11916750Y5604850D02*
Y5626100D01*
X10928100Y4168800D02*
X11201400Y3895500D01*
Y3894000D02*
Y3895500D01*
X10928100Y4168800D02*
Y4445000D01*
X12184414Y6388100D02*
X12260614Y6464300D01*
X10475700Y6388100D02*
X12184414D01*
X12260614Y6464300D02*
X12293600D01*
X12260614Y6210300D02*
X12293600D01*
X10475700Y6261100D02*
X12209814D01*
X12260614Y6210300D01*
X10058400Y4788150D02*
Y4965700D01*
X10350500Y5105400D02*
Y5257800D01*
Y5105400D02*
X10515600Y4940300D01*
X9626600Y5336950D02*
Y5616482D01*
X9648918Y5638800D01*
X6807200Y5321300D02*
Y7268115D01*
X7354655Y7815570D01*
X8116572Y7937500D02*
X8241762D01*
X7354655Y7815570D02*
X7932648D01*
X7970450Y7853372D01*
Y7879050D01*
X7994678Y7903278D02*
X8082350D01*
X7970450Y7879050D02*
X7994678Y7903278D01*
X7404100Y7696200D02*
X8270616D01*
X8026400Y7937500D02*
X8116572D01*
X8082350Y7903278D02*
X8116572Y7937500D01*
X8647800Y3860800D02*
X8648700Y3859900D01*
X8267700Y3860800D02*
X8647800D01*
X7552900Y8842800D02*
X7556500Y8839200D01*
X7200900Y8842800D02*
X7552900D01*
X8483600Y8051800D02*
X8763000D01*
X8775700Y8039100D01*
X8394700Y8140700D02*
X8483600Y8051800D01*
X8394700Y8140700D02*
Y8369300D01*
X7924800Y8840300D02*
X8241200D01*
X8326150Y8781850D02*
Y8784350D01*
Y8781850D02*
X8333330Y8774670D01*
X8361508D01*
X8333330D02*
Y8777170D01*
X8267700Y8840300D02*
X8270200D01*
X8361508Y8774670D02*
X8534400Y8601778D01*
Y8509000D02*
Y8601778D01*
X8394700Y8369300D02*
X8534400Y8509000D01*
X7924800Y8660300D02*
X8267700D01*
X7918700Y8654200D02*
X7924800Y8660300D01*
X7556500Y8654200D02*
X7918700D01*
X7556500Y8839200D02*
X7923700D01*
X7924800Y8840300D01*
X8241762Y7937500D02*
X8267162Y7912100D01*
X8775700D01*
X8343900Y7188200D02*
X8445500Y7289800D01*
X7404100Y6934200D02*
X8356600D01*
X8572500Y7150100D01*
X7404100Y7188200D02*
X8343900D01*
X8572500Y7150100D02*
X8775700D01*
X10248900Y4521200D02*
X10337800Y4610100D01*
Y4900800D01*
X10688700Y5162800D02*
X10857600Y5331700D01*
X10550500Y5162800D02*
X10688700D01*
X10857600Y5331700D02*
Y5346700D01*
X10974400Y5449900D02*
X11062600Y5361700D01*
X10974400Y5449900D02*
Y5848600D01*
X11062600Y5346700D02*
Y5361700D01*
X10450000Y5448300D02*
X10545500Y5352800D01*
X10550500D01*
X10038700Y4521200D02*
X10248900D01*
X11062600Y5080900D02*
Y5346700D01*
X10375900Y4394200D02*
X11062600Y5080900D01*
X10038700Y4394200D02*
X10375900D01*
X10236200Y7785100D02*
X10475700D01*
X10020300Y6858000D02*
Y7569200D01*
X10236200Y7785100D01*
X10185400Y7607300D02*
X10236200Y7658100D01*
X10475700D01*
X9083582Y4657818D02*
Y5921282D01*
X10020300Y6858000D01*
X9083582Y4657818D02*
X9220200Y4521200D01*
X9417700D01*
X9255218Y4648200D02*
X9417700D01*
X9232900Y4670518D02*
X9255218Y4648200D01*
X10038700Y4775200D02*
X10045450D01*
X10058400Y4788150D01*
X8627750Y3530600D02*
X8648700Y3551550D01*
X8585200Y3530600D02*
X8627750D01*
X11366500Y5029200D02*
X12001500D01*
X11696700Y5626100D02*
X11722100Y5600700D01*
Y5610434D02*
X11737766Y5626100D01*
X11722100Y5600700D02*
Y5610434D01*
X9271000Y4394200D02*
X9417700D01*
X9156700Y4279900D02*
X9271000Y4394200D01*
X8953500Y4279900D02*
X9156700D01*
X8861690Y4262890D02*
X8936490D01*
X8648700Y4064900D02*
X8663700D01*
X8861690Y4262890D01*
X8936490D02*
X8953500Y4279900D01*
X8648700Y3551550D02*
Y3859900D01*
X11531600Y4024800D02*
X11670200D01*
X11861800Y4216400D02*
Y4445000D01*
X11670200Y4024800D02*
X11861800Y4216400D01*
X11507600Y4799200D02*
X11861800Y4445000D01*
X11366500Y4799200D02*
X11507600D01*
X11531600Y3759200D02*
Y4024800D01*
X11379200Y3606800D02*
X11531600Y3759200D01*
X11201400Y3599000D02*
X11209200Y3606800D01*
X11379200D01*
X8270616Y7696200D02*
X8435716Y7531100D01*
X8763000Y7289800D02*
X8775700Y7277100D01*
X8445500Y7289800D02*
X8763000D01*
X8382000Y7416800D02*
X8763000D01*
X8775700Y7404100D01*
X7404100Y7442200D02*
X8356600D01*
X8382000Y7416800D01*
X8435716Y7531100D02*
X8775700D01*
D28*
X7594600Y3898900D02*
X8468404Y3025096D01*
X7404100Y6680200D02*
X7594600Y6489700D01*
Y3898900D02*
Y6489700D01*
X11006000Y3894000D02*
X11201400D01*
X10604500Y3492500D02*
X11006000Y3894000D01*
X9957800Y3288000D02*
Y3442700D01*
X10007600Y3492500D02*
X10604500D01*
X9957800Y3442700D02*
X10007600Y3492500D01*
X9549130Y3150870D02*
X9869170D01*
X8468404Y3025096D02*
X9526606D01*
X9652000Y3150490D01*
X9677800Y3467100D02*
Y4165200D01*
Y3288000D02*
Y3466177D01*
X9777800Y3366177D01*
Y3288000D02*
Y3366177D01*
X9677800Y3466177D02*
Y3467100D01*
X9575800Y4267200D02*
X9677800Y4165200D01*
X9632320Y3217875D02*
Y3283480D01*
X9723280Y3283480D02*
X9727800Y3288000D01*
X9650175Y3200020D02*
X9705425D01*
X9723280Y3217875D02*
Y3283480D01*
X9627800Y3288000D02*
X9632320Y3283480D01*
Y3217875D02*
X9650175Y3200020D01*
X9705425D02*
X9723280Y3217875D01*
X9477800Y3222200D02*
X9549130Y3150870D01*
X9869170D02*
X9927800Y3209500D01*
Y3288000D01*
X9880600D02*
Y3517900D01*
X10261600Y3898900D01*
X9477800Y3222200D02*
Y3288000D01*
X10261600Y4012181D02*
X10283918Y4034500D01*
X10502900D01*
X10261600Y3898900D02*
Y4012181D01*
X9627800Y3288000D02*
Y4062000D01*
X9417700Y4267200D02*
X9575800D01*
X9550400Y4140200D02*
X9627000Y4063600D01*
X9417700Y4140200D02*
X9550400D01*
D29*
X9093200Y3817440D02*
Y3835400D01*
Y3817440D02*
X9134350Y3776290D01*
X9572180Y3293620D02*
Y3356420D01*
X9134350Y3776290D02*
X9152310D01*
X9572180Y3356420D01*
Y3293620D02*
X9577800Y3288000D01*
X9627000Y4062800D02*
X9627800Y4062000D01*
X9627000Y4062800D02*
Y4063600D01*
D30*
X7392400Y4953000D02*
D03*
D31*
X8152400D02*
D03*
D32*
X12649200Y6210300D02*
D03*
Y6464300D02*
D03*
Y6718300D02*
D03*
X7404100Y7442200D02*
D03*
Y6934200D02*
D03*
Y7188200D02*
D03*
Y7696200D02*
D03*
Y7950200D02*
D03*
X12293600Y6210300D02*
D03*
Y6464300D02*
D03*
Y6718300D02*
D03*
D33*
X12649200Y6972300D02*
D03*
X7404100Y6680200D02*
D03*
X12293600Y6972300D02*
D03*
D34*
X9413800Y3181500D02*
D03*
X9991800D02*
D03*
D35*
X10134800Y2813500D02*
D03*
X9270800D02*
D03*
D36*
X10134800Y3231500D02*
D03*
X9270800D02*
D03*
D37*
X10198100Y6515100D02*
D03*
X11417300Y5943600D02*
D03*
X10058400Y4965700D02*
D03*
X10515600Y4940300D02*
D03*
X6807200Y5321300D02*
D03*
X8267700Y3860800D02*
D03*
X8394700Y8369300D02*
D03*
X11696700Y5626100D02*
D03*
X8953500Y4279900D02*
D03*
%TF.MD5,0343eceb88afdc149dbd0375d4c474ed*%
M02*
